STARTFONT 2.1
COMMENT
COMMENT Converted from OpenType font "Logisoso.ttf" by "otf2bdf 3.0".
COMMENT
FONT -FreeType-Logisoso-Medium-R-Normal--23-230-72-72-P-30-ISO10646-1
SIZE 23 72 72
FONTBOUNDINGBOX 62 23 -2 -4
STARTPROPERTIES 19
FOUNDRY "FreeType"
FAMILY_NAME "Logisoso"
WEIGHT_NAME "Medium"
SLANT "R"
SETWIDTH_NAME "Normal"
ADD_STYLE_NAME ""
PIXEL_SIZE 23
POINT_SIZE 230
RESOLUTION_X 72
RESOLUTION_Y 72
SPACING "P"
AVERAGE_WIDTH 30
CHARSET_REGISTRY "ISO10646"
CHARSET_ENCODING "1"
FONT_ASCENT 19
FONT_DESCENT 4
COPYRIGHT "Created by Mathieu Gabiot with FontForge 2.0 (http://fontforge.sf.net) - Brussels - 2009"
_OTF_FONTFILE "Logisoso.ttf"
_OTF_PSNAME "Logisoso"
ENDPROPERTIES
CHARS 527
STARTCHAR 001E
ENCODING 30
SWIDTH 434 0
DWIDTH 10 0
BBX 0 0 0 0
BITMAP
ENDCHAR
STARTCHAR 001F
ENCODING 31
SWIDTH 434 0
DWIDTH 10 0
BBX 0 0 0 0
BITMAP
ENDCHAR
STARTCHAR 0020
ENCODING 32
SWIDTH 434 0
DWIDTH 10 0
BBX 0 0 0 0
BITMAP
ENDCHAR
STARTCHAR 0021
ENCODING 33
SWIDTH 260 0
DWIDTH 6 0
BBX 2 16 2 0
BITMAP
C0
C0
C0
C0
C0
C0
C0
C0
C0
C0
C0
C0
C0
00
C0
C0
ENDCHAR
STARTCHAR 0022
ENCODING 34
SWIDTH 434 0
DWIDTH 10 0
BBX 4 3 3 13
BITMAP
D0
D0
90
ENDCHAR
STARTCHAR 0023
ENCODING 35
SWIDTH 434 0
DWIDTH 10 0
BBX 8 16 1 0
BITMAP
1B
3B
37
37
36
FF
FF
76
66
FF
FF
6C
6C
6C
EC
CC
ENDCHAR
STARTCHAR 0024
ENCODING 36
SWIDTH 434 0
DWIDTH 10 0
BBX 8 20 1 -2
BITMAP
18
18
3C
7E
E7
C3
C0
E0
70
38
1C
0E
07
03
C3
E7
7E
3C
18
18
ENDCHAR
STARTCHAR 0025
ENCODING 37
SWIDTH 434 0
DWIDTH 10 0
BBX 8 16 1 0
BITMAP
63
F6
F6
66
0C
0C
0C
18
18
30
30
30
66
6D
6F
C6
ENDCHAR
STARTCHAR 0026
ENCODING 38
SWIDTH 434 0
DWIDTH 10 0
BBX 8 16 1 0
BITMAP
1C
3E
63
63
60
70
70
F0
D8
DB
CF
CF
C7
E7
7F
3F
ENDCHAR
STARTCHAR 0027
ENCODING 39
SWIDTH 260 0
DWIDTH 6 0
BBX 2 3 2 13
BITMAP
C0
C0
80
ENDCHAR
STARTCHAR 0028
ENCODING 40
SWIDTH 434 0
DWIDTH 10 0
BBX 4 16 3 0
BITMAP
20
30
60
60
60
C0
C0
C0
C0
C0
C0
C0
60
60
70
20
ENDCHAR
STARTCHAR 0029
ENCODING 41
SWIDTH 434 0
DWIDTH 10 0
BBX 4 16 3 0
BITMAP
40
C0
60
60
60
30
30
30
30
30
30
30
60
60
E0
40
ENDCHAR
STARTCHAR 002A
ENCODING 42
SWIDTH 434 0
DWIDTH 10 0
BBX 8 7 1 11
BITMAP
18
5A
FF
3C
FF
5A
18
ENDCHAR
STARTCHAR 002B
ENCODING 43
SWIDTH 434 0
DWIDTH 10 0
BBX 6 6 2 3
BITMAP
30
30
FC
FC
30
30
ENDCHAR
STARTCHAR 002C
ENCODING 44
SWIDTH 260 0
DWIDTH 6 0
BBX 2 3 2 -1
BITMAP
C0
C0
40
ENDCHAR
STARTCHAR 002D
ENCODING 45
SWIDTH 434 0
DWIDTH 10 0
BBX 6 2 2 5
BITMAP
FC
FC
ENDCHAR
STARTCHAR 002E
ENCODING 46
SWIDTH 260 0
DWIDTH 6 0
BBX 2 2 2 0
BITMAP
C0
C0
ENDCHAR
STARTCHAR 002F
ENCODING 47
SWIDTH 434 0
DWIDTH 10 0
BBX 8 16 1 0
BITMAP
03
07
06
06
0E
0C
0C
18
18
18
30
30
70
60
60
E0
ENDCHAR
STARTCHAR 0030
ENCODING 48
SWIDTH 434 0
DWIDTH 10 0
BBX 8 16 1 0
BITMAP
3C
7E
E7
C3
C3
C3
C3
C3
C3
C3
C3
C3
C3
E7
7E
3C
ENDCHAR
STARTCHAR 0031
ENCODING 49
SWIDTH 434 0
DWIDTH 10 0
BBX 4 16 3 0
BITMAP
30
30
F0
F0
B0
30
30
30
30
30
30
30
30
30
30
30
ENDCHAR
STARTCHAR 0032
ENCODING 50
SWIDTH 434 0
DWIDTH 10 0
BBX 8 16 1 0
BITMAP
3C
7E
E7
C3
C3
C7
06
0E
1C
18
38
30
60
E0
FF
FF
ENDCHAR
STARTCHAR 0033
ENCODING 51
SWIDTH 434 0
DWIDTH 10 0
BBX 8 16 1 0
BITMAP
FF
FF
07
06
0C
1C
1C
1E
07
03
03
03
03
E7
7E
3C
ENDCHAR
STARTCHAR 0034
ENCODING 52
SWIDTH 434 0
DWIDTH 10 0
BBX 8 16 1 0
BITMAP
18
30
30
30
30
60
60
60
6C
CC
CC
FF
FF
0C
0C
0C
ENDCHAR
STARTCHAR 0035
ENCODING 53
SWIDTH 434 0
DWIDTH 10 0
BBX 8 16 1 0
BITMAP
FF
FF
C0
C0
C0
FC
FE
E7
C3
03
03
03
C3
E7
7E
3C
ENDCHAR
STARTCHAR 0036
ENCODING 54
SWIDTH 434 0
DWIDTH 10 0
BBX 8 16 1 0
BITMAP
3C
7E
E7
C3
C0
C0
FC
FE
E7
C3
C3
C3
C3
E7
7E
3C
ENDCHAR
STARTCHAR 0037
ENCODING 55
SWIDTH 434 0
DWIDTH 10 0
BBX 8 16 1 0
BITMAP
FF
FF
C3
C7
06
06
06
0E
0C
0C
1C
1C
18
18
38
30
ENDCHAR
STARTCHAR 0038
ENCODING 56
SWIDTH 434 0
DWIDTH 10 0
BBX 8 16 1 0
BITMAP
3C
7E
E7
C3
C3
C3
E7
7E
7E
E7
C3
C3
C3
E7
7E
3C
ENDCHAR
STARTCHAR 0039
ENCODING 57
SWIDTH 434 0
DWIDTH 10 0
BBX 8 16 1 0
BITMAP
3C
7E
E7
C3
C3
C3
C3
E7
7F
3F
03
03
C3
E7
7E
3C
ENDCHAR
STARTCHAR 003A
ENCODING 58
SWIDTH 260 0
DWIDTH 6 0
BBX 2 9 2 2
BITMAP
C0
C0
00
00
00
00
00
C0
C0
ENDCHAR
STARTCHAR 003B
ENCODING 59
SWIDTH 260 0
DWIDTH 6 0
BBX 2 10 2 1
BITMAP
C0
C0
00
00
00
00
00
C0
C0
40
ENDCHAR
STARTCHAR 003C
ENCODING 60
SWIDTH 478 0
DWIDTH 11 0
BBX 5 9 3 3
BITMAP
08
18
70
E0
80
E0
70
18
08
ENDCHAR
STARTCHAR 003D
ENCODING 61
SWIDTH 478 0
DWIDTH 11 0
BBX 7 6 2 2
BITMAP
FE
FE
00
00
FE
FE
ENDCHAR
STARTCHAR 003E
ENCODING 62
SWIDTH 478 0
DWIDTH 11 0
BBX 5 9 3 3
BITMAP
80
C0
70
38
08
38
70
E0
80
ENDCHAR
STARTCHAR 003F
ENCODING 63
SWIDTH 434 0
DWIDTH 10 0
BBX 8 16 1 0
BITMAP
3C
7E
E7
C3
03
07
0E
0C
18
18
18
18
18
00
18
18
ENDCHAR
STARTCHAR 0040
ENCODING 64
SWIDTH 695 0
DWIDTH 16 0
BBX 14 19 1 -4
BITMAP
0FC0
1FE0
3870
7018
E7CC
CFCC
CCCC
CCCC
CCCC
CCCC
CCCC
CCCC
CCCC
CFFC
E7F8
7000
3800
1FF0
0FF0
ENDCHAR
STARTCHAR 0041
ENCODING 65
SWIDTH 434 0
DWIDTH 10 0
BBX 8 16 1 0
BITMAP
18
18
1C
3C
3C
3C
3C
36
36
66
66
7E
7F
63
C3
C3
ENDCHAR
STARTCHAR 0042
ENCODING 66
SWIDTH 434 0
DWIDTH 10 0
BBX 8 16 1 0
BITMAP
F8
FE
C6
C3
C3
C3
C6
FC
FE
C7
C3
C3
C3
C6
FE
F8
ENDCHAR
STARTCHAR 0043
ENCODING 67
SWIDTH 434 0
DWIDTH 10 0
BBX 8 16 1 0
BITMAP
3C
7E
E7
C3
C0
C0
C0
C0
C0
C0
C0
C0
C3
E7
7E
3C
ENDCHAR
STARTCHAR 0044
ENCODING 68
SWIDTH 434 0
DWIDTH 10 0
BBX 8 16 1 0
BITMAP
FC
FE
C7
C3
C3
C3
C3
C3
C3
C3
C3
C3
C3
C7
FE
FC
ENDCHAR
STARTCHAR 0045
ENCODING 69
SWIDTH 434 0
DWIDTH 10 0
BBX 8 16 1 0
BITMAP
FF
FF
C0
C0
C0
C0
C0
FC
FC
C0
C0
C0
C0
C0
FF
FF
ENDCHAR
STARTCHAR 0046
ENCODING 70
SWIDTH 434 0
DWIDTH 10 0
BBX 8 16 1 0
BITMAP
FF
FF
C0
C0
C0
C0
C0
FC
FC
C0
C0
C0
C0
C0
C0
C0
ENDCHAR
STARTCHAR 0047
ENCODING 71
SWIDTH 434 0
DWIDTH 10 0
BBX 8 16 1 0
BITMAP
3C
7E
E7
C3
C0
C0
C0
C0
CF
CF
C3
C3
C3
E7
7F
3F
ENDCHAR
STARTCHAR 0048
ENCODING 72
SWIDTH 434 0
DWIDTH 10 0
BBX 8 16 1 0
BITMAP
C3
C3
C3
C3
C3
C3
C3
FF
FF
C3
C3
C3
C3
C3
C3
C3
ENDCHAR
STARTCHAR 0049
ENCODING 73
SWIDTH 260 0
DWIDTH 6 0
BBX 2 16 2 0
BITMAP
C0
C0
C0
C0
C0
C0
C0
C0
C0
C0
C0
C0
C0
C0
C0
C0
ENDCHAR
STARTCHAR 004A
ENCODING 74
SWIDTH 434 0
DWIDTH 10 0
BBX 8 16 1 0
BITMAP
03
03
03
03
03
03
03
03
03
03
03
03
C3
E7
7E
3C
ENDCHAR
STARTCHAR 004B
ENCODING 75
SWIDTH 434 0
DWIDTH 10 0
BBX 8 16 1 0
BITMAP
C7
C6
CE
CC
D8
F8
F0
E0
E0
F0
F8
D8
CC
CE
C6
C7
ENDCHAR
STARTCHAR 004C
ENCODING 76
SWIDTH 434 0
DWIDTH 10 0
BBX 8 16 1 0
BITMAP
C0
C0
C0
C0
C0
C0
C0
C0
C0
C0
C0
C0
C0
C0
FF
FF
ENDCHAR
STARTCHAR 004D
ENCODING 77
SWIDTH 434 0
DWIDTH 10 0
BBX 8 16 1 0
BITMAP
C3
E7
E7
E7
FF
FF
FF
FF
DB
DB
DB
C3
C3
C3
C3
C3
ENDCHAR
STARTCHAR 004E
ENCODING 78
SWIDTH 434 0
DWIDTH 10 0
BBX 8 16 1 0
BITMAP
C3
E3
E3
E3
F3
F3
FB
DB
DB
DF
CF
CF
C7
C7
C7
C3
ENDCHAR
STARTCHAR 004F
ENCODING 79
SWIDTH 434 0
DWIDTH 10 0
BBX 8 16 1 0
BITMAP
3C
7E
E7
C3
C3
C3
C3
C3
C3
C3
C3
C3
C3
E7
7E
3C
ENDCHAR
STARTCHAR 0050
ENCODING 80
SWIDTH 434 0
DWIDTH 10 0
BBX 8 16 1 0
BITMAP
F8
FE
C6
C3
C3
C3
C3
C6
FE
F8
C0
C0
C0
C0
C0
C0
ENDCHAR
STARTCHAR 0051
ENCODING 81
SWIDTH 434 0
DWIDTH 10 0
BBX 8 16 1 0
BITMAP
3C
7E
E7
C3
C3
C3
C3
C3
C3
C3
C3
C3
C3
E7
7F
3F
ENDCHAR
STARTCHAR 0052
ENCODING 82
SWIDTH 434 0
DWIDTH 10 0
BBX 8 16 1 0
BITMAP
F8
FE
C6
C3
C3
C3
C3
C6
FE
FC
CC
CC
C6
C6
C6
C3
ENDCHAR
STARTCHAR 0053
ENCODING 83
SWIDTH 434 0
DWIDTH 10 0
BBX 8 16 1 0
BITMAP
3C
7E
E7
C3
C0
E0
70
38
1C
0E
07
03
C3
E7
7E
3C
ENDCHAR
STARTCHAR 0054
ENCODING 84
SWIDTH 434 0
DWIDTH 10 0
BBX 8 16 1 0
BITMAP
FF
FF
18
18
18
18
18
18
18
18
18
18
18
18
18
18
ENDCHAR
STARTCHAR 0055
ENCODING 85
SWIDTH 434 0
DWIDTH 10 0
BBX 8 16 1 0
BITMAP
C3
C3
C3
C3
C3
C3
C3
C3
C3
C3
C3
C3
C3
E7
7E
3C
ENDCHAR
STARTCHAR 0056
ENCODING 86
SWIDTH 434 0
DWIDTH 10 0
BBX 8 16 1 0
BITMAP
C3
C3
63
63
66
66
66
36
36
3E
3C
3C
1C
1C
1C
18
ENDCHAR
STARTCHAR 0057
ENCODING 87
SWIDTH 478 0
DWIDTH 11 0
BBX 7 16 2 0
BITMAP
C6
C6
C6
C6
C6
D6
D6
D6
DE
FE
FE
FE
FE
EE
EE
EE
ENDCHAR
STARTCHAR 0058
ENCODING 88
SWIDTH 434 0
DWIDTH 10 0
BBX 8 16 1 0
BITMAP
C3
63
66
66
36
3E
3C
3C
3C
3C
3E
76
66
66
63
C3
ENDCHAR
STARTCHAR 0059
ENCODING 89
SWIDTH 434 0
DWIDTH 10 0
BBX 8 16 1 0
BITMAP
C3
67
66
66
6E
3C
3C
38
38
18
30
30
70
60
60
E0
ENDCHAR
STARTCHAR 005A
ENCODING 90
SWIDTH 434 0
DWIDTH 10 0
BBX 8 16 1 0
BITMAP
FF
FF
03
06
06
0C
0C
18
18
30
30
60
60
C0
FF
FF
ENDCHAR
STARTCHAR 005B
ENCODING 91
SWIDTH 434 0
DWIDTH 10 0
BBX 5 16 3 0
BITMAP
F8
F8
C0
C0
C0
C0
C0
C0
C0
C0
C0
C0
C0
C0
F8
F8
ENDCHAR
STARTCHAR 005C
ENCODING 92
SWIDTH 434 0
DWIDTH 10 0
BBX 7 16 2 0
BITMAP
C0
C0
C0
60
60
70
30
30
38
18
18
1C
0C
0C
0E
06
ENDCHAR
STARTCHAR 005D
ENCODING 93
SWIDTH 434 0
DWIDTH 10 0
BBX 5 16 2 0
BITMAP
F8
F8
18
18
18
18
18
18
18
18
18
18
18
18
F8
F8
ENDCHAR
STARTCHAR 005E
ENCODING 94
SWIDTH 434 0
DWIDTH 10 0
BBX 6 3 2 16
BITMAP
30
78
CC
ENDCHAR
STARTCHAR 005F
ENCODING 95
SWIDTH 434 0
DWIDTH 10 0
BBX 10 1 0 -1
BITMAP
FFC0
ENDCHAR
STARTCHAR 0060
ENCODING 96
SWIDTH 434 0
DWIDTH 10 0
BBX 3 3 4 15
BITMAP
C0
C0
60
ENDCHAR
STARTCHAR 0061
ENCODING 97
SWIDTH 478 0
DWIDTH 11 0
BBX 9 12 1 0
BITMAP
1C00
3E00
6300
6300
0300
3F00
7F00
C300
C300
C300
7F80
3D80
ENDCHAR
STARTCHAR 0062
ENCODING 98
SWIDTH 434 0
DWIDTH 10 0
BBX 8 16 1 0
BITMAP
C0
C0
C0
C0
FC
FE
E7
C3
C3
C3
C3
C3
C3
E7
FE
FC
ENDCHAR
STARTCHAR 0063
ENCODING 99
SWIDTH 434 0
DWIDTH 10 0
BBX 8 12 1 0
BITMAP
3C
7E
E7
C3
C0
C0
C0
C0
C3
E7
7E
3C
ENDCHAR
STARTCHAR 0064
ENCODING 100
SWIDTH 434 0
DWIDTH 10 0
BBX 8 16 1 0
BITMAP
03
03
03
03
3F
7F
E7
C3
C3
C3
C3
C3
C3
E7
7F
3F
ENDCHAR
STARTCHAR 0065
ENCODING 101
SWIDTH 434 0
DWIDTH 10 0
BBX 8 12 1 0
BITMAP
3C
7E
E7
C3
C3
FF
FF
C0
C0
E7
7E
3C
ENDCHAR
STARTCHAR 0066
ENCODING 102
SWIDTH 434 0
DWIDTH 10 0
BBX 8 16 1 0
BITMAP
1E
3F
33
30
30
30
FE
FE
30
30
30
30
30
30
30
30
ENDCHAR
STARTCHAR 0067
ENCODING 103
SWIDTH 434 0
DWIDTH 10 0
BBX 8 16 1 -4
BITMAP
3F
7F
E7
C3
C3
E7
7E
7C
60
60
7E
FF
C3
C3
FF
7E
ENDCHAR
STARTCHAR 0068
ENCODING 104
SWIDTH 434 0
DWIDTH 10 0
BBX 8 16 1 0
BITMAP
C0
C0
C0
C0
FC
FE
E7
C3
C3
C3
C3
C3
C3
C3
C3
C3
ENDCHAR
STARTCHAR 0069
ENCODING 105
SWIDTH 260 0
DWIDTH 6 0
BBX 3 16 1 0
BITMAP
C0
C0
00
00
C0
C0
C0
C0
C0
C0
C0
C0
C0
C0
E0
60
ENDCHAR
STARTCHAR 006A
ENCODING 106
SWIDTH 434 0
DWIDTH 10 0
BBX 6 20 2 -4
BITMAP
0C
0C
00
00
0C
0C
0C
0C
0C
0C
0C
0C
0C
0C
0C
0C
0C
CC
FC
78
ENDCHAR
STARTCHAR 006B
ENCODING 107
SWIDTH 434 0
DWIDTH 10 0
BBX 8 16 1 0
BITMAP
C0
C0
C0
C0
C7
C6
CE
CC
D8
D8
F8
F8
EC
EE
C6
C7
ENDCHAR
STARTCHAR 006C
ENCODING 108
SWIDTH 260 0
DWIDTH 6 0
BBX 4 16 1 0
BITMAP
C0
C0
C0
C0
C0
C0
C0
C0
C0
C0
C0
C0
C0
C0
F0
70
ENDCHAR
STARTCHAR 006D
ENCODING 109
SWIDTH 695 0
DWIDTH 16 0
BBX 14 12 1 0
BITMAP
FCF0
FFF8
E79C
C30C
C30C
C30C
C30C
C30C
C30C
C30C
C30C
C30C
ENDCHAR
STARTCHAR 006E
ENCODING 110
SWIDTH 434 0
DWIDTH 10 0
BBX 8 12 1 0
BITMAP
FC
FE
E7
C3
C3
C3
C3
C3
C3
C3
C3
C3
ENDCHAR
STARTCHAR 006F
ENCODING 111
SWIDTH 434 0
DWIDTH 10 0
BBX 8 12 1 0
BITMAP
3C
7E
E7
C3
C3
C3
C3
C3
C3
E7
7E
3C
ENDCHAR
STARTCHAR 0070
ENCODING 112
SWIDTH 434 0
DWIDTH 10 0
BBX 8 16 1 -4
BITMAP
FC
FE
E7
C3
C3
C3
C3
C3
C3
E7
FE
FC
C0
C0
C0
C0
ENDCHAR
STARTCHAR 0071
ENCODING 113
SWIDTH 434 0
DWIDTH 10 0
BBX 8 16 1 -4
BITMAP
3F
7F
E7
C3
C3
C3
C3
C3
C3
E7
7F
3F
03
03
03
03
ENDCHAR
STARTCHAR 0072
ENCODING 114
SWIDTH 347 0
DWIDTH 8 0
BBX 6 12 1 0
BITMAP
FC
FC
EC
C0
C0
C0
C0
C0
C0
C0
C0
C0
ENDCHAR
STARTCHAR 0073
ENCODING 115
SWIDTH 391 0
DWIDTH 9 0
BBX 7 12 1 0
BITMAP
38
7C
C6
C6
C0
78
3C
06
C6
C6
7C
38
ENDCHAR
STARTCHAR 0074
ENCODING 116
SWIDTH 304 0
DWIDTH 7 0
BBX 5 16 1 0
BITMAP
60
60
60
60
F8
F8
60
60
60
60
60
60
60
60
78
38
ENDCHAR
STARTCHAR 0075
ENCODING 117
SWIDTH 434 0
DWIDTH 10 0
BBX 8 12 1 0
BITMAP
C3
C3
C3
C3
C3
C3
C3
C3
C3
E7
7F
3F
ENDCHAR
STARTCHAR 0076
ENCODING 118
SWIDTH 434 0
DWIDTH 10 0
BBX 8 12 1 0
BITMAP
C3
C3
63
67
66
66
66
36
3E
3C
3C
3C
ENDCHAR
STARTCHAR 0077
ENCODING 119
SWIDTH 695 0
DWIDTH 16 0
BBX 14 12 1 0
BITMAP
C30C
C38C
638C
678C
6798
6798
67D8
36D8
3CD8
3CF0
3CF0
3CF0
ENDCHAR
STARTCHAR 0078
ENCODING 120
SWIDTH 434 0
DWIDTH 10 0
BBX 8 12 1 0
BITMAP
C3
67
66
3C
3C
18
18
3C
3C
66
66
C3
ENDCHAR
STARTCHAR 0079
ENCODING 121
SWIDTH 434 0
DWIDTH 10 0
BBX 8 16 1 -4
BITMAP
63
63
63
37
36
36
36
36
1E
1C
1C
1C
1C
5C
F8
70
ENDCHAR
STARTCHAR 007A
ENCODING 122
SWIDTH 434 0
DWIDTH 10 0
BBX 8 12 1 0
BITMAP
FF
FF
07
0E
0C
1C
38
30
70
E0
FF
FF
ENDCHAR
STARTCHAR 007B
ENCODING 123
SWIDTH 434 0
DWIDTH 10 0
BBX 6 18 2 -2
BITMAP
0C
1C
30
30
30
30
30
70
E0
E0
70
30
30
30
30
30
1C
0C
ENDCHAR
STARTCHAR 007C
ENCODING 124
SWIDTH 434 0
DWIDTH 10 0
BBX 2 20 4 -2
BITMAP
C0
C0
C0
C0
C0
C0
C0
C0
C0
C0
C0
C0
C0
C0
C0
C0
C0
C0
C0
C0
ENDCHAR
STARTCHAR 007D
ENCODING 125
SWIDTH 434 0
DWIDTH 10 0
BBX 6 18 2 -2
BITMAP
C0
E0
70
30
30
30
30
30
1C
1C
30
30
30
30
30
70
E0
C0
ENDCHAR
STARTCHAR 007E
ENCODING 126
SWIDTH 434 0
DWIDTH 10 0
BBX 9 2 1 6
BITMAP
FF00
7F80
ENDCHAR
STARTCHAR 007F
ENCODING 127
SWIDTH 434 0
DWIDTH 10 0
BBX 0 0 0 0
BITMAP
ENDCHAR
STARTCHAR 0080
ENCODING 128
SWIDTH 434 0
DWIDTH 10 0
BBX 0 0 0 0
BITMAP
ENDCHAR
STARTCHAR 0081
ENCODING 129
SWIDTH 434 0
DWIDTH 10 0
BBX 0 0 0 0
BITMAP
ENDCHAR
STARTCHAR 0082
ENCODING 130
SWIDTH 434 0
DWIDTH 10 0
BBX 0 0 0 0
BITMAP
ENDCHAR
STARTCHAR 0083
ENCODING 131
SWIDTH 434 0
DWIDTH 10 0
BBX 0 0 0 0
BITMAP
ENDCHAR
STARTCHAR 0084
ENCODING 132
SWIDTH 434 0
DWIDTH 10 0
BBX 0 0 0 0
BITMAP
ENDCHAR
STARTCHAR 0085
ENCODING 133
SWIDTH 434 0
DWIDTH 10 0
BBX 0 0 0 0
BITMAP
ENDCHAR
STARTCHAR 0086
ENCODING 134
SWIDTH 434 0
DWIDTH 10 0
BBX 0 0 0 0
BITMAP
ENDCHAR
STARTCHAR 0087
ENCODING 135
SWIDTH 434 0
DWIDTH 10 0
BBX 0 0 0 0
BITMAP
ENDCHAR
STARTCHAR 0088
ENCODING 136
SWIDTH 434 0
DWIDTH 10 0
BBX 0 0 0 0
BITMAP
ENDCHAR
STARTCHAR 0089
ENCODING 137
SWIDTH 434 0
DWIDTH 10 0
BBX 0 0 0 0
BITMAP
ENDCHAR
STARTCHAR 008A
ENCODING 138
SWIDTH 434 0
DWIDTH 10 0
BBX 0 0 0 0
BITMAP
ENDCHAR
STARTCHAR 008B
ENCODING 139
SWIDTH 434 0
DWIDTH 10 0
BBX 0 0 0 0
BITMAP
ENDCHAR
STARTCHAR 008C
ENCODING 140
SWIDTH 434 0
DWIDTH 10 0
BBX 0 0 0 0
BITMAP
ENDCHAR
STARTCHAR 008D
ENCODING 141
SWIDTH 434 0
DWIDTH 10 0
BBX 0 0 0 0
BITMAP
ENDCHAR
STARTCHAR 008E
ENCODING 142
SWIDTH 434 0
DWIDTH 10 0
BBX 0 0 0 0
BITMAP
ENDCHAR
STARTCHAR 008F
ENCODING 143
SWIDTH 434 0
DWIDTH 10 0
BBX 0 0 0 0
BITMAP
ENDCHAR
STARTCHAR 0090
ENCODING 144
SWIDTH 434 0
DWIDTH 10 0
BBX 0 0 0 0
BITMAP
ENDCHAR
STARTCHAR 0091
ENCODING 145
SWIDTH 434 0
DWIDTH 10 0
BBX 0 0 0 0
BITMAP
ENDCHAR
STARTCHAR 0092
ENCODING 146
SWIDTH 434 0
DWIDTH 10 0
BBX 0 0 0 0
BITMAP
ENDCHAR
STARTCHAR 0093
ENCODING 147
SWIDTH 434 0
DWIDTH 10 0
BBX 0 0 0 0
BITMAP
ENDCHAR
STARTCHAR 0094
ENCODING 148
SWIDTH 434 0
DWIDTH 10 0
BBX 0 0 0 0
BITMAP
ENDCHAR
STARTCHAR 0095
ENCODING 149
SWIDTH 434 0
DWIDTH 10 0
BBX 0 0 0 0
BITMAP
ENDCHAR
STARTCHAR 0096
ENCODING 150
SWIDTH 434 0
DWIDTH 10 0
BBX 0 0 0 0
BITMAP
ENDCHAR
STARTCHAR 0097
ENCODING 151
SWIDTH 434 0
DWIDTH 10 0
BBX 0 0 0 0
BITMAP
ENDCHAR
STARTCHAR 0098
ENCODING 152
SWIDTH 434 0
DWIDTH 10 0
BBX 0 0 0 0
BITMAP
ENDCHAR
STARTCHAR 0099
ENCODING 153
SWIDTH 434 0
DWIDTH 10 0
BBX 0 0 0 0
BITMAP
ENDCHAR
STARTCHAR 009A
ENCODING 154
SWIDTH 434 0
DWIDTH 10 0
BBX 0 0 0 0
BITMAP
ENDCHAR
STARTCHAR 009B
ENCODING 155
SWIDTH 434 0
DWIDTH 10 0
BBX 0 0 0 0
BITMAP
ENDCHAR
STARTCHAR 009C
ENCODING 156
SWIDTH 434 0
DWIDTH 10 0
BBX 0 0 0 0
BITMAP
ENDCHAR
STARTCHAR 009D
ENCODING 157
SWIDTH 434 0
DWIDTH 10 0
BBX 0 0 0 0
BITMAP
ENDCHAR
STARTCHAR 009E
ENCODING 158
SWIDTH 434 0
DWIDTH 10 0
BBX 0 0 0 0
BITMAP
ENDCHAR
STARTCHAR 009F
ENCODING 159
SWIDTH 434 0
DWIDTH 10 0
BBX 0 0 0 0
BITMAP
ENDCHAR
STARTCHAR 00A0
ENCODING 160
SWIDTH 434 0
DWIDTH 10 0
BBX 0 0 0 0
BITMAP
ENDCHAR
STARTCHAR 00A1
ENCODING 161
SWIDTH 434 0
DWIDTH 10 0
BBX 0 0 0 0
BITMAP
ENDCHAR
STARTCHAR 00A2
ENCODING 162
SWIDTH 434 0
DWIDTH 10 0
BBX 0 0 0 0
BITMAP
ENDCHAR
STARTCHAR 00A3
ENCODING 163
SWIDTH 434 0
DWIDTH 10 0
BBX 8 16 1 0
BITMAP
1C
3E
63
60
60
60
60
FC
FC
60
60
60
60
60
FF
FF
ENDCHAR
STARTCHAR 00A4
ENCODING 164
SWIDTH 434 0
DWIDTH 10 0
BBX 0 0 0 0
BITMAP
ENDCHAR
STARTCHAR 00A5
ENCODING 165
SWIDTH 434 0
DWIDTH 10 0
BBX 0 0 0 0
BITMAP
ENDCHAR
STARTCHAR 00A6
ENCODING 166
SWIDTH 434 0
DWIDTH 10 0
BBX 0 0 0 0
BITMAP
ENDCHAR
STARTCHAR 00A7
ENCODING 167
SWIDTH 782 0
DWIDTH 18 0
BBX 16 12 1 0
BITMAP
0E1C
0C18
1C38
1E3C
376E
7366
63C7
E1C3
E1C3
F3E7
BF7E
1E3C
ENDCHAR
STARTCHAR 00A8
ENCODING 168
SWIDTH 434 0
DWIDTH 10 0
BBX 0 0 0 0
BITMAP
ENDCHAR
STARTCHAR 00A9
ENCODING 169
SWIDTH 695 0
DWIDTH 16 0
BBX 14 16 1 0
BITMAP
0FC0
1FE0
3870
6018
E39C
CFCC
CC6C
C06C
C06C
CC6C
CFCC
E39C
6018
3870
1FE0
0FC0
ENDCHAR
STARTCHAR 00AA
ENCODING 170
SWIDTH 434 0
DWIDTH 10 0
BBX 0 0 0 0
BITMAP
ENDCHAR
STARTCHAR 00AB
ENCODING 171
SWIDTH 434 0
DWIDTH 10 0
BBX 8 7 1 4
BITMAP
11
77
EE
88
EE
77
33
ENDCHAR
STARTCHAR 00AC
ENCODING 172
SWIDTH 434 0
DWIDTH 10 0
BBX 0 0 0 0
BITMAP
ENDCHAR
STARTCHAR 00AD
ENCODING 173
SWIDTH 434 0
DWIDTH 10 0
BBX 0 0 0 0
BITMAP
ENDCHAR
STARTCHAR 00AE
ENCODING 174
SWIDTH 434 0
DWIDTH 10 0
BBX 0 0 0 0
BITMAP
ENDCHAR
STARTCHAR 00AF
ENCODING 175
SWIDTH 434 0
DWIDTH 10 0
BBX 0 0 0 0
BITMAP
ENDCHAR
STARTCHAR 00B0
ENCODING 176
SWIDTH 260 0
DWIDTH 6 0
BBX 4 3 1 15
BITMAP
E0
90
E0
ENDCHAR
STARTCHAR 00B1
ENCODING 177
SWIDTH 434 0
DWIDTH 10 0
BBX 0 0 0 0
BITMAP
ENDCHAR
STARTCHAR 00B2
ENCODING 178
SWIDTH 434 0
DWIDTH 10 0
BBX 0 0 0 0
BITMAP
ENDCHAR
STARTCHAR 00B3
ENCODING 179
SWIDTH 434 0
DWIDTH 10 0
BBX 0 0 0 0
BITMAP
ENDCHAR
STARTCHAR 00B4
ENCODING 180
SWIDTH 434 0
DWIDTH 10 0
BBX 0 0 0 0
BITMAP
ENDCHAR
STARTCHAR 00B5
ENCODING 181
SWIDTH 434 0
DWIDTH 10 0
BBX 8 15 1 -3
BITMAP
C3
C3
C3
C3
C3
C3
C3
C3
C3
E7
FF
FF
C0
C0
C0
ENDCHAR
STARTCHAR 00B6
ENCODING 182
SWIDTH 434 0
DWIDTH 10 0
BBX 0 0 0 0
BITMAP
ENDCHAR
STARTCHAR 00B7
ENCODING 183
SWIDTH 434 0
DWIDTH 10 0
BBX 0 0 0 0
BITMAP
ENDCHAR
STARTCHAR 00B8
ENCODING 184
SWIDTH 434 0
DWIDTH 10 0
BBX 0 0 0 0
BITMAP
ENDCHAR
STARTCHAR 00B9
ENCODING 185
SWIDTH 434 0
DWIDTH 10 0
BBX 0 0 0 0
BITMAP
ENDCHAR
STARTCHAR 00BA
ENCODING 186
SWIDTH 434 0
DWIDTH 10 0
BBX 0 0 0 0
BITMAP
ENDCHAR
STARTCHAR 00BB
ENCODING 187
SWIDTH 434 0
DWIDTH 10 0
BBX 8 7 1 4
BITMAP
88
EE
77
11
33
EE
CC
ENDCHAR
STARTCHAR 00BC
ENCODING 188
SWIDTH 434 0
DWIDTH 10 0
BBX 0 0 0 0
BITMAP
ENDCHAR
STARTCHAR 00BD
ENCODING 189
SWIDTH 434 0
DWIDTH 10 0
BBX 0 0 0 0
BITMAP
ENDCHAR
STARTCHAR 00BE
ENCODING 190
SWIDTH 434 0
DWIDTH 10 0
BBX 0 0 0 0
BITMAP
ENDCHAR
STARTCHAR 00BF
ENCODING 191
SWIDTH 434 0
DWIDTH 10 0
BBX 0 0 0 0
BITMAP
ENDCHAR
STARTCHAR 00C0
ENCODING 192
SWIDTH 434 0
DWIDTH 10 0
BBX 8 19 1 0
BITMAP
18
08
0C
18
18
1C
3C
3C
3C
3C
36
36
66
66
7E
7F
63
C3
C3
ENDCHAR
STARTCHAR 00C1
ENCODING 193
SWIDTH 434 0
DWIDTH 10 0
BBX 8 19 1 0
BITMAP
0C
18
10
18
18
1C
3C
3C
3C
3C
36
36
66
66
7E
7F
63
C3
C3
ENDCHAR
STARTCHAR 00C2
ENCODING 194
SWIDTH 434 0
DWIDTH 10 0
BBX 8 19 1 0
BITMAP
1C
3C
66
18
18
1C
3C
3C
3C
3C
36
36
66
66
7E
7F
63
C3
C3
ENDCHAR
STARTCHAR 00C3
ENCODING 195
SWIDTH 434 0
DWIDTH 10 0
BBX 0 0 0 0
BITMAP
ENDCHAR
STARTCHAR 00C4
ENCODING 196
SWIDTH 434 0
DWIDTH 10 0
BBX 8 19 1 0
BITMAP
34
34
00
18
1C
1C
1C
3C
3C
3C
36
36
66
66
7E
7F
63
63
C3
ENDCHAR
STARTCHAR 00C5
ENCODING 197
SWIDTH 434 0
DWIDTH 10 0
BBX 0 0 0 0
BITMAP
ENDCHAR
STARTCHAR 00C6
ENCODING 198
SWIDTH 434 0
DWIDTH 10 0
BBX 14 16 -2 0
BITMAP
03FC
07FC
0780
0780
0D80
0D80
0D80
19F8
19F8
3980
3980
3F80
7F80
6180
61FC
E1FC
ENDCHAR
STARTCHAR 00C7
ENCODING 199
SWIDTH 434 0
DWIDTH 10 0
BBX 0 0 0 0
BITMAP
ENDCHAR
STARTCHAR 00C8
ENCODING 200
SWIDTH 434 0
DWIDTH 10 0
BBX 8 19 1 0
BITMAP
18
18
0C
FF
FF
C0
C0
C0
C0
C0
FC
FC
C0
C0
C0
C0
C0
FF
FF
ENDCHAR
STARTCHAR 00C9
ENCODING 201
SWIDTH 434 0
DWIDTH 10 0
BBX 8 19 1 0
BITMAP
0C
18
10
FF
FF
C0
C0
C0
C0
C0
FC
FC
C0
C0
C0
C0
C0
FF
FF
ENDCHAR
STARTCHAR 00CA
ENCODING 202
SWIDTH 434 0
DWIDTH 10 0
BBX 8 19 1 0
BITMAP
18
3C
66
FF
FF
C0
C0
C0
C0
C0
FC
FC
C0
C0
C0
C0
C0
FF
FF
ENDCHAR
STARTCHAR 00CB
ENCODING 203
SWIDTH 434 0
DWIDTH 10 0
BBX 8 19 1 0
BITMAP
34
34
00
FF
FF
C0
C0
C0
C0
C0
FC
FC
C0
C0
C0
C0
C0
FF
FF
ENDCHAR
STARTCHAR 00CC
ENCODING 204
SWIDTH 434 0
DWIDTH 10 0
BBX 3 19 4 0
BITMAP
C0
C0
60
C0
C0
C0
C0
C0
C0
C0
C0
C0
C0
C0
C0
C0
C0
C0
C0
ENDCHAR
STARTCHAR 00CD
ENCODING 205
SWIDTH 434 0
DWIDTH 10 0
BBX 3 19 4 0
BITMAP
60
C0
80
C0
C0
C0
C0
C0
C0
C0
C0
C0
C0
C0
C0
C0
C0
C0
C0
ENDCHAR
STARTCHAR 00CE
ENCODING 206
SWIDTH 434 0
DWIDTH 10 0
BBX 6 19 2 0
BITMAP
30
78
CC
30
30
30
30
30
30
30
30
30
30
30
30
30
30
30
30
ENDCHAR
STARTCHAR 00CF
ENCODING 207
SWIDTH 434 0
DWIDTH 10 0
BBX 4 19 3 0
BITMAP
F0
F0
00
60
60
60
60
60
60
60
60
60
60
60
60
60
60
60
60
ENDCHAR
STARTCHAR 00D0
ENCODING 208
SWIDTH 434 0
DWIDTH 10 0
BBX 0 0 0 0
BITMAP
ENDCHAR
STARTCHAR 00D1
ENCODING 209
SWIDTH 434 0
DWIDTH 10 0
BBX 0 0 0 0
BITMAP
ENDCHAR
STARTCHAR 00D2
ENCODING 210
SWIDTH 434 0
DWIDTH 10 0
BBX 8 19 1 0
BITMAP
18
18
0C
3C
7E
E7
C3
C3
C3
C3
C3
C3
C3
C3
C3
C3
E7
7E
3C
ENDCHAR
STARTCHAR 00D3
ENCODING 211
SWIDTH 434 0
DWIDTH 10 0
BBX 8 19 1 0
BITMAP
0C
18
10
3C
7E
E7
C3
C3
C3
C3
C3
C3
C3
C3
C3
C3
E7
7E
3C
ENDCHAR
STARTCHAR 00D4
ENCODING 212
SWIDTH 434 0
DWIDTH 10 0
BBX 8 19 1 0
BITMAP
18
3C
66
3C
7E
E7
C3
C3
C3
C3
C3
C3
C3
C3
C3
C3
E7
7E
3C
ENDCHAR
STARTCHAR 00D5
ENCODING 213
SWIDTH 434 0
DWIDTH 10 0
BBX 8 16 1 0
BITMAP
3C
7E
E7
C3
C3
C3
C3
C3
C3
C3
C3
C3
C3
E7
7E
3C
ENDCHAR
STARTCHAR 00D6
ENCODING 214
SWIDTH 434 0
DWIDTH 10 0
BBX 8 19 1 0
BITMAP
3C
3C
00
3C
7E
E7
C3
C3
C3
C3
C3
C3
C3
C3
C3
C3
E7
7E
3C
ENDCHAR
STARTCHAR 00D7
ENCODING 215
SWIDTH 434 0
DWIDTH 10 0
BBX 0 0 0 0
BITMAP
ENDCHAR
STARTCHAR 00D8
ENCODING 216
SWIDTH 434 0
DWIDTH 10 0
BBX 0 0 0 0
BITMAP
ENDCHAR
STARTCHAR 00D9
ENCODING 217
SWIDTH 434 0
DWIDTH 10 0
BBX 8 19 1 0
BITMAP
18
18
0C
C3
C3
C3
C3
C3
C3
C3
C3
C3
C3
C3
C3
C3
E7
7E
3C
ENDCHAR
STARTCHAR 00DA
ENCODING 218
SWIDTH 434 0
DWIDTH 10 0
BBX 8 19 1 0
BITMAP
0C
18
10
C3
C3
C3
C3
C3
C3
C3
C3
C3
C3
C3
C3
C3
E7
7E
3C
ENDCHAR
STARTCHAR 00DB
ENCODING 219
SWIDTH 434 0
DWIDTH 10 0
BBX 8 19 1 0
BITMAP
18
3C
66
C3
C3
C3
C3
C3
C3
C3
C3
C3
C3
C3
C3
C3
E7
7E
3C
ENDCHAR
STARTCHAR 00DC
ENCODING 220
SWIDTH 434 0
DWIDTH 10 0
BBX 8 19 1 0
BITMAP
3C
3C
00
C3
C3
C3
C3
C3
C3
C3
C3
C3
C3
C3
C3
C3
E7
7E
3C
ENDCHAR
STARTCHAR 00DD
ENCODING 221
SWIDTH 434 0
DWIDTH 10 0
BBX 0 0 0 0
BITMAP
ENDCHAR
STARTCHAR 00DE
ENCODING 222
SWIDTH 434 0
DWIDTH 10 0
BBX 0 0 0 0
BITMAP
ENDCHAR
STARTCHAR 00DF
ENCODING 223
SWIDTH 434 0
DWIDTH 10 0
BBX 8 16 1 0
BITMAP
38
7C
C6
C6
C6
DC
DE
C7
C3
C3
C3
C3
C3
C7
DE
DC
ENDCHAR
STARTCHAR 00E0
ENCODING 224
SWIDTH 478 0
DWIDTH 11 0
BBX 9 16 1 0
BITMAP
1800
1800
0C00
0000
1C00
3E00
6300
6300
0300
3F00
7F00
C300
C300
C300
7F80
3D80
ENDCHAR
STARTCHAR 00E1
ENCODING 225
SWIDTH 478 0
DWIDTH 11 0
BBX 9 16 1 0
BITMAP
0C00
1800
3000
0000
1C00
3E00
6300
6300
0300
3F00
7F00
C300
C300
C300
7F80
3D80
ENDCHAR
STARTCHAR 00E2
ENCODING 226
SWIDTH 478 0
DWIDTH 11 0
BBX 9 16 1 0
BITMAP
1800
3C00
6400
0000
1C00
3E00
6300
6300
0300
3F00
7F00
C300
C300
C300
7F80
3D80
ENDCHAR
STARTCHAR 00E3
ENCODING 227
SWIDTH 434 0
DWIDTH 10 0
BBX 0 0 0 0
BITMAP
ENDCHAR
STARTCHAR 00E4
ENCODING 228
SWIDTH 478 0
DWIDTH 11 0
BBX 9 16 1 0
BITMAP
3400
3400
0000
0000
1C00
3E00
6300
6300
0300
3F00
7F00
C300
C300
C300
7F80
3D80
ENDCHAR
STARTCHAR 00E5
ENCODING 229
SWIDTH 434 0
DWIDTH 10 0
BBX 0 0 0 0
BITMAP
ENDCHAR
STARTCHAR 00E6
ENCODING 230
SWIDTH 608 0
DWIDTH 14 0
BBX 12 12 1 0
BITMAP
39C0
7FE0
C630
C630
0630
7FF0
FFF0
C600
C630
CE30
FFE0
79C0
ENDCHAR
STARTCHAR 00E7
ENCODING 231
SWIDTH 434 0
DWIDTH 10 0
BBX 8 15 1 -3
BITMAP
3C
7E
E7
C3
C0
C0
C0
C0
C3
E7
7E
3C
18
78
78
ENDCHAR
STARTCHAR 00E8
ENCODING 232
SWIDTH 434 0
DWIDTH 10 0
BBX 8 16 1 0
BITMAP
30
18
0C
00
3C
7E
E7
C3
C3
FF
FF
C0
C0
E7
7E
3C
ENDCHAR
STARTCHAR 00E9
ENCODING 233
SWIDTH 434 0
DWIDTH 10 0
BBX 8 16 1 0
BITMAP
0C
18
30
00
3C
7E
E7
C3
C3
FF
FF
C0
C0
E7
7E
3C
ENDCHAR
STARTCHAR 00EA
ENCODING 234
SWIDTH 434 0
DWIDTH 10 0
BBX 8 16 1 0
BITMAP
18
3C
66
00
3C
7E
E7
C3
C3
FF
FF
C0
C0
E7
7E
3C
ENDCHAR
STARTCHAR 00EB
ENCODING 235
SWIDTH 434 0
DWIDTH 10 0
BBX 8 16 1 0
BITMAP
3C
3C
00
00
3C
7E
E7
C3
C3
FF
FF
C0
C0
E7
7E
3C
ENDCHAR
STARTCHAR 00EC
ENCODING 236
SWIDTH 260 0
DWIDTH 6 0
BBX 3 16 1 0
BITMAP
C0
C0
60
00
C0
C0
C0
C0
C0
C0
C0
C0
C0
C0
E0
60
ENDCHAR
STARTCHAR 00ED
ENCODING 237
SWIDTH 260 0
DWIDTH 6 0
BBX 3 16 1 0
BITMAP
60
40
C0
00
C0
C0
C0
C0
C0
C0
C0
C0
C0
C0
E0
60
ENDCHAR
STARTCHAR 00EE
ENCODING 238
SWIDTH 217 0
DWIDTH 5 0
BBX 6 16 -1 0
BITMAP
30
78
CC
00
30
30
30
30
30
30
30
30
30
30
38
18
ENDCHAR
STARTCHAR 00EF
ENCODING 239
SWIDTH 260 0
DWIDTH 6 0
BBX 4 16 1 0
BITMAP
D0
D0
00
00
60
60
60
60
60
60
60
60
60
60
70
30
ENDCHAR
STARTCHAR 00F0
ENCODING 240
SWIDTH 434 0
DWIDTH 10 0
BBX 0 0 0 0
BITMAP
ENDCHAR
STARTCHAR 00F1
ENCODING 241
SWIDTH 434 0
DWIDTH 10 0
BBX 0 0 0 0
BITMAP
ENDCHAR
STARTCHAR 00F2
ENCODING 242
SWIDTH 434 0
DWIDTH 10 0
BBX 8 19 1 0
BITMAP
30
18
0C
00
00
00
00
3C
7E
E7
C3
C3
C3
C3
C3
C3
E7
7E
3C
ENDCHAR
STARTCHAR 00F3
ENCODING 243
SWIDTH 434 0
DWIDTH 10 0
BBX 8 16 1 0
BITMAP
0C
18
30
00
3C
7E
E7
C3
C3
C3
C3
C3
C3
E7
7E
3C
ENDCHAR
STARTCHAR 00F4
ENCODING 244
SWIDTH 434 0
DWIDTH 10 0
BBX 8 16 1 0
BITMAP
18
3C
66
00
3C
7E
E7
C3
C3
C3
C3
C3
C3
E7
7E
3C
ENDCHAR
STARTCHAR 00F5
ENCODING 245
SWIDTH 434 0
DWIDTH 10 0
BBX 8 12 1 0
BITMAP
3C
7E
E7
C3
C3
C3
C3
C3
C3
E7
7E
3C
ENDCHAR
STARTCHAR 00F6
ENCODING 246
SWIDTH 434 0
DWIDTH 10 0
BBX 8 16 1 0
BITMAP
3C
3C
00
00
3C
7E
E7
C3
C3
C3
C3
C3
C3
E7
7E
3C
ENDCHAR
STARTCHAR 00F7
ENCODING 247
SWIDTH 434 0
DWIDTH 10 0
BBX 6 9 2 2
BITMAP
30
30
00
00
FC
FC
00
30
30
ENDCHAR
STARTCHAR 00F8
ENCODING 248
SWIDTH 434 0
DWIDTH 10 0
BBX 8 16 1 0
BITMAP
3F
7E
E7
C7
CF
CF
CF
DB
DB
F3
F3
F3
E3
E7
7E
FC
ENDCHAR
STARTCHAR 00F9
ENCODING 249
SWIDTH 434 0
DWIDTH 10 0
BBX 8 16 1 0
BITMAP
30
18
0C
00
C3
C3
C3
C3
C3
C3
C3
C3
C3
E7
7F
3F
ENDCHAR
STARTCHAR 00FA
ENCODING 250
SWIDTH 434 0
DWIDTH 10 0
BBX 8 16 1 0
BITMAP
0C
18
30
00
C3
C3
C3
C3
C3
C3
C3
C3
C3
E7
7F
3F
ENDCHAR
STARTCHAR 00FB
ENCODING 251
SWIDTH 434 0
DWIDTH 10 0
BBX 8 16 1 0
BITMAP
18
3C
66
00
C3
C3
C3
C3
C3
C3
C3
C3
C3
E7
7F
3F
ENDCHAR
STARTCHAR 00FC
ENCODING 252
SWIDTH 434 0
DWIDTH 10 0
BBX 8 16 1 0
BITMAP
3C
3C
00
00
C3
C3
C3
C3
C3
C3
C3
C3
C3
E7
7F
3F
ENDCHAR
STARTCHAR 00FD
ENCODING 253
SWIDTH 434 0
DWIDTH 10 0
BBX 0 0 0 0
BITMAP
ENDCHAR
STARTCHAR 00FE
ENCODING 254
SWIDTH 434 0
DWIDTH 10 0
BBX 0 0 0 0
BITMAP
ENDCHAR
STARTCHAR 00FF
ENCODING 255
SWIDTH 434 0
DWIDTH 10 0
BBX 0 0 0 0
BITMAP
ENDCHAR
STARTCHAR 0100
ENCODING 256
SWIDTH 434 0
DWIDTH 10 0
BBX 0 0 0 0
BITMAP
ENDCHAR
STARTCHAR 0101
ENCODING 257
SWIDTH 434 0
DWIDTH 10 0
BBX 0 0 0 0
BITMAP
ENDCHAR
STARTCHAR 0102
ENCODING 258
SWIDTH 434 0
DWIDTH 10 0
BBX 0 0 0 0
BITMAP
ENDCHAR
STARTCHAR 0103
ENCODING 259
SWIDTH 434 0
DWIDTH 10 0
BBX 0 0 0 0
BITMAP
ENDCHAR
STARTCHAR 0104
ENCODING 260
SWIDTH 434 0
DWIDTH 10 0
BBX 0 0 0 0
BITMAP
ENDCHAR
STARTCHAR 0105
ENCODING 261
SWIDTH 434 0
DWIDTH 10 0
BBX 0 0 0 0
BITMAP
ENDCHAR
STARTCHAR 0106
ENCODING 262
SWIDTH 434 0
DWIDTH 10 0
BBX 0 0 0 0
BITMAP
ENDCHAR
STARTCHAR 0107
ENCODING 263
SWIDTH 434 0
DWIDTH 10 0
BBX 0 0 0 0
BITMAP
ENDCHAR
STARTCHAR 0108
ENCODING 264
SWIDTH 434 0
DWIDTH 10 0
BBX 0 0 0 0
BITMAP
ENDCHAR
STARTCHAR 0109
ENCODING 265
SWIDTH 434 0
DWIDTH 10 0
BBX 0 0 0 0
BITMAP
ENDCHAR
STARTCHAR 010A
ENCODING 266
SWIDTH 434 0
DWIDTH 10 0
BBX 0 0 0 0
BITMAP
ENDCHAR
STARTCHAR 010B
ENCODING 267
SWIDTH 434 0
DWIDTH 10 0
BBX 0 0 0 0
BITMAP
ENDCHAR
STARTCHAR 010C
ENCODING 268
SWIDTH 434 0
DWIDTH 10 0
BBX 0 0 0 0
BITMAP
ENDCHAR
STARTCHAR 010D
ENCODING 269
SWIDTH 434 0
DWIDTH 10 0
BBX 0 0 0 0
BITMAP
ENDCHAR
STARTCHAR 010E
ENCODING 270
SWIDTH 434 0
DWIDTH 10 0
BBX 0 0 0 0
BITMAP
ENDCHAR
STARTCHAR 010F
ENCODING 271
SWIDTH 434 0
DWIDTH 10 0
BBX 0 0 0 0
BITMAP
ENDCHAR
STARTCHAR 0110
ENCODING 272
SWIDTH 434 0
DWIDTH 10 0
BBX 0 0 0 0
BITMAP
ENDCHAR
STARTCHAR 0111
ENCODING 273
SWIDTH 434 0
DWIDTH 10 0
BBX 0 0 0 0
BITMAP
ENDCHAR
STARTCHAR 0112
ENCODING 274
SWIDTH 434 0
DWIDTH 10 0
BBX 0 0 0 0
BITMAP
ENDCHAR
STARTCHAR 0113
ENCODING 275
SWIDTH 434 0
DWIDTH 10 0
BBX 0 0 0 0
BITMAP
ENDCHAR
STARTCHAR 0114
ENCODING 276
SWIDTH 434 0
DWIDTH 10 0
BBX 0 0 0 0
BITMAP
ENDCHAR
STARTCHAR 0115
ENCODING 277
SWIDTH 434 0
DWIDTH 10 0
BBX 0 0 0 0
BITMAP
ENDCHAR
STARTCHAR 0116
ENCODING 278
SWIDTH 434 0
DWIDTH 10 0
BBX 0 0 0 0
BITMAP
ENDCHAR
STARTCHAR 0117
ENCODING 279
SWIDTH 434 0
DWIDTH 10 0
BBX 0 0 0 0
BITMAP
ENDCHAR
STARTCHAR 0118
ENCODING 280
SWIDTH 434 0
DWIDTH 10 0
BBX 0 0 0 0
BITMAP
ENDCHAR
STARTCHAR 0119
ENCODING 281
SWIDTH 434 0
DWIDTH 10 0
BBX 0 0 0 0
BITMAP
ENDCHAR
STARTCHAR 011A
ENCODING 282
SWIDTH 434 0
DWIDTH 10 0
BBX 0 0 0 0
BITMAP
ENDCHAR
STARTCHAR 011B
ENCODING 283
SWIDTH 434 0
DWIDTH 10 0
BBX 0 0 0 0
BITMAP
ENDCHAR
STARTCHAR 011C
ENCODING 284
SWIDTH 434 0
DWIDTH 10 0
BBX 0 0 0 0
BITMAP
ENDCHAR
STARTCHAR 011D
ENCODING 285
SWIDTH 434 0
DWIDTH 10 0
BBX 0 0 0 0
BITMAP
ENDCHAR
STARTCHAR 011E
ENCODING 286
SWIDTH 434 0
DWIDTH 10 0
BBX 0 0 0 0
BITMAP
ENDCHAR
STARTCHAR 011F
ENCODING 287
SWIDTH 434 0
DWIDTH 10 0
BBX 0 0 0 0
BITMAP
ENDCHAR
STARTCHAR 0120
ENCODING 288
SWIDTH 434 0
DWIDTH 10 0
BBX 0 0 0 0
BITMAP
ENDCHAR
STARTCHAR 0121
ENCODING 289
SWIDTH 434 0
DWIDTH 10 0
BBX 0 0 0 0
BITMAP
ENDCHAR
STARTCHAR 0122
ENCODING 290
SWIDTH 434 0
DWIDTH 10 0
BBX 0 0 0 0
BITMAP
ENDCHAR
STARTCHAR 0123
ENCODING 291
SWIDTH 434 0
DWIDTH 10 0
BBX 0 0 0 0
BITMAP
ENDCHAR
STARTCHAR 0124
ENCODING 292
SWIDTH 434 0
DWIDTH 10 0
BBX 0 0 0 0
BITMAP
ENDCHAR
STARTCHAR 0125
ENCODING 293
SWIDTH 434 0
DWIDTH 10 0
BBX 0 0 0 0
BITMAP
ENDCHAR
STARTCHAR 0126
ENCODING 294
SWIDTH 434 0
DWIDTH 10 0
BBX 0 0 0 0
BITMAP
ENDCHAR
STARTCHAR 0127
ENCODING 295
SWIDTH 434 0
DWIDTH 10 0
BBX 0 0 0 0
BITMAP
ENDCHAR
STARTCHAR 0128
ENCODING 296
SWIDTH 434 0
DWIDTH 10 0
BBX 0 0 0 0
BITMAP
ENDCHAR
STARTCHAR 0129
ENCODING 297
SWIDTH 434 0
DWIDTH 10 0
BBX 0 0 0 0
BITMAP
ENDCHAR
STARTCHAR 012A
ENCODING 298
SWIDTH 434 0
DWIDTH 10 0
BBX 0 0 0 0
BITMAP
ENDCHAR
STARTCHAR 012B
ENCODING 299
SWIDTH 434 0
DWIDTH 10 0
BBX 0 0 0 0
BITMAP
ENDCHAR
STARTCHAR 012C
ENCODING 300
SWIDTH 434 0
DWIDTH 10 0
BBX 0 0 0 0
BITMAP
ENDCHAR
STARTCHAR 012D
ENCODING 301
SWIDTH 434 0
DWIDTH 10 0
BBX 0 0 0 0
BITMAP
ENDCHAR
STARTCHAR 012E
ENCODING 302
SWIDTH 434 0
DWIDTH 10 0
BBX 0 0 0 0
BITMAP
ENDCHAR
STARTCHAR 012F
ENCODING 303
SWIDTH 434 0
DWIDTH 10 0
BBX 0 0 0 0
BITMAP
ENDCHAR
STARTCHAR 0130
ENCODING 304
SWIDTH 434 0
DWIDTH 10 0
BBX 0 0 0 0
BITMAP
ENDCHAR
STARTCHAR 0131
ENCODING 305
SWIDTH 434 0
DWIDTH 10 0
BBX 0 0 0 0
BITMAP
ENDCHAR
STARTCHAR 0132
ENCODING 306
SWIDTH 434 0
DWIDTH 10 0
BBX 0 0 0 0
BITMAP
ENDCHAR
STARTCHAR 0133
ENCODING 307
SWIDTH 434 0
DWIDTH 10 0
BBX 0 0 0 0
BITMAP
ENDCHAR
STARTCHAR 0134
ENCODING 308
SWIDTH 434 0
DWIDTH 10 0
BBX 0 0 0 0
BITMAP
ENDCHAR
STARTCHAR 0135
ENCODING 309
SWIDTH 434 0
DWIDTH 10 0
BBX 0 0 0 0
BITMAP
ENDCHAR
STARTCHAR 0136
ENCODING 310
SWIDTH 434 0
DWIDTH 10 0
BBX 0 0 0 0
BITMAP
ENDCHAR
STARTCHAR 0137
ENCODING 311
SWIDTH 434 0
DWIDTH 10 0
BBX 0 0 0 0
BITMAP
ENDCHAR
STARTCHAR 0138
ENCODING 312
SWIDTH 434 0
DWIDTH 10 0
BBX 0 0 0 0
BITMAP
ENDCHAR
STARTCHAR 0139
ENCODING 313
SWIDTH 434 0
DWIDTH 10 0
BBX 0 0 0 0
BITMAP
ENDCHAR
STARTCHAR 013A
ENCODING 314
SWIDTH 434 0
DWIDTH 10 0
BBX 0 0 0 0
BITMAP
ENDCHAR
STARTCHAR 013B
ENCODING 315
SWIDTH 434 0
DWIDTH 10 0
BBX 0 0 0 0
BITMAP
ENDCHAR
STARTCHAR 013C
ENCODING 316
SWIDTH 434 0
DWIDTH 10 0
BBX 0 0 0 0
BITMAP
ENDCHAR
STARTCHAR 013D
ENCODING 317
SWIDTH 434 0
DWIDTH 10 0
BBX 0 0 0 0
BITMAP
ENDCHAR
STARTCHAR 013E
ENCODING 318
SWIDTH 434 0
DWIDTH 10 0
BBX 0 0 0 0
BITMAP
ENDCHAR
STARTCHAR 013F
ENCODING 319
SWIDTH 434 0
DWIDTH 10 0
BBX 0 0 0 0
BITMAP
ENDCHAR
STARTCHAR 0140
ENCODING 320
SWIDTH 434 0
DWIDTH 10 0
BBX 0 0 0 0
BITMAP
ENDCHAR
STARTCHAR 0141
ENCODING 321
SWIDTH 434 0
DWIDTH 10 0
BBX 0 0 0 0
BITMAP
ENDCHAR
STARTCHAR 0142
ENCODING 322
SWIDTH 434 0
DWIDTH 10 0
BBX 0 0 0 0
BITMAP
ENDCHAR
STARTCHAR 0143
ENCODING 323
SWIDTH 434 0
DWIDTH 10 0
BBX 0 0 0 0
BITMAP
ENDCHAR
STARTCHAR 0144
ENCODING 324
SWIDTH 434 0
DWIDTH 10 0
BBX 0 0 0 0
BITMAP
ENDCHAR
STARTCHAR 0145
ENCODING 325
SWIDTH 434 0
DWIDTH 10 0
BBX 0 0 0 0
BITMAP
ENDCHAR
STARTCHAR 0146
ENCODING 326
SWIDTH 434 0
DWIDTH 10 0
BBX 0 0 0 0
BITMAP
ENDCHAR
STARTCHAR 0147
ENCODING 327
SWIDTH 434 0
DWIDTH 10 0
BBX 0 0 0 0
BITMAP
ENDCHAR
STARTCHAR 0148
ENCODING 328
SWIDTH 434 0
DWIDTH 10 0
BBX 0 0 0 0
BITMAP
ENDCHAR
STARTCHAR 0149
ENCODING 329
SWIDTH 434 0
DWIDTH 10 0
BBX 0 0 0 0
BITMAP
ENDCHAR
STARTCHAR 014A
ENCODING 330
SWIDTH 434 0
DWIDTH 10 0
BBX 0 0 0 0
BITMAP
ENDCHAR
STARTCHAR 014B
ENCODING 331
SWIDTH 434 0
DWIDTH 10 0
BBX 0 0 0 0
BITMAP
ENDCHAR
STARTCHAR 014C
ENCODING 332
SWIDTH 434 0
DWIDTH 10 0
BBX 0 0 0 0
BITMAP
ENDCHAR
STARTCHAR 014D
ENCODING 333
SWIDTH 434 0
DWIDTH 10 0
BBX 0 0 0 0
BITMAP
ENDCHAR
STARTCHAR 014E
ENCODING 334
SWIDTH 434 0
DWIDTH 10 0
BBX 0 0 0 0
BITMAP
ENDCHAR
STARTCHAR 014F
ENCODING 335
SWIDTH 434 0
DWIDTH 10 0
BBX 0 0 0 0
BITMAP
ENDCHAR
STARTCHAR 0150
ENCODING 336
SWIDTH 434 0
DWIDTH 10 0
BBX 0 0 0 0
BITMAP
ENDCHAR
STARTCHAR 0151
ENCODING 337
SWIDTH 434 0
DWIDTH 10 0
BBX 0 0 0 0
BITMAP
ENDCHAR
STARTCHAR 0152
ENCODING 338
SWIDTH 434 0
DWIDTH 10 0
BBX 12 16 -1 0
BITMAP
3BF0
7FF0
C700
C700
C700
C700
C700
C7E0
C7E0
C700
C700
C700
C700
C700
7FF0
3BF0
ENDCHAR
STARTCHAR 0153
ENCODING 339
SWIDTH 608 0
DWIDTH 14 0
BBX 12 12 1 0
BITMAP
39C0
7FE0
C630
C630
C630
C7F0
C7F0
C600
C630
C630
7FE0
39C0
ENDCHAR
STARTCHAR 0154
ENCODING 340
SWIDTH 434 0
DWIDTH 10 0
BBX 0 0 0 0
BITMAP
ENDCHAR
STARTCHAR 0155
ENCODING 341
SWIDTH 434 0
DWIDTH 10 0
BBX 0 0 0 0
BITMAP
ENDCHAR
STARTCHAR 0156
ENCODING 342
SWIDTH 434 0
DWIDTH 10 0
BBX 0 0 0 0
BITMAP
ENDCHAR
STARTCHAR 0157
ENCODING 343
SWIDTH 434 0
DWIDTH 10 0
BBX 0 0 0 0
BITMAP
ENDCHAR
STARTCHAR 0158
ENCODING 344
SWIDTH 434 0
DWIDTH 10 0
BBX 0 0 0 0
BITMAP
ENDCHAR
STARTCHAR 0159
ENCODING 345
SWIDTH 434 0
DWIDTH 10 0
BBX 0 0 0 0
BITMAP
ENDCHAR
STARTCHAR 015A
ENCODING 346
SWIDTH 434 0
DWIDTH 10 0
BBX 0 0 0 0
BITMAP
ENDCHAR
STARTCHAR 015B
ENCODING 347
SWIDTH 434 0
DWIDTH 10 0
BBX 0 0 0 0
BITMAP
ENDCHAR
STARTCHAR 015C
ENCODING 348
SWIDTH 434 0
DWIDTH 10 0
BBX 0 0 0 0
BITMAP
ENDCHAR
STARTCHAR 015D
ENCODING 349
SWIDTH 434 0
DWIDTH 10 0
BBX 0 0 0 0
BITMAP
ENDCHAR
STARTCHAR 015E
ENCODING 350
SWIDTH 434 0
DWIDTH 10 0
BBX 0 0 0 0
BITMAP
ENDCHAR
STARTCHAR 015F
ENCODING 351
SWIDTH 434 0
DWIDTH 10 0
BBX 0 0 0 0
BITMAP
ENDCHAR
STARTCHAR 0160
ENCODING 352
SWIDTH 434 0
DWIDTH 10 0
BBX 0 0 0 0
BITMAP
ENDCHAR
STARTCHAR 0161
ENCODING 353
SWIDTH 434 0
DWIDTH 10 0
BBX 0 0 0 0
BITMAP
ENDCHAR
STARTCHAR 0162
ENCODING 354
SWIDTH 434 0
DWIDTH 10 0
BBX 0 0 0 0
BITMAP
ENDCHAR
STARTCHAR 0163
ENCODING 355
SWIDTH 434 0
DWIDTH 10 0
BBX 0 0 0 0
BITMAP
ENDCHAR
STARTCHAR 0164
ENCODING 356
SWIDTH 434 0
DWIDTH 10 0
BBX 0 0 0 0
BITMAP
ENDCHAR
STARTCHAR 0165
ENCODING 357
SWIDTH 434 0
DWIDTH 10 0
BBX 0 0 0 0
BITMAP
ENDCHAR
STARTCHAR 0166
ENCODING 358
SWIDTH 434 0
DWIDTH 10 0
BBX 0 0 0 0
BITMAP
ENDCHAR
STARTCHAR 0167
ENCODING 359
SWIDTH 434 0
DWIDTH 10 0
BBX 0 0 0 0
BITMAP
ENDCHAR
STARTCHAR 0168
ENCODING 360
SWIDTH 434 0
DWIDTH 10 0
BBX 0 0 0 0
BITMAP
ENDCHAR
STARTCHAR 0169
ENCODING 361
SWIDTH 434 0
DWIDTH 10 0
BBX 0 0 0 0
BITMAP
ENDCHAR
STARTCHAR 016A
ENCODING 362
SWIDTH 434 0
DWIDTH 10 0
BBX 0 0 0 0
BITMAP
ENDCHAR
STARTCHAR 016B
ENCODING 363
SWIDTH 434 0
DWIDTH 10 0
BBX 0 0 0 0
BITMAP
ENDCHAR
STARTCHAR 016C
ENCODING 364
SWIDTH 434 0
DWIDTH 10 0
BBX 0 0 0 0
BITMAP
ENDCHAR
STARTCHAR 016D
ENCODING 365
SWIDTH 434 0
DWIDTH 10 0
BBX 0 0 0 0
BITMAP
ENDCHAR
STARTCHAR 016E
ENCODING 366
SWIDTH 434 0
DWIDTH 10 0
BBX 0 0 0 0
BITMAP
ENDCHAR
STARTCHAR 016F
ENCODING 367
SWIDTH 434 0
DWIDTH 10 0
BBX 0 0 0 0
BITMAP
ENDCHAR
STARTCHAR 0170
ENCODING 368
SWIDTH 434 0
DWIDTH 10 0
BBX 0 0 0 0
BITMAP
ENDCHAR
STARTCHAR 0171
ENCODING 369
SWIDTH 434 0
DWIDTH 10 0
BBX 0 0 0 0
BITMAP
ENDCHAR
STARTCHAR 0172
ENCODING 370
SWIDTH 434 0
DWIDTH 10 0
BBX 0 0 0 0
BITMAP
ENDCHAR
STARTCHAR 0173
ENCODING 371
SWIDTH 434 0
DWIDTH 10 0
BBX 0 0 0 0
BITMAP
ENDCHAR
STARTCHAR 0174
ENCODING 372
SWIDTH 434 0
DWIDTH 10 0
BBX 0 0 0 0
BITMAP
ENDCHAR
STARTCHAR 0175
ENCODING 373
SWIDTH 434 0
DWIDTH 10 0
BBX 0 0 0 0
BITMAP
ENDCHAR
STARTCHAR 0176
ENCODING 374
SWIDTH 434 0
DWIDTH 10 0
BBX 0 0 0 0
BITMAP
ENDCHAR
STARTCHAR 0177
ENCODING 375
SWIDTH 434 0
DWIDTH 10 0
BBX 0 0 0 0
BITMAP
ENDCHAR
STARTCHAR 0178
ENCODING 376
SWIDTH 434 0
DWIDTH 10 0
BBX 0 0 0 0
BITMAP
ENDCHAR
STARTCHAR 0179
ENCODING 377
SWIDTH 434 0
DWIDTH 10 0
BBX 0 0 0 0
BITMAP
ENDCHAR
STARTCHAR 017A
ENCODING 378
SWIDTH 434 0
DWIDTH 10 0
BBX 0 0 0 0
BITMAP
ENDCHAR
STARTCHAR 017B
ENCODING 379
SWIDTH 434 0
DWIDTH 10 0
BBX 0 0 0 0
BITMAP
ENDCHAR
STARTCHAR 017C
ENCODING 380
SWIDTH 434 0
DWIDTH 10 0
BBX 0 0 0 0
BITMAP
ENDCHAR
STARTCHAR 017D
ENCODING 381
SWIDTH 434 0
DWIDTH 10 0
BBX 0 0 0 0
BITMAP
ENDCHAR
STARTCHAR 017E
ENCODING 382
SWIDTH 434 0
DWIDTH 10 0
BBX 0 0 0 0
BITMAP
ENDCHAR
STARTCHAR 017F
ENCODING 383
SWIDTH 434 0
DWIDTH 10 0
BBX 0 0 0 0
BITMAP
ENDCHAR
STARTCHAR 0180
ENCODING 384
SWIDTH 434 0
DWIDTH 10 0
BBX 0 0 0 0
BITMAP
ENDCHAR
STARTCHAR 0181
ENCODING 385
SWIDTH 434 0
DWIDTH 10 0
BBX 0 0 0 0
BITMAP
ENDCHAR
STARTCHAR 0182
ENCODING 386
SWIDTH 434 0
DWIDTH 10 0
BBX 0 0 0 0
BITMAP
ENDCHAR
STARTCHAR 0183
ENCODING 387
SWIDTH 434 0
DWIDTH 10 0
BBX 0 0 0 0
BITMAP
ENDCHAR
STARTCHAR 0184
ENCODING 388
SWIDTH 434 0
DWIDTH 10 0
BBX 0 0 0 0
BITMAP
ENDCHAR
STARTCHAR 0185
ENCODING 389
SWIDTH 434 0
DWIDTH 10 0
BBX 0 0 0 0
BITMAP
ENDCHAR
STARTCHAR 0186
ENCODING 390
SWIDTH 434 0
DWIDTH 10 0
BBX 0 0 0 0
BITMAP
ENDCHAR
STARTCHAR 0187
ENCODING 391
SWIDTH 434 0
DWIDTH 10 0
BBX 0 0 0 0
BITMAP
ENDCHAR
STARTCHAR 0188
ENCODING 392
SWIDTH 434 0
DWIDTH 10 0
BBX 0 0 0 0
BITMAP
ENDCHAR
STARTCHAR 0189
ENCODING 393
SWIDTH 434 0
DWIDTH 10 0
BBX 0 0 0 0
BITMAP
ENDCHAR
STARTCHAR 018A
ENCODING 394
SWIDTH 434 0
DWIDTH 10 0
BBX 0 0 0 0
BITMAP
ENDCHAR
STARTCHAR 018B
ENCODING 395
SWIDTH 434 0
DWIDTH 10 0
BBX 0 0 0 0
BITMAP
ENDCHAR
STARTCHAR 018C
ENCODING 396
SWIDTH 434 0
DWIDTH 10 0
BBX 0 0 0 0
BITMAP
ENDCHAR
STARTCHAR 018D
ENCODING 397
SWIDTH 434 0
DWIDTH 10 0
BBX 0 0 0 0
BITMAP
ENDCHAR
STARTCHAR 018E
ENCODING 398
SWIDTH 434 0
DWIDTH 10 0
BBX 0 0 0 0
BITMAP
ENDCHAR
STARTCHAR 018F
ENCODING 399
SWIDTH 434 0
DWIDTH 10 0
BBX 0 0 0 0
BITMAP
ENDCHAR
STARTCHAR 0190
ENCODING 400
SWIDTH 434 0
DWIDTH 10 0
BBX 0 0 0 0
BITMAP
ENDCHAR
STARTCHAR 0191
ENCODING 401
SWIDTH 434 0
DWIDTH 10 0
BBX 0 0 0 0
BITMAP
ENDCHAR
STARTCHAR 0192
ENCODING 402
SWIDTH 434 0
DWIDTH 10 0
BBX 0 0 0 0
BITMAP
ENDCHAR
STARTCHAR 0193
ENCODING 403
SWIDTH 434 0
DWIDTH 10 0
BBX 0 0 0 0
BITMAP
ENDCHAR
STARTCHAR 0194
ENCODING 404
SWIDTH 434 0
DWIDTH 10 0
BBX 0 0 0 0
BITMAP
ENDCHAR
STARTCHAR 0195
ENCODING 405
SWIDTH 434 0
DWIDTH 10 0
BBX 0 0 0 0
BITMAP
ENDCHAR
STARTCHAR 0196
ENCODING 406
SWIDTH 434 0
DWIDTH 10 0
BBX 0 0 0 0
BITMAP
ENDCHAR
STARTCHAR 0197
ENCODING 407
SWIDTH 434 0
DWIDTH 10 0
BBX 0 0 0 0
BITMAP
ENDCHAR
STARTCHAR 0198
ENCODING 408
SWIDTH 434 0
DWIDTH 10 0
BBX 0 0 0 0
BITMAP
ENDCHAR
STARTCHAR 0199
ENCODING 409
SWIDTH 434 0
DWIDTH 10 0
BBX 0 0 0 0
BITMAP
ENDCHAR
STARTCHAR 019A
ENCODING 410
SWIDTH 434 0
DWIDTH 10 0
BBX 0 0 0 0
BITMAP
ENDCHAR
STARTCHAR 019B
ENCODING 411
SWIDTH 434 0
DWIDTH 10 0
BBX 0 0 0 0
BITMAP
ENDCHAR
STARTCHAR 019C
ENCODING 412
SWIDTH 434 0
DWIDTH 10 0
BBX 0 0 0 0
BITMAP
ENDCHAR
STARTCHAR 019D
ENCODING 413
SWIDTH 434 0
DWIDTH 10 0
BBX 0 0 0 0
BITMAP
ENDCHAR
STARTCHAR 019E
ENCODING 414
SWIDTH 434 0
DWIDTH 10 0
BBX 0 0 0 0
BITMAP
ENDCHAR
STARTCHAR 019F
ENCODING 415
SWIDTH 434 0
DWIDTH 10 0
BBX 0 0 0 0
BITMAP
ENDCHAR
STARTCHAR 01A0
ENCODING 416
SWIDTH 434 0
DWIDTH 10 0
BBX 0 0 0 0
BITMAP
ENDCHAR
STARTCHAR 01A1
ENCODING 417
SWIDTH 434 0
DWIDTH 10 0
BBX 0 0 0 0
BITMAP
ENDCHAR
STARTCHAR 01A2
ENCODING 418
SWIDTH 434 0
DWIDTH 10 0
BBX 0 0 0 0
BITMAP
ENDCHAR
STARTCHAR 01A3
ENCODING 419
SWIDTH 434 0
DWIDTH 10 0
BBX 0 0 0 0
BITMAP
ENDCHAR
STARTCHAR 01A4
ENCODING 420
SWIDTH 434 0
DWIDTH 10 0
BBX 0 0 0 0
BITMAP
ENDCHAR
STARTCHAR 01A5
ENCODING 421
SWIDTH 434 0
DWIDTH 10 0
BBX 0 0 0 0
BITMAP
ENDCHAR
STARTCHAR 01A6
ENCODING 422
SWIDTH 434 0
DWIDTH 10 0
BBX 0 0 0 0
BITMAP
ENDCHAR
STARTCHAR 01A7
ENCODING 423
SWIDTH 434 0
DWIDTH 10 0
BBX 0 0 0 0
BITMAP
ENDCHAR
STARTCHAR 01A8
ENCODING 424
SWIDTH 434 0
DWIDTH 10 0
BBX 0 0 0 0
BITMAP
ENDCHAR
STARTCHAR 01A9
ENCODING 425
SWIDTH 434 0
DWIDTH 10 0
BBX 0 0 0 0
BITMAP
ENDCHAR
STARTCHAR 01AA
ENCODING 426
SWIDTH 434 0
DWIDTH 10 0
BBX 0 0 0 0
BITMAP
ENDCHAR
STARTCHAR 01AB
ENCODING 427
SWIDTH 434 0
DWIDTH 10 0
BBX 0 0 0 0
BITMAP
ENDCHAR
STARTCHAR 01AC
ENCODING 428
SWIDTH 434 0
DWIDTH 10 0
BBX 0 0 0 0
BITMAP
ENDCHAR
STARTCHAR 01AD
ENCODING 429
SWIDTH 434 0
DWIDTH 10 0
BBX 0 0 0 0
BITMAP
ENDCHAR
STARTCHAR 01AE
ENCODING 430
SWIDTH 434 0
DWIDTH 10 0
BBX 0 0 0 0
BITMAP
ENDCHAR
STARTCHAR 01AF
ENCODING 431
SWIDTH 434 0
DWIDTH 10 0
BBX 0 0 0 0
BITMAP
ENDCHAR
STARTCHAR 01B0
ENCODING 432
SWIDTH 434 0
DWIDTH 10 0
BBX 0 0 0 0
BITMAP
ENDCHAR
STARTCHAR 01B1
ENCODING 433
SWIDTH 434 0
DWIDTH 10 0
BBX 0 0 0 0
BITMAP
ENDCHAR
STARTCHAR 01B2
ENCODING 434
SWIDTH 434 0
DWIDTH 10 0
BBX 0 0 0 0
BITMAP
ENDCHAR
STARTCHAR 01B3
ENCODING 435
SWIDTH 434 0
DWIDTH 10 0
BBX 0 0 0 0
BITMAP
ENDCHAR
STARTCHAR 01B4
ENCODING 436
SWIDTH 434 0
DWIDTH 10 0
BBX 0 0 0 0
BITMAP
ENDCHAR
STARTCHAR 01B5
ENCODING 437
SWIDTH 434 0
DWIDTH 10 0
BBX 0 0 0 0
BITMAP
ENDCHAR
STARTCHAR 01B6
ENCODING 438
SWIDTH 434 0
DWIDTH 10 0
BBX 0 0 0 0
BITMAP
ENDCHAR
STARTCHAR 01B7
ENCODING 439
SWIDTH 434 0
DWIDTH 10 0
BBX 0 0 0 0
BITMAP
ENDCHAR
STARTCHAR 01B8
ENCODING 440
SWIDTH 434 0
DWIDTH 10 0
BBX 0 0 0 0
BITMAP
ENDCHAR
STARTCHAR 01B9
ENCODING 441
SWIDTH 434 0
DWIDTH 10 0
BBX 0 0 0 0
BITMAP
ENDCHAR
STARTCHAR 01BA
ENCODING 442
SWIDTH 434 0
DWIDTH 10 0
BBX 0 0 0 0
BITMAP
ENDCHAR
STARTCHAR 01BB
ENCODING 443
SWIDTH 434 0
DWIDTH 10 0
BBX 0 0 0 0
BITMAP
ENDCHAR
STARTCHAR 01BC
ENCODING 444
SWIDTH 434 0
DWIDTH 10 0
BBX 0 0 0 0
BITMAP
ENDCHAR
STARTCHAR 01BD
ENCODING 445
SWIDTH 434 0
DWIDTH 10 0
BBX 0 0 0 0
BITMAP
ENDCHAR
STARTCHAR 01BE
ENCODING 446
SWIDTH 434 0
DWIDTH 10 0
BBX 0 0 0 0
BITMAP
ENDCHAR
STARTCHAR 01BF
ENCODING 447
SWIDTH 434 0
DWIDTH 10 0
BBX 0 0 0 0
BITMAP
ENDCHAR
STARTCHAR 01C0
ENCODING 448
SWIDTH 434 0
DWIDTH 10 0
BBX 0 0 0 0
BITMAP
ENDCHAR
STARTCHAR 01C1
ENCODING 449
SWIDTH 434 0
DWIDTH 10 0
BBX 0 0 0 0
BITMAP
ENDCHAR
STARTCHAR 01C2
ENCODING 450
SWIDTH 434 0
DWIDTH 10 0
BBX 0 0 0 0
BITMAP
ENDCHAR
STARTCHAR 01C3
ENCODING 451
SWIDTH 434 0
DWIDTH 10 0
BBX 0 0 0 0
BITMAP
ENDCHAR
STARTCHAR 01C4
ENCODING 452
SWIDTH 434 0
DWIDTH 10 0
BBX 0 0 0 0
BITMAP
ENDCHAR
STARTCHAR 01C5
ENCODING 453
SWIDTH 434 0
DWIDTH 10 0
BBX 0 0 0 0
BITMAP
ENDCHAR
STARTCHAR 01C6
ENCODING 454
SWIDTH 434 0
DWIDTH 10 0
BBX 0 0 0 0
BITMAP
ENDCHAR
STARTCHAR 01C7
ENCODING 455
SWIDTH 434 0
DWIDTH 10 0
BBX 0 0 0 0
BITMAP
ENDCHAR
STARTCHAR 01C8
ENCODING 456
SWIDTH 434 0
DWIDTH 10 0
BBX 0 0 0 0
BITMAP
ENDCHAR
STARTCHAR 01C9
ENCODING 457
SWIDTH 434 0
DWIDTH 10 0
BBX 0 0 0 0
BITMAP
ENDCHAR
STARTCHAR 01CA
ENCODING 458
SWIDTH 434 0
DWIDTH 10 0
BBX 0 0 0 0
BITMAP
ENDCHAR
STARTCHAR 01CB
ENCODING 459
SWIDTH 434 0
DWIDTH 10 0
BBX 0 0 0 0
BITMAP
ENDCHAR
STARTCHAR 01CC
ENCODING 460
SWIDTH 434 0
DWIDTH 10 0
BBX 0 0 0 0
BITMAP
ENDCHAR
STARTCHAR 01CD
ENCODING 461
SWIDTH 434 0
DWIDTH 10 0
BBX 0 0 0 0
BITMAP
ENDCHAR
STARTCHAR 01CE
ENCODING 462
SWIDTH 434 0
DWIDTH 10 0
BBX 0 0 0 0
BITMAP
ENDCHAR
STARTCHAR 01CF
ENCODING 463
SWIDTH 434 0
DWIDTH 10 0
BBX 0 0 0 0
BITMAP
ENDCHAR
STARTCHAR 01D0
ENCODING 464
SWIDTH 434 0
DWIDTH 10 0
BBX 0 0 0 0
BITMAP
ENDCHAR
STARTCHAR 01D1
ENCODING 465
SWIDTH 434 0
DWIDTH 10 0
BBX 0 0 0 0
BITMAP
ENDCHAR
STARTCHAR 01D2
ENCODING 466
SWIDTH 434 0
DWIDTH 10 0
BBX 0 0 0 0
BITMAP
ENDCHAR
STARTCHAR 01D3
ENCODING 467
SWIDTH 434 0
DWIDTH 10 0
BBX 0 0 0 0
BITMAP
ENDCHAR
STARTCHAR 01D4
ENCODING 468
SWIDTH 434 0
DWIDTH 10 0
BBX 0 0 0 0
BITMAP
ENDCHAR
STARTCHAR 01D5
ENCODING 469
SWIDTH 434 0
DWIDTH 10 0
BBX 0 0 0 0
BITMAP
ENDCHAR
STARTCHAR 01D6
ENCODING 470
SWIDTH 434 0
DWIDTH 10 0
BBX 0 0 0 0
BITMAP
ENDCHAR
STARTCHAR 01D7
ENCODING 471
SWIDTH 434 0
DWIDTH 10 0
BBX 0 0 0 0
BITMAP
ENDCHAR
STARTCHAR 01D8
ENCODING 472
SWIDTH 434 0
DWIDTH 10 0
BBX 0 0 0 0
BITMAP
ENDCHAR
STARTCHAR 01D9
ENCODING 473
SWIDTH 434 0
DWIDTH 10 0
BBX 0 0 0 0
BITMAP
ENDCHAR
STARTCHAR 01DA
ENCODING 474
SWIDTH 434 0
DWIDTH 10 0
BBX 0 0 0 0
BITMAP
ENDCHAR
STARTCHAR 01DB
ENCODING 475
SWIDTH 434 0
DWIDTH 10 0
BBX 0 0 0 0
BITMAP
ENDCHAR
STARTCHAR 01DC
ENCODING 476
SWIDTH 434 0
DWIDTH 10 0
BBX 0 0 0 0
BITMAP
ENDCHAR
STARTCHAR 01DD
ENCODING 477
SWIDTH 434 0
DWIDTH 10 0
BBX 0 0 0 0
BITMAP
ENDCHAR
STARTCHAR 01DE
ENCODING 478
SWIDTH 434 0
DWIDTH 10 0
BBX 0 0 0 0
BITMAP
ENDCHAR
STARTCHAR 01DF
ENCODING 479
SWIDTH 434 0
DWIDTH 10 0
BBX 0 0 0 0
BITMAP
ENDCHAR
STARTCHAR 01E0
ENCODING 480
SWIDTH 434 0
DWIDTH 10 0
BBX 0 0 0 0
BITMAP
ENDCHAR
STARTCHAR 01E1
ENCODING 481
SWIDTH 434 0
DWIDTH 10 0
BBX 0 0 0 0
BITMAP
ENDCHAR
STARTCHAR 01E2
ENCODING 482
SWIDTH 434 0
DWIDTH 10 0
BBX 0 0 0 0
BITMAP
ENDCHAR
STARTCHAR 01E3
ENCODING 483
SWIDTH 434 0
DWIDTH 10 0
BBX 0 0 0 0
BITMAP
ENDCHAR
STARTCHAR 01E4
ENCODING 484
SWIDTH 434 0
DWIDTH 10 0
BBX 0 0 0 0
BITMAP
ENDCHAR
STARTCHAR 01E5
ENCODING 485
SWIDTH 434 0
DWIDTH 10 0
BBX 0 0 0 0
BITMAP
ENDCHAR
STARTCHAR 01E6
ENCODING 486
SWIDTH 434 0
DWIDTH 10 0
BBX 0 0 0 0
BITMAP
ENDCHAR
STARTCHAR 01E7
ENCODING 487
SWIDTH 434 0
DWIDTH 10 0
BBX 0 0 0 0
BITMAP
ENDCHAR
STARTCHAR 01E8
ENCODING 488
SWIDTH 434 0
DWIDTH 10 0
BBX 0 0 0 0
BITMAP
ENDCHAR
STARTCHAR 01E9
ENCODING 489
SWIDTH 434 0
DWIDTH 10 0
BBX 0 0 0 0
BITMAP
ENDCHAR
STARTCHAR 01EA
ENCODING 490
SWIDTH 434 0
DWIDTH 10 0
BBX 0 0 0 0
BITMAP
ENDCHAR
STARTCHAR 01EB
ENCODING 491
SWIDTH 434 0
DWIDTH 10 0
BBX 0 0 0 0
BITMAP
ENDCHAR
STARTCHAR 01EC
ENCODING 492
SWIDTH 434 0
DWIDTH 10 0
BBX 0 0 0 0
BITMAP
ENDCHAR
STARTCHAR 01ED
ENCODING 493
SWIDTH 434 0
DWIDTH 10 0
BBX 0 0 0 0
BITMAP
ENDCHAR
STARTCHAR 01EE
ENCODING 494
SWIDTH 434 0
DWIDTH 10 0
BBX 0 0 0 0
BITMAP
ENDCHAR
STARTCHAR 01EF
ENCODING 495
SWIDTH 434 0
DWIDTH 10 0
BBX 0 0 0 0
BITMAP
ENDCHAR
STARTCHAR 01F0
ENCODING 496
SWIDTH 434 0
DWIDTH 10 0
BBX 0 0 0 0
BITMAP
ENDCHAR
STARTCHAR 01F1
ENCODING 497
SWIDTH 434 0
DWIDTH 10 0
BBX 0 0 0 0
BITMAP
ENDCHAR
STARTCHAR 01F2
ENCODING 498
SWIDTH 434 0
DWIDTH 10 0
BBX 0 0 0 0
BITMAP
ENDCHAR
STARTCHAR 01F3
ENCODING 499
SWIDTH 434 0
DWIDTH 10 0
BBX 0 0 0 0
BITMAP
ENDCHAR
STARTCHAR 01F4
ENCODING 500
SWIDTH 434 0
DWIDTH 10 0
BBX 0 0 0 0
BITMAP
ENDCHAR
STARTCHAR 01F5
ENCODING 501
SWIDTH 434 0
DWIDTH 10 0
BBX 0 0 0 0
BITMAP
ENDCHAR
STARTCHAR 01F6
ENCODING 502
SWIDTH 434 0
DWIDTH 10 0
BBX 0 0 0 0
BITMAP
ENDCHAR
STARTCHAR 01F7
ENCODING 503
SWIDTH 434 0
DWIDTH 10 0
BBX 0 0 0 0
BITMAP
ENDCHAR
STARTCHAR 01F8
ENCODING 504
SWIDTH 434 0
DWIDTH 10 0
BBX 0 0 0 0
BITMAP
ENDCHAR
STARTCHAR 01F9
ENCODING 505
SWIDTH 434 0
DWIDTH 10 0
BBX 0 0 0 0
BITMAP
ENDCHAR
STARTCHAR 01FA
ENCODING 506
SWIDTH 434 0
DWIDTH 10 0
BBX 0 0 0 0
BITMAP
ENDCHAR
STARTCHAR 01FB
ENCODING 507
SWIDTH 434 0
DWIDTH 10 0
BBX 0 0 0 0
BITMAP
ENDCHAR
STARTCHAR 01FC
ENCODING 508
SWIDTH 434 0
DWIDTH 10 0
BBX 0 0 0 0
BITMAP
ENDCHAR
STARTCHAR 01FD
ENCODING 509
SWIDTH 434 0
DWIDTH 10 0
BBX 0 0 0 0
BITMAP
ENDCHAR
STARTCHAR 01FE
ENCODING 510
SWIDTH 434 0
DWIDTH 10 0
BBX 0 0 0 0
BITMAP
ENDCHAR
STARTCHAR 01FF
ENCODING 511
SWIDTH 434 0
DWIDTH 10 0
BBX 0 0 0 0
BITMAP
ENDCHAR
STARTCHAR 0200
ENCODING 512
SWIDTH 434 0
DWIDTH 10 0
BBX 0 0 0 0
BITMAP
ENDCHAR
STARTCHAR 0201
ENCODING 513
SWIDTH 434 0
DWIDTH 10 0
BBX 0 0 0 0
BITMAP
ENDCHAR
STARTCHAR 0202
ENCODING 514
SWIDTH 434 0
DWIDTH 10 0
BBX 0 0 0 0
BITMAP
ENDCHAR
STARTCHAR 0203
ENCODING 515
SWIDTH 434 0
DWIDTH 10 0
BBX 0 0 0 0
BITMAP
ENDCHAR
STARTCHAR 0204
ENCODING 516
SWIDTH 434 0
DWIDTH 10 0
BBX 0 0 0 0
BITMAP
ENDCHAR
STARTCHAR 0205
ENCODING 517
SWIDTH 434 0
DWIDTH 10 0
BBX 0 0 0 0
BITMAP
ENDCHAR
STARTCHAR 0206
ENCODING 518
SWIDTH 434 0
DWIDTH 10 0
BBX 0 0 0 0
BITMAP
ENDCHAR
STARTCHAR 0207
ENCODING 519
SWIDTH 434 0
DWIDTH 10 0
BBX 0 0 0 0
BITMAP
ENDCHAR
STARTCHAR 0208
ENCODING 520
SWIDTH 434 0
DWIDTH 10 0
BBX 0 0 0 0
BITMAP
ENDCHAR
STARTCHAR 0209
ENCODING 521
SWIDTH 434 0
DWIDTH 10 0
BBX 0 0 0 0
BITMAP
ENDCHAR
STARTCHAR 020A
ENCODING 522
SWIDTH 434 0
DWIDTH 10 0
BBX 0 0 0 0
BITMAP
ENDCHAR
STARTCHAR 020B
ENCODING 523
SWIDTH 434 0
DWIDTH 10 0
BBX 0 0 0 0
BITMAP
ENDCHAR
STARTCHAR 020C
ENCODING 524
SWIDTH 434 0
DWIDTH 10 0
BBX 0 0 0 0
BITMAP
ENDCHAR
STARTCHAR 020D
ENCODING 525
SWIDTH 434 0
DWIDTH 10 0
BBX 0 0 0 0
BITMAP
ENDCHAR
STARTCHAR 020E
ENCODING 526
SWIDTH 434 0
DWIDTH 10 0
BBX 0 0 0 0
BITMAP
ENDCHAR
STARTCHAR 020F
ENCODING 527
SWIDTH 434 0
DWIDTH 10 0
BBX 0 0 0 0
BITMAP
ENDCHAR
STARTCHAR 0210
ENCODING 528
SWIDTH 434 0
DWIDTH 10 0
BBX 0 0 0 0
BITMAP
ENDCHAR
STARTCHAR 0211
ENCODING 529
SWIDTH 434 0
DWIDTH 10 0
BBX 0 0 0 0
BITMAP
ENDCHAR
STARTCHAR 0212
ENCODING 530
SWIDTH 434 0
DWIDTH 10 0
BBX 0 0 0 0
BITMAP
ENDCHAR
STARTCHAR 0213
ENCODING 531
SWIDTH 434 0
DWIDTH 10 0
BBX 0 0 0 0
BITMAP
ENDCHAR
STARTCHAR 0214
ENCODING 532
SWIDTH 434 0
DWIDTH 10 0
BBX 0 0 0 0
BITMAP
ENDCHAR
STARTCHAR 0215
ENCODING 533
SWIDTH 434 0
DWIDTH 10 0
BBX 0 0 0 0
BITMAP
ENDCHAR
STARTCHAR 0216
ENCODING 534
SWIDTH 434 0
DWIDTH 10 0
BBX 0 0 0 0
BITMAP
ENDCHAR
STARTCHAR 0217
ENCODING 535
SWIDTH 434 0
DWIDTH 10 0
BBX 0 0 0 0
BITMAP
ENDCHAR
STARTCHAR 0218
ENCODING 536
SWIDTH 434 0
DWIDTH 10 0
BBX 0 0 0 0
BITMAP
ENDCHAR
STARTCHAR 0219
ENCODING 537
SWIDTH 434 0
DWIDTH 10 0
BBX 0 0 0 0
BITMAP
ENDCHAR
STARTCHAR 021A
ENCODING 538
SWIDTH 434 0
DWIDTH 10 0
BBX 0 0 0 0
BITMAP
ENDCHAR
STARTCHAR 021B
ENCODING 539
SWIDTH 434 0
DWIDTH 10 0
BBX 0 0 0 0
BITMAP
ENDCHAR
STARTCHAR 021C
ENCODING 540
SWIDTH 434 0
DWIDTH 10 0
BBX 0 0 0 0
BITMAP
ENDCHAR
STARTCHAR 021D
ENCODING 541
SWIDTH 434 0
DWIDTH 10 0
BBX 0 0 0 0
BITMAP
ENDCHAR
STARTCHAR 021E
ENCODING 542
SWIDTH 434 0
DWIDTH 10 0
BBX 0 0 0 0
BITMAP
ENDCHAR
STARTCHAR 021F
ENCODING 543
SWIDTH 434 0
DWIDTH 10 0
BBX 0 0 0 0
BITMAP
ENDCHAR
STARTCHAR 20AC
ENCODING 8364
SWIDTH 521 0
DWIDTH 12 0
BBX 10 16 1 0
BITMAP
0F00
1F80
39C0
30C0
3000
3000
FF80
FF00
3000
FF00
FE00
3000
30C0
39C0
1F80
0F00
ENDCHAR
STARTCHAR 2190
ENCODING 8592
SWIDTH 739 0
DWIDTH 17 0
BBX 15 11 1 0
BITMAP
0400
0E00
1C00
3800
7000
FFFE
7FFE
3000
1800
0C00
0600
ENDCHAR
STARTCHAR 2191
ENCODING 8593
SWIDTH 608 0
DWIDTH 14 0
BBX 12 14 1 -1
BITMAP
0600
0F00
1F80
3FC0
76E0
E670
4620
0600
0600
0600
0600
0600
0600
0600
ENDCHAR
STARTCHAR 2192
ENCODING 8594
SWIDTH 739 0
DWIDTH 17 0
BBX 14 12 1 0
BITMAP
0080
01C0
00E0
0070
0038
FFFC
FFFC
0038
0070
00E0
01C0
0080
ENDCHAR
STARTCHAR 2193
ENCODING 8595
SWIDTH 608 0
DWIDTH 14 0
BBX 12 14 1 -1
BITMAP
0600
0600
0600
0600
0600
0600
0600
4620
E670
76E0
3FC0
1F80
0F00
0600
ENDCHAR
STARTCHAR 2196
ENCODING 8598
SWIDTH 565 0
DWIDTH 13 0
BBX 11 11 1 0
BITMAP
FF00
FF00
F000
F800
DC00
CE00
C700
C380
01C0
00E0
0040
ENDCHAR
STARTCHAR 2197
ENCODING 8599
SWIDTH 565 0
DWIDTH 13 0
BBX 11 11 1 0
BITMAP
1FE0
1FE0
01E0
03E0
0760
0E60
1C60
3860
7000
E000
4000
ENDCHAR
STARTCHAR 2198
ENCODING 8600
SWIDTH 565 0
DWIDTH 13 0
BBX 11 11 1 0
BITMAP
4000
E000
7000
3860
1C60
0E60
0760
03E0
01E0
1FE0
1FE0
ENDCHAR
STARTCHAR 2199
ENCODING 8601
SWIDTH 565 0
DWIDTH 13 0
BBX 11 11 1 0
BITMAP
0040
00E0
01C0
C380
C700
CE00
DC00
F800
F000
FF00
FF00
ENDCHAR
STARTCHAR 26DF
ENCODING 9951
SWIDTH 2652 0
DWIDTH 61 0
BBX 59 16 1 0
BITMAP
FFFFFFFFFFFF0000
FFFFFFFFFFFF3E00
FFFFFFFFFFFF3FC0
FFFFFFFFFFFF3FE0
FFFFFFFFFFFF3C40
FFFFFFFFFFFF3C40
FFFFFFFFFFFF3C40
FFFFFFFFFFFF3C40
FFFFFFFFFFFFBFE0
FFFFFFFFFFFFBFE0
FFFFFFFFFFFFBFE0
C000000000003FE0
0739E00007FFFCE0
0F9CC000037FFB60
073CE00007FFFBE0
0318C00003000300
ENDCHAR
STARTCHAR 2794
ENCODING 10132
SWIDTH 739 0
DWIDTH 17 0
BBX 14 12 1 0
BITMAP
0080
01C0
00E0
0070
0038
FFFC
FFFC
0038
0070
00E0
01C0
0080
ENDCHAR
STARTCHAR 463B
ENCODING 17979
SWIDTH 1000 0
DWIDTH 23 0
BBX 20 8 1 0
BITMAP
01F000
0E1000
300C00
FFFFE0
FFFFF0
DFFFF0
3FFFE0
380040
ENDCHAR
STARTCHAR E031
ENCODING 57393
SWIDTH 434 0
DWIDTH 10 0
BBX 6 11 2 2
BITMAP
30
70
70
70
30
D0
D0
58
C8
8C
44
ENDCHAR
ENDFONT
