STARTFONT 2.1
COMMENT
COMMENT Converted from OpenType font "Logisoso.ttf" by "otf2bdf 3.0".
COMMENT
FONT -FreeType-Logisoso-Medium-R-Normal--30-300-72-72-P-38-ISO10646-1
SIZE 30 72 72
FONTBOUNDINGBOX 80 31 -2 -5
STARTPROPERTIES 19
FOUNDRY "FreeType"
FAMILY_NAME "Logisoso"
WEIGHT_NAME "Medium"
SLANT "R"
SETWIDTH_NAME "Normal"
ADD_STYLE_NAME ""
PIXEL_SIZE 30
POINT_SIZE 300
RESOLUTION_X 72
RESOLUTION_Y 72
SPACING "P"
AVERAGE_WIDTH 38
CHARSET_REGISTRY "ISO10646"
CHARSET_ENCODING "1"
FONT_ASCENT 25
FONT_DESCENT 5
COPYRIGHT "Created by Mathieu Gabiot with FontForge 2.0 (http://fontforge.sf.net) - Brussels - 2009"
_OTF_FONTFILE "Logisoso.ttf"
_OTF_PSNAME "Logisoso"
ENDPROPERTIES
CHARS 527
STARTCHAR 001E
ENCODING 30
SWIDTH 466 0
DWIDTH 14 0
BBX 0 0 0 0
BITMAP
ENDCHAR
STARTCHAR 001F
ENCODING 31
SWIDTH 466 0
DWIDTH 14 0
BBX 0 0 0 0
BITMAP
ENDCHAR
STARTCHAR 0020
ENCODING 32
SWIDTH 466 0
DWIDTH 14 0
BBX 0 0 0 0
BITMAP
ENDCHAR
STARTCHAR 0021
ENCODING 33
SWIDTH 266 0
DWIDTH 8 0
BBX 3 21 3 0
BITMAP
E0
E0
E0
E0
E0
E0
E0
E0
E0
E0
E0
E0
E0
E0
E0
E0
E0
00
40
E0
C0
ENDCHAR
STARTCHAR 0022
ENCODING 34
SWIDTH 466 0
DWIDTH 14 0
BBX 6 4 4 17
BITMAP
FC
FC
48
48
ENDCHAR
STARTCHAR 0023
ENCODING 35
SWIDTH 433 0
DWIDTH 13 0
BBX 11 21 1 0
BITMAP
1CE0
1CE0
1CE0
1CE0
1DC0
1DC0
1DC0
FFE0
FFE0
FFE0
3B80
3B80
FFE0
FFE0
FFE0
7380
7300
7700
7700
E700
E700
ENDCHAR
STARTCHAR 0024
ENCODING 36
SWIDTH 433 0
DWIDTH 13 0
BBX 11 26 1 -3
BITMAP
0E00
0E00
0E00
3F00
7FC0
71C0
E0E0
E0E0
E000
E000
7800
7C00
1E00
0F00
0780
03C0
01C0
00E0
E0E0
E0C0
F1C0
7F80
3F00
0E00
0E00
0E00
ENDCHAR
STARTCHAR 0025
ENCODING 37
SWIDTH 433 0
DWIDTH 13 0
BBX 11 21 1 0
BITMAP
70C0
F9C0
C9C0
F980
7380
0300
0700
0700
0600
0E00
0E00
0C00
1C00
1C00
3800
3800
3380
73C0
7760
63C0
E380
ENDCHAR
STARTCHAR 0026
ENCODING 38
SWIDTH 433 0
DWIDTH 13 0
BBX 11 21 1 0
BITMAP
1E00
3F80
7F80
E1C0
E1C0
E000
7000
7000
7800
7800
FC00
FC00
EEE0
EEE0
E7E0
E7E0
E3E0
E3C0
7FC0
3FC0
1FC0
ENDCHAR
STARTCHAR 0027
ENCODING 39
SWIDTH 266 0
DWIDTH 8 0
BBX 3 4 2 17
BITMAP
60
E0
40
40
ENDCHAR
STARTCHAR 0028
ENCODING 40
SWIDTH 466 0
DWIDTH 14 0
BBX 5 21 4 0
BITMAP
10
38
38
70
70
60
E0
E0
E0
E0
E0
E0
E0
E0
E0
60
70
70
38
38
10
ENDCHAR
STARTCHAR 0029
ENCODING 41
SWIDTH 466 0
DWIDTH 14 0
BBX 6 21 4 0
BITMAP
20
E0
70
70
38
38
38
18
18
1C
1C
1C
1C
18
38
38
38
70
70
E0
20
ENDCHAR
STARTCHAR 002A
ENCODING 42
SWIDTH 466 0
DWIDTH 14 0
BBX 8 9 3 15
BITMAP
18
99
DB
FF
3C
FF
DB
99
18
ENDCHAR
STARTCHAR 002B
ENCODING 43
SWIDTH 466 0
DWIDTH 14 0
BBX 8 8 3 4
BITMAP
38
38
38
FF
FF
FF
38
38
ENDCHAR
STARTCHAR 002C
ENCODING 44
SWIDTH 266 0
DWIDTH 8 0
BBX 3 5 3 -2
BITMAP
40
E0
C0
40
40
ENDCHAR
STARTCHAR 002D
ENCODING 45
SWIDTH 466 0
DWIDTH 14 0
BBX 8 3 3 7
BITMAP
FF
FF
FF
ENDCHAR
STARTCHAR 002E
ENCODING 46
SWIDTH 266 0
DWIDTH 8 0
BBX 3 3 3 0
BITMAP
40
E0
C0
ENDCHAR
STARTCHAR 002F
ENCODING 47
SWIDTH 466 0
DWIDTH 14 0
BBX 10 21 2 0
BITMAP
01C0
0380
0380
0380
0700
0700
0700
0E00
0E00
0E00
1C00
1C00
1800
3800
3800
3000
7000
7000
E000
E000
E000
ENDCHAR
STARTCHAR 0030
ENCODING 48
SWIDTH 466 0
DWIDTH 14 0
BBX 11 21 1 0
BITMAP
1F00
3F80
7FC0
E1C0
E0E0
E0E0
E0E0
E0E0
E0E0
E0E0
E0E0
E0E0
E0E0
E0E0
E0E0
E0E0
E0E0
E1C0
7FC0
3F80
1F00
ENDCHAR
STARTCHAR 0031
ENCODING 49
SWIDTH 466 0
DWIDTH 14 0
BBX 6 21 4 0
BITMAP
1C
1C
3C
7C
FC
DC
1C
1C
1C
1C
1C
1C
1C
1C
1C
1C
1C
1C
1C
1C
1C
ENDCHAR
STARTCHAR 0032
ENCODING 50
SWIDTH 466 0
DWIDTH 14 0
BBX 11 21 2 0
BITMAP
1F00
3F80
7FC0
E1C0
E0E0
E0E0
E0E0
C1C0
03C0
0380
0700
0F00
0E00
1C00
3C00
3800
7000
7000
FFE0
FFE0
FFE0
ENDCHAR
STARTCHAR 0033
ENCODING 51
SWIDTH 466 0
DWIDTH 14 0
BBX 11 21 2 0
BITMAP
FFE0
FFE0
FFE0
01C0
0380
0380
0700
0F00
0E00
0F80
0FC0
01C0
00E0
00E0
00E0
00E0
00E0
61C0
FBC0
7F80
3F00
ENDCHAR
STARTCHAR 0034
ENCODING 52
SWIDTH 466 0
DWIDTH 14 0
BBX 11 21 1 0
BITMAP
0C00
1C00
1C00
1C00
1800
3800
3800
3800
7000
7000
7700
6700
E700
E700
FFE0
FFE0
FFE0
0700
0700
0700
0700
ENDCHAR
STARTCHAR 0035
ENCODING 53
SWIDTH 466 0
DWIDTH 14 0
BBX 11 21 1 0
BITMAP
FFE0
FFE0
FFE0
E000
E000
E000
E000
FF00
FF80
FFC0
E1C0
E0E0
00E0
00E0
00E0
00E0
E0E0
E1C0
7FC0
3F80
1F00
ENDCHAR
STARTCHAR 0036
ENCODING 54
SWIDTH 466 0
DWIDTH 14 0
BBX 11 21 1 0
BITMAP
1F00
3F80
7FC0
E1C0
E0E0
E000
E000
E000
FF00
FF80
FFC0
E1C0
E0E0
E0E0
E0E0
E0E0
E0E0
E1C0
7FC0
3F80
1F00
ENDCHAR
STARTCHAR 0037
ENCODING 55
SWIDTH 466 0
DWIDTH 14 0
BBX 11 21 1 0
BITMAP
FFE0
FFE0
FFE0
E1C0
E1C0
01C0
0380
0380
0380
0380
0700
0700
0700
0700
0E00
0E00
0E00
0E00
1C00
1C00
1C00
ENDCHAR
STARTCHAR 0038
ENCODING 56
SWIDTH 466 0
DWIDTH 14 0
BBX 11 21 2 0
BITMAP
1F00
3F80
7FC0
E1C0
E0E0
E0E0
E0E0
E0E0
F1C0
7FC0
3F80
7FC0
E1C0
E0E0
E0E0
E0E0
E0E0
E1C0
7FC0
3F80
1F00
ENDCHAR
STARTCHAR 0039
ENCODING 57
SWIDTH 466 0
DWIDTH 14 0
BBX 11 21 1 0
BITMAP
1F00
3F80
7FC0
E1C0
E0E0
E0E0
E0E0
E0E0
E0E0
E1E0
7FE0
3FE0
1FE0
00E0
00E0
00E0
E0E0
E1C0
7FC0
3F80
1F00
ENDCHAR
STARTCHAR 003A
ENCODING 58
SWIDTH 266 0
DWIDTH 8 0
BBX 3 12 3 3
BITMAP
C0
E0
40
00
00
00
00
00
00
40
E0
C0
ENDCHAR
STARTCHAR 003B
ENCODING 59
SWIDTH 266 0
DWIDTH 8 0
BBX 3 14 3 1
BITMAP
C0
E0
40
00
00
00
00
00
00
40
E0
C0
40
40
ENDCHAR
STARTCHAR 003C
ENCODING 60
SWIDTH 466 0
DWIDTH 14 0
BBX 7 12 4 4
BITMAP
06
0E
1C
78
F0
C0
C0
F0
78
1C
0E
06
ENDCHAR
STARTCHAR 003D
ENCODING 61
SWIDTH 433 0
DWIDTH 13 0
BBX 9 8 2 3
BITMAP
FF80
FF80
FF80
0000
0000
FF80
FF80
FF80
ENDCHAR
STARTCHAR 003E
ENCODING 62
SWIDTH 466 0
DWIDTH 14 0
BBX 7 12 4 4
BITMAP
80
C0
F0
38
1C
0E
0E
1C
38
F0
E0
80
ENDCHAR
STARTCHAR 003F
ENCODING 63
SWIDTH 433 0
DWIDTH 13 0
BBX 11 21 1 0
BITMAP
1F00
3F80
7FC0
E1C0
E0E0
00E0
00E0
01C0
03C0
0780
0F00
0E00
0E00
0E00
0E00
0E00
0E00
0000
0400
0E00
0C00
ENDCHAR
STARTCHAR 0040
ENCODING 64
SWIDTH 700 0
DWIDTH 21 0
BBX 19 25 1 -5
BITMAP
03F000
0FFC00
1FFF00
3C0780
780380
71F9C0
E3F8C0
E3F8C0
E738E0
E738E0
E738E0
E738E0
E738E0
E738E0
E738E0
E738E0
E738E0
E3FFC0
E3FFC0
71EF00
780000
3C0000
1FFF00
0FFF00
03FF00
ENDCHAR
STARTCHAR 0041
ENCODING 65
SWIDTH 466 0
DWIDTH 14 0
BBX 10 21 2 0
BITMAP
1C00
1C00
1E00
1E00
1E00
3E00
3E00
3E00
3700
3700
7700
7300
7300
7380
7F80
7F80
FF80
E180
E1C0
C1C0
C1C0
ENDCHAR
STARTCHAR 0042
ENCODING 66
SWIDTH 433 0
DWIDTH 13 0
BBX 11 21 1 0
BITMAP
FE00
FF80
FF80
E1C0
E1C0
E0C0
E1C0
E1C0
FF80
FF80
FF80
E3C0
E1C0
E0E0
E0E0
E0E0
E1C0
E1C0
FF80
FF00
FE00
ENDCHAR
STARTCHAR 0043
ENCODING 67
SWIDTH 433 0
DWIDTH 13 0
BBX 11 21 1 0
BITMAP
1F00
3F80
7FC0
E1C0
E0E0
E000
E000
E000
E000
E000
E000
E000
E000
E000
E000
E000
E0E0
E1C0
7FC0
3F80
1F00
ENDCHAR
STARTCHAR 0044
ENCODING 68
SWIDTH 433 0
DWIDTH 13 0
BBX 11 21 1 0
BITMAP
FF00
FF80
FFC0
E1C0
E0E0
E0E0
E0E0
E0E0
E0E0
E0E0
E0E0
E0E0
E0E0
E0E0
E0E0
E0E0
E0E0
E1C0
FFC0
FF80
FF00
ENDCHAR
STARTCHAR 0045
ENCODING 69
SWIDTH 433 0
DWIDTH 13 0
BBX 11 21 1 0
BITMAP
FFE0
FFE0
FFE0
E000
E000
E000
E000
E000
E000
FF00
FF00
FF00
E000
E000
E000
E000
E000
E000
FFE0
FFE0
FFE0
ENDCHAR
STARTCHAR 0046
ENCODING 70
SWIDTH 433 0
DWIDTH 13 0
BBX 11 21 1 0
BITMAP
FFE0
FFE0
FFE0
E000
E000
E000
E000
E000
E000
FF00
FF00
FF00
E000
E000
E000
E000
E000
E000
E000
E000
E000
ENDCHAR
STARTCHAR 0047
ENCODING 71
SWIDTH 433 0
DWIDTH 13 0
BBX 11 21 1 0
BITMAP
1F00
3F80
7FC0
E1C0
E0E0
E000
E000
E000
E000
E000
E7E0
E7E0
E7E0
E0E0
E0E0
E0E0
E0E0
E1E0
7FE0
3FE0
1FE0
ENDCHAR
STARTCHAR 0048
ENCODING 72
SWIDTH 433 0
DWIDTH 13 0
BBX 11 21 1 0
BITMAP
E0E0
E0E0
E0E0
E0E0
E0E0
E0E0
E0E0
E0E0
E0E0
FFE0
FFE0
FFE0
E0E0
E0E0
E0E0
E0E0
E0E0
E0E0
E0E0
E0E0
E0E0
ENDCHAR
STARTCHAR 0049
ENCODING 73
SWIDTH 266 0
DWIDTH 8 0
BBX 3 21 3 0
BITMAP
E0
E0
E0
E0
E0
E0
E0
E0
E0
E0
E0
E0
E0
E0
E0
E0
E0
E0
E0
E0
E0
ENDCHAR
STARTCHAR 004A
ENCODING 74
SWIDTH 466 0
DWIDTH 14 0
BBX 11 21 2 0
BITMAP
00E0
00E0
00E0
00E0
00E0
00E0
00E0
00E0
00E0
00E0
00E0
00E0
00E0
00E0
00E0
00E0
E0E0
E1C0
7FC0
3F80
1F00
ENDCHAR
STARTCHAR 004B
ENCODING 75
SWIDTH 466 0
DWIDTH 14 0
BBX 10 21 2 0
BITMAP
E1C0
E3C0
E380
E700
E700
EE00
FE00
FC00
F800
F800
F000
F800
F800
FC00
FE00
EE00
E700
E700
E380
E1C0
E1C0
ENDCHAR
STARTCHAR 004C
ENCODING 76
SWIDTH 433 0
DWIDTH 13 0
BBX 11 21 1 0
BITMAP
E000
E000
E000
E000
E000
E000
E000
E000
E000
E000
E000
E000
E000
E000
E000
E000
E000
E000
FFC0
FFE0
FFE0
ENDCHAR
STARTCHAR 004D
ENCODING 77
SWIDTH 433 0
DWIDTH 13 0
BBX 11 21 1 0
BITMAP
E0E0
E1E0
E1E0
F1E0
F3E0
FBE0
FBE0
FFE0
FFE0
FFE0
FEE0
EEE0
ECE0
ECE0
E4E0
E0E0
E0E0
E0E0
E0E0
E0E0
E0E0
ENDCHAR
STARTCHAR 004E
ENCODING 78
SWIDTH 433 0
DWIDTH 13 0
BBX 11 21 1 0
BITMAP
E0E0
E0E0
F0E0
F0E0
F0E0
F8E0
F8E0
FCE0
FCE0
FCE0
EEE0
EEE0
E7E0
E7E0
E7E0
E3E0
E3E0
E1E0
E1E0
E1E0
E0E0
ENDCHAR
STARTCHAR 004F
ENCODING 79
SWIDTH 433 0
DWIDTH 13 0
BBX 11 21 1 0
BITMAP
1F00
3F80
7FC0
E1C0
E0E0
E0E0
E0E0
E0E0
E0E0
E0E0
E0E0
E0E0
E0E0
E0E0
E0E0
E0E0
E0E0
E1C0
7FC0
3F80
1F00
ENDCHAR
STARTCHAR 0050
ENCODING 80
SWIDTH 433 0
DWIDTH 13 0
BBX 11 21 1 0
BITMAP
FE00
FF00
FF80
E1C0
E1C0
E0E0
E0E0
E0E0
E1C0
E3C0
FF80
FF00
F800
E000
E000
E000
E000
E000
E000
E000
E000
ENDCHAR
STARTCHAR 0051
ENCODING 81
SWIDTH 433 0
DWIDTH 13 0
BBX 11 21 1 0
BITMAP
1F00
3F80
7FC0
E1C0
E0E0
E0E0
E0E0
E0E0
E0E0
E0E0
E0E0
E0E0
E0E0
E0E0
E0E0
E0E0
E0E0
E1C0
7FC0
3FC0
1FC0
ENDCHAR
STARTCHAR 0052
ENCODING 82
SWIDTH 433 0
DWIDTH 13 0
BBX 11 21 1 0
BITMAP
FE00
FF00
FF80
E1C0
E1C0
E0E0
E0E0
E0E0
E1C0
E3C0
FF80
FF00
FF00
E700
E300
E380
E380
E180
E1C0
E1C0
E0C0
ENDCHAR
STARTCHAR 0053
ENCODING 83
SWIDTH 433 0
DWIDTH 13 0
BBX 11 21 1 0
BITMAP
1F00
3F80
7FC0
E1C0
E0E0
E000
E000
F000
7800
3C00
1E00
0F00
0380
01C0
00E0
00E0
E0E0
E1C0
7FC0
3F80
1F00
ENDCHAR
STARTCHAR 0054
ENCODING 84
SWIDTH 466 0
DWIDTH 14 0
BBX 11 21 1 0
BITMAP
FFE0
FFE0
FFE0
0E00
0E00
0E00
0E00
0E00
0E00
0E00
0E00
0E00
0E00
0E00
0E00
0E00
0E00
0E00
0E00
0E00
0E00
ENDCHAR
STARTCHAR 0055
ENCODING 85
SWIDTH 433 0
DWIDTH 13 0
BBX 11 21 1 0
BITMAP
E0E0
E0E0
E0E0
E0E0
E0E0
E0E0
E0E0
E0E0
E0E0
E0E0
E0E0
E0E0
E0E0
E0E0
E0E0
E0E0
E0E0
E1C0
7FC0
3F80
1F00
ENDCHAR
STARTCHAR 0056
ENCODING 86
SWIDTH 466 0
DWIDTH 14 0
BBX 10 21 2 0
BITMAP
C1C0
C1C0
E1C0
E180
E180
6380
6380
7380
7380
7300
3700
3700
3F00
3F00
3E00
1E00
1E00
1E00
1E00
1E00
0C00
ENDCHAR
STARTCHAR 0057
ENCODING 87
SWIDTH 433 0
DWIDTH 13 0
BBX 11 21 1 0
BITMAP
E1E0
E1C0
E1C0
E1C0
E1C0
E1C0
E1C0
E5C0
65C0
6DC0
6FC0
6FC0
7FC0
7FC0
7FC0
7FC0
7F80
7B80
7B80
7380
7380
ENDCHAR
STARTCHAR 0058
ENCODING 88
SWIDTH 466 0
DWIDTH 14 0
BBX 10 21 2 0
BITMAP
C1C0
E1C0
E380
6380
7380
7300
7700
3700
3E00
3E00
1E00
3E00
3E00
3700
7700
7300
7380
6380
E380
E1C0
C1C0
ENDCHAR
STARTCHAR 0059
ENCODING 89
SWIDTH 466 0
DWIDTH 14 0
BBX 10 21 2 0
BITMAP
C1C0
E180
E380
E380
6300
7700
7700
7E00
3E00
3E00
3C00
1C00
1800
3800
3800
3000
7000
7000
E000
E000
E000
ENDCHAR
STARTCHAR 005A
ENCODING 90
SWIDTH 466 0
DWIDTH 14 0
BBX 11 21 1 0
BITMAP
FFE0
FFE0
FFE0
01E0
01C0
03C0
0380
0780
0700
0F00
0E00
1E00
1C00
3C00
3800
7800
7000
F000
FFE0
FFE0
FFE0
ENDCHAR
STARTCHAR 005B
ENCODING 91
SWIDTH 466 0
DWIDTH 14 0
BBX 6 21 4 0
BITMAP
FC
FC
FC
E0
E0
E0
E0
E0
E0
E0
E0
E0
E0
E0
E0
E0
E0
E0
FC
FC
FC
ENDCHAR
STARTCHAR 005C
ENCODING 92
SWIDTH 466 0
DWIDTH 14 0
BBX 10 21 2 0
BITMAP
E000
E000
7000
7000
7000
3800
3800
3800
1C00
1C00
1C00
0E00
0E00
0E00
0700
0700
0300
0380
0380
0180
01C0
ENDCHAR
STARTCHAR 005D
ENCODING 93
SWIDTH 433 0
DWIDTH 13 0
BBX 6 21 4 0
BITMAP
FC
FC
FC
1C
1C
1C
1C
1C
1C
1C
1C
1C
1C
1C
1C
1C
1C
1C
FC
FC
FC
ENDCHAR
STARTCHAR 005E
ENCODING 94
SWIDTH 466 0
DWIDTH 14 0
BBX 8 4 3 22
BITMAP
38
7C
6E
E7
ENDCHAR
STARTCHAR 005F
ENCODING 95
SWIDTH 466 0
DWIDTH 14 0
BBX 14 2 0 -2
BITMAP
FFFC
FFFC
ENDCHAR
STARTCHAR 0060
ENCODING 96
SWIDTH 466 0
DWIDTH 14 0
BBX 5 4 4 20
BITMAP
E0
70
30
18
ENDCHAR
STARTCHAR 0061
ENCODING 97
SWIDTH 466 0
DWIDTH 14 0
BBX 12 16 1 0
BITMAP
1F00
3F80
7FC0
60C0
E0E0
E0E0
00E0
1FE0
7FE0
FFE0
E0E0
E0E0
E0E0
FFF0
7FF0
3F30
ENDCHAR
STARTCHAR 0062
ENCODING 98
SWIDTH 433 0
DWIDTH 13 0
BBX 11 21 1 0
BITMAP
E000
E000
E000
E000
E000
FF00
FF80
FFC0
E1C0
E0E0
E0E0
E0E0
E0E0
E0E0
E0E0
E0E0
E0E0
E1C0
FFC0
FF80
FF00
ENDCHAR
STARTCHAR 0063
ENCODING 99
SWIDTH 433 0
DWIDTH 13 0
BBX 11 16 1 0
BITMAP
1F00
3F80
7FC0
E1C0
E0E0
E000
E000
E000
E000
E000
E000
E0E0
E1C0
7FC0
3F80
1F00
ENDCHAR
STARTCHAR 0064
ENCODING 100
SWIDTH 433 0
DWIDTH 13 0
BBX 11 21 1 0
BITMAP
00E0
00E0
00E0
00E0
00E0
1FE0
3FE0
7FE0
E1E0
E0E0
E0E0
E0E0
E0E0
E0E0
E0E0
E0E0
E0E0
E1E0
7FE0
3FE0
1FE0
ENDCHAR
STARTCHAR 0065
ENCODING 101
SWIDTH 433 0
DWIDTH 13 0
BBX 11 16 1 0
BITMAP
1F00
3F80
7FC0
E1C0
E0E0
E0E0
FFE0
FFE0
FFE0
E000
E000
E000
E1C0
7FC0
3F80
1F00
ENDCHAR
STARTCHAR 0066
ENCODING 102
SWIDTH 433 0
DWIDTH 13 0
BBX 10 21 1 0
BITMAP
0F00
1FC0
1FC0
38C0
3800
3800
3800
3800
FF80
FF80
FF80
3800
3800
3800
3800
3800
3800
3800
3800
3800
3800
ENDCHAR
STARTCHAR 0067
ENCODING 103
SWIDTH 433 0
DWIDTH 13 0
BBX 11 21 1 -5
BITMAP
1FE0
3FE0
7FE0
E1C0
E0E0
E0E0
E0E0
F1C0
7FC0
3F80
3C00
7000
7000
3F00
7FC0
FFC0
E0E0
E0E0
FFC0
7FC0
3F80
ENDCHAR
STARTCHAR 0068
ENCODING 104
SWIDTH 433 0
DWIDTH 13 0
BBX 11 21 1 0
BITMAP
E000
E000
E000
E000
E000
FF00
FF80
FFC0
E1C0
E0E0
E0E0
E0E0
E0E0
E0E0
E0E0
E0E0
E0E0
E0E0
E0E0
E0E0
E0E0
ENDCHAR
STARTCHAR 0069
ENCODING 105
SWIDTH 266 0
DWIDTH 8 0
BBX 4 21 2 0
BITMAP
C0
E0
40
00
00
E0
E0
E0
E0
E0
E0
E0
E0
E0
E0
E0
E0
E0
F0
70
30
ENDCHAR
STARTCHAR 006A
ENCODING 106
SWIDTH 433 0
DWIDTH 13 0
BBX 8 26 3 -5
BITMAP
06
07
02
00
00
07
07
07
07
07
07
07
07
07
07
07
07
07
07
07
07
07
C7
FE
FE
3C
ENDCHAR
STARTCHAR 006B
ENCODING 107
SWIDTH 433 0
DWIDTH 13 0
BBX 10 21 1 0
BITMAP
E000
E000
E000
E000
E000
E1C0
E1C0
E380
E380
E700
EE00
EE00
FC00
FC00
FE00
FE00
F700
E380
E380
E1C0
E1C0
ENDCHAR
STARTCHAR 006C
ENCODING 108
SWIDTH 266 0
DWIDTH 8 0
BBX 6 21 1 0
BITMAP
E0
E0
E0
E0
E0
E0
E0
E0
E0
E0
E0
E0
E0
E0
E0
E0
E0
E0
FC
7C
3C
ENDCHAR
STARTCHAR 006D
ENCODING 109
SWIDTH 700 0
DWIDTH 21 0
BBX 19 16 1 0
BITMAP
FF1F00
FFBF80
FFFFC0
E1E1C0
E0E0E0
E0E0E0
E0E0E0
E0E0E0
E0E0E0
E0E0E0
E0E0E0
E0E0E0
E0E0E0
E0E0E0
E0E0E0
E0E0E0
ENDCHAR
STARTCHAR 006E
ENCODING 110
SWIDTH 433 0
DWIDTH 13 0
BBX 11 16 1 0
BITMAP
FF00
FF80
FFC0
E1C0
E0E0
E0E0
E0E0
E0E0
E0E0
E0E0
E0E0
E0E0
E0E0
E0E0
E0E0
E0E0
ENDCHAR
STARTCHAR 006F
ENCODING 111
SWIDTH 433 0
DWIDTH 13 0
BBX 11 16 1 0
BITMAP
1F00
3F80
7FC0
E1C0
E0E0
E0E0
E0E0
E0E0
E0E0
E0E0
E0E0
E0E0
E1C0
7FC0
3F80
1F00
ENDCHAR
STARTCHAR 0070
ENCODING 112
SWIDTH 433 0
DWIDTH 13 0
BBX 11 21 1 -5
BITMAP
FF00
FF80
FFC0
E1C0
E0E0
E0E0
E0E0
E0E0
E0E0
E0E0
E0E0
E0E0
E1C0
FFC0
FF80
FF00
E000
E000
E000
E000
E000
ENDCHAR
STARTCHAR 0071
ENCODING 113
SWIDTH 433 0
DWIDTH 13 0
BBX 11 21 1 -5
BITMAP
1FE0
3FE0
7FE0
E1E0
E0E0
E0E0
E0E0
E0E0
E0E0
E0E0
E0E0
E0E0
E1E0
7FE0
3FE0
1FE0
00E0
00E0
00E0
00E0
00E0
ENDCHAR
STARTCHAR 0072
ENCODING 114
SWIDTH 333 0
DWIDTH 10 0
BBX 8 16 1 0
BITMAP
FF
FF
FF
E7
E0
E0
E0
E0
E0
E0
E0
E0
E0
E0
E0
E0
ENDCHAR
STARTCHAR 0073
ENCODING 115
SWIDTH 366 0
DWIDTH 11 0
BBX 9 16 1 0
BITMAP
3E00
7F00
FF80
E380
E380
E000
F800
7E00
3F00
0380
E380
E380
E380
7F00
7F00
3C00
ENDCHAR
STARTCHAR 0074
ENCODING 116
SWIDTH 300 0
DWIDTH 9 0
BBX 7 21 1 0
BITMAP
70
70
70
70
70
FE
FE
FE
70
70
70
70
70
70
70
70
70
70
3E
3E
1E
ENDCHAR
STARTCHAR 0075
ENCODING 117
SWIDTH 433 0
DWIDTH 13 0
BBX 11 16 1 0
BITMAP
E0E0
E0E0
E0E0
E0E0
E0E0
E0E0
E0E0
E0E0
E0E0
E0E0
E0E0
E0E0
E1E0
7FE0
3FE0
1FE0
ENDCHAR
STARTCHAR 0076
ENCODING 118
SWIDTH 466 0
DWIDTH 14 0
BBX 10 16 2 0
BITMAP
C1C0
C1C0
E1C0
E180
E180
6380
6380
7380
7300
7300
3700
3700
3F00
3E00
3E00
1E00
ENDCHAR
STARTCHAR 0077
ENCODING 119
SWIDTH 700 0
DWIDTH 21 0
BBX 19 16 1 0
BITMAP
E0E0E0
60E0E0
70F0E0
70F0C0
71F1C0
71F1C0
31F1C0
39F1C0
39B980
3BBB80
3BBB80
1B9B80
1F9B80
1F1F00
1F1F00
1F1F00
ENDCHAR
STARTCHAR 0078
ENCODING 120
SWIDTH 466 0
DWIDTH 14 0
BBX 10 16 2 0
BITMAP
C1C0
E180
6380
7300
3700
3E00
1E00
1C00
1C00
1E00
3E00
3700
7300
6380
E180
C1C0
ENDCHAR
STARTCHAR 0079
ENCODING 121
SWIDTH 466 0
DWIDTH 14 0
BBX 11 21 1 -5
BITMAP
30E0
30E0
38E0
38C0
39C0
19C0
19C0
1DC0
1D80
1F80
0F80
0F80
0F80
0F00
0F00
0700
0700
0700
7E00
FE00
3800
ENDCHAR
STARTCHAR 007A
ENCODING 122
SWIDTH 433 0
DWIDTH 13 0
BBX 11 16 1 0
BITMAP
FFE0
FFE0
FFE0
01C0
03C0
0380
0700
0F00
1E00
1C00
3800
7800
7000
FFE0
FFE0
FFE0
ENDCHAR
STARTCHAR 007B
ENCODING 123
SWIDTH 466 0
DWIDTH 14 0
BBX 8 25 3 -4
BITMAP
03
0F
0F
1C
1C
1C
1C
1C
1C
1C
38
F0
E0
78
38
1C
1C
1C
1C
1C
1C
1E
0F
07
03
ENDCHAR
STARTCHAR 007C
ENCODING 124
SWIDTH 433 0
DWIDTH 13 0
BBX 3 27 5 -3
BITMAP
E0
E0
E0
E0
E0
E0
E0
E0
E0
E0
E0
E0
E0
E0
E0
E0
E0
E0
E0
E0
E0
E0
E0
E0
E0
E0
E0
ENDCHAR
STARTCHAR 007D
ENCODING 125
SWIDTH 466 0
DWIDTH 14 0
BBX 8 25 3 -4
BITMAP
E0
F0
78
38
1C
1C
1C
1C
1C
1C
1E
0F
03
0F
1C
1C
1C
1C
1C
1C
1C
38
F8
F0
C0
ENDCHAR
STARTCHAR 007E
ENCODING 126
SWIDTH 466 0
DWIDTH 14 0
BBX 11 4 1 6
BITMAP
6380
FFE0
7FE0
3840
ENDCHAR
STARTCHAR 007F
ENCODING 127
SWIDTH 466 0
DWIDTH 14 0
BBX 0 0 0 0
BITMAP
ENDCHAR
STARTCHAR 0080
ENCODING 128
SWIDTH 466 0
DWIDTH 14 0
BBX 0 0 0 0
BITMAP
ENDCHAR
STARTCHAR 0081
ENCODING 129
SWIDTH 466 0
DWIDTH 14 0
BBX 0 0 0 0
BITMAP
ENDCHAR
STARTCHAR 0082
ENCODING 130
SWIDTH 466 0
DWIDTH 14 0
BBX 0 0 0 0
BITMAP
ENDCHAR
STARTCHAR 0083
ENCODING 131
SWIDTH 466 0
DWIDTH 14 0
BBX 0 0 0 0
BITMAP
ENDCHAR
STARTCHAR 0084
ENCODING 132
SWIDTH 466 0
DWIDTH 14 0
BBX 0 0 0 0
BITMAP
ENDCHAR
STARTCHAR 0085
ENCODING 133
SWIDTH 466 0
DWIDTH 14 0
BBX 0 0 0 0
BITMAP
ENDCHAR
STARTCHAR 0086
ENCODING 134
SWIDTH 466 0
DWIDTH 14 0
BBX 0 0 0 0
BITMAP
ENDCHAR
STARTCHAR 0087
ENCODING 135
SWIDTH 466 0
DWIDTH 14 0
BBX 0 0 0 0
BITMAP
ENDCHAR
STARTCHAR 0088
ENCODING 136
SWIDTH 466 0
DWIDTH 14 0
BBX 0 0 0 0
BITMAP
ENDCHAR
STARTCHAR 0089
ENCODING 137
SWIDTH 466 0
DWIDTH 14 0
BBX 0 0 0 0
BITMAP
ENDCHAR
STARTCHAR 008A
ENCODING 138
SWIDTH 466 0
DWIDTH 14 0
BBX 0 0 0 0
BITMAP
ENDCHAR
STARTCHAR 008B
ENCODING 139
SWIDTH 466 0
DWIDTH 14 0
BBX 0 0 0 0
BITMAP
ENDCHAR
STARTCHAR 008C
ENCODING 140
SWIDTH 466 0
DWIDTH 14 0
BBX 0 0 0 0
BITMAP
ENDCHAR
STARTCHAR 008D
ENCODING 141
SWIDTH 466 0
DWIDTH 14 0
BBX 0 0 0 0
BITMAP
ENDCHAR
STARTCHAR 008E
ENCODING 142
SWIDTH 466 0
DWIDTH 14 0
BBX 0 0 0 0
BITMAP
ENDCHAR
STARTCHAR 008F
ENCODING 143
SWIDTH 466 0
DWIDTH 14 0
BBX 0 0 0 0
BITMAP
ENDCHAR
STARTCHAR 0090
ENCODING 144
SWIDTH 466 0
DWIDTH 14 0
BBX 0 0 0 0
BITMAP
ENDCHAR
STARTCHAR 0091
ENCODING 145
SWIDTH 466 0
DWIDTH 14 0
BBX 0 0 0 0
BITMAP
ENDCHAR
STARTCHAR 0092
ENCODING 146
SWIDTH 466 0
DWIDTH 14 0
BBX 0 0 0 0
BITMAP
ENDCHAR
STARTCHAR 0093
ENCODING 147
SWIDTH 466 0
DWIDTH 14 0
BBX 0 0 0 0
BITMAP
ENDCHAR
STARTCHAR 0094
ENCODING 148
SWIDTH 466 0
DWIDTH 14 0
BBX 0 0 0 0
BITMAP
ENDCHAR
STARTCHAR 0095
ENCODING 149
SWIDTH 466 0
DWIDTH 14 0
BBX 0 0 0 0
BITMAP
ENDCHAR
STARTCHAR 0096
ENCODING 150
SWIDTH 466 0
DWIDTH 14 0
BBX 0 0 0 0
BITMAP
ENDCHAR
STARTCHAR 0097
ENCODING 151
SWIDTH 466 0
DWIDTH 14 0
BBX 0 0 0 0
BITMAP
ENDCHAR
STARTCHAR 0098
ENCODING 152
SWIDTH 466 0
DWIDTH 14 0
BBX 0 0 0 0
BITMAP
ENDCHAR
STARTCHAR 0099
ENCODING 153
SWIDTH 466 0
DWIDTH 14 0
BBX 0 0 0 0
BITMAP
ENDCHAR
STARTCHAR 009A
ENCODING 154
SWIDTH 466 0
DWIDTH 14 0
BBX 0 0 0 0
BITMAP
ENDCHAR
STARTCHAR 009B
ENCODING 155
SWIDTH 466 0
DWIDTH 14 0
BBX 0 0 0 0
BITMAP
ENDCHAR
STARTCHAR 009C
ENCODING 156
SWIDTH 466 0
DWIDTH 14 0
BBX 0 0 0 0
BITMAP
ENDCHAR
STARTCHAR 009D
ENCODING 157
SWIDTH 466 0
DWIDTH 14 0
BBX 0 0 0 0
BITMAP
ENDCHAR
STARTCHAR 009E
ENCODING 158
SWIDTH 466 0
DWIDTH 14 0
BBX 0 0 0 0
BITMAP
ENDCHAR
STARTCHAR 009F
ENCODING 159
SWIDTH 466 0
DWIDTH 14 0
BBX 0 0 0 0
BITMAP
ENDCHAR
STARTCHAR 00A0
ENCODING 160
SWIDTH 466 0
DWIDTH 14 0
BBX 0 0 0 0
BITMAP
ENDCHAR
STARTCHAR 00A1
ENCODING 161
SWIDTH 466 0
DWIDTH 14 0
BBX 0 0 0 0
BITMAP
ENDCHAR
STARTCHAR 00A2
ENCODING 162
SWIDTH 466 0
DWIDTH 14 0
BBX 0 0 0 0
BITMAP
ENDCHAR
STARTCHAR 00A3
ENCODING 163
SWIDTH 433 0
DWIDTH 13 0
BBX 11 21 1 0
BITMAP
0F00
1F80
3FC0
70E0
70E0
7000
7000
7000
7000
FE00
FE00
FE00
7000
7000
7000
7000
7000
7000
FFE0
FFE0
FFE0
ENDCHAR
STARTCHAR 00A4
ENCODING 164
SWIDTH 466 0
DWIDTH 14 0
BBX 0 0 0 0
BITMAP
ENDCHAR
STARTCHAR 00A5
ENCODING 165
SWIDTH 466 0
DWIDTH 14 0
BBX 0 0 0 0
BITMAP
ENDCHAR
STARTCHAR 00A6
ENCODING 166
SWIDTH 466 0
DWIDTH 14 0
BBX 0 0 0 0
BITMAP
ENDCHAR
STARTCHAR 00A7
ENCODING 167
SWIDTH 800 0
DWIDTH 24 0
BBX 22 16 1 0
BITMAP
0381E0
0701C0
0703C0
0F07C0
0F87E0
1D8EE0
3DCE70
38FC78
70F838
70781C
F0781C
F0781C
F8FC38
BFFFF8
9FCFF0
0F83C0
ENDCHAR
STARTCHAR 00A8
ENCODING 168
SWIDTH 466 0
DWIDTH 14 0
BBX 0 0 0 0
BITMAP
ENDCHAR
STARTCHAR 00A9
ENCODING 169
SWIDTH 700 0
DWIDTH 21 0
BBX 19 21 1 0
BITMAP
03F000
0FFC00
1FFF00
3C0780
78C380
73F1C0
E7F9C0
E71CC0
EE1CE0
E01CE0
E01CE0
EE1CE0
EE1CE0
E7F8C0
E3F9C0
71E1C0
780380
3C0780
1FFF00
0FFC00
03F000
ENDCHAR
STARTCHAR 00AA
ENCODING 170
SWIDTH 466 0
DWIDTH 14 0
BBX 0 0 0 0
BITMAP
ENDCHAR
STARTCHAR 00AB
ENCODING 171
SWIDTH 466 0
DWIDTH 14 0
BBX 10 10 2 5
BITMAP
0840
18C0
7BC0
E700
C600
C600
E700
7BC0
39C0
0840
ENDCHAR
STARTCHAR 00AC
ENCODING 172
SWIDTH 466 0
DWIDTH 14 0
BBX 0 0 0 0
BITMAP
ENDCHAR
STARTCHAR 00AD
ENCODING 173
SWIDTH 466 0
DWIDTH 14 0
BBX 0 0 0 0
BITMAP
ENDCHAR
STARTCHAR 00AE
ENCODING 174
SWIDTH 466 0
DWIDTH 14 0
BBX 0 0 0 0
BITMAP
ENDCHAR
STARTCHAR 00AF
ENCODING 175
SWIDTH 466 0
DWIDTH 14 0
BBX 0 0 0 0
BITMAP
ENDCHAR
STARTCHAR 00B0
ENCODING 176
SWIDTH 266 0
DWIDTH 8 0
BBX 4 4 2 20
BITMAP
60
90
90
E0
ENDCHAR
STARTCHAR 00B1
ENCODING 177
SWIDTH 466 0
DWIDTH 14 0
BBX 0 0 0 0
BITMAP
ENDCHAR
STARTCHAR 00B2
ENCODING 178
SWIDTH 466 0
DWIDTH 14 0
BBX 0 0 0 0
BITMAP
ENDCHAR
STARTCHAR 00B3
ENCODING 179
SWIDTH 466 0
DWIDTH 14 0
BBX 0 0 0 0
BITMAP
ENDCHAR
STARTCHAR 00B4
ENCODING 180
SWIDTH 466 0
DWIDTH 14 0
BBX 0 0 0 0
BITMAP
ENDCHAR
STARTCHAR 00B5
ENCODING 181
SWIDTH 433 0
DWIDTH 13 0
BBX 11 20 1 -4
BITMAP
E0E0
E0E0
E0E0
E0E0
E0E0
E0E0
E0E0
E0E0
E0E0
E0E0
E0E0
E0E0
E1E0
FFE0
FFE0
FFE0
E000
E000
E000
E000
ENDCHAR
STARTCHAR 00B6
ENCODING 182
SWIDTH 466 0
DWIDTH 14 0
BBX 0 0 0 0
BITMAP
ENDCHAR
STARTCHAR 00B7
ENCODING 183
SWIDTH 466 0
DWIDTH 14 0
BBX 0 0 0 0
BITMAP
ENDCHAR
STARTCHAR 00B8
ENCODING 184
SWIDTH 466 0
DWIDTH 14 0
BBX 0 0 0 0
BITMAP
ENDCHAR
STARTCHAR 00B9
ENCODING 185
SWIDTH 466 0
DWIDTH 14 0
BBX 0 0 0 0
BITMAP
ENDCHAR
STARTCHAR 00BA
ENCODING 186
SWIDTH 466 0
DWIDTH 14 0
BBX 0 0 0 0
BITMAP
ENDCHAR
STARTCHAR 00BB
ENCODING 187
SWIDTH 466 0
DWIDTH 14 0
BBX 10 10 2 5
BITMAP
8400
C600
F780
39C0
18C0
18C0
39C0
7380
E700
8400
ENDCHAR
STARTCHAR 00BC
ENCODING 188
SWIDTH 466 0
DWIDTH 14 0
BBX 0 0 0 0
BITMAP
ENDCHAR
STARTCHAR 00BD
ENCODING 189
SWIDTH 466 0
DWIDTH 14 0
BBX 0 0 0 0
BITMAP
ENDCHAR
STARTCHAR 00BE
ENCODING 190
SWIDTH 466 0
DWIDTH 14 0
BBX 0 0 0 0
BITMAP
ENDCHAR
STARTCHAR 00BF
ENCODING 191
SWIDTH 466 0
DWIDTH 14 0
BBX 0 0 0 0
BITMAP
ENDCHAR
STARTCHAR 00C0
ENCODING 192
SWIDTH 466 0
DWIDTH 14 0
BBX 10 26 2 0
BITMAP
3800
1C00
0C00
0600
0300
1C00
1C00
1E00
1E00
1E00
3E00
3E00
3E00
3700
3700
7700
7300
7300
7380
7F80
7F80
FF80
E180
E1C0
C1C0
C1C0
ENDCHAR
STARTCHAR 00C1
ENCODING 193
SWIDTH 466 0
DWIDTH 14 0
BBX 10 26 2 0
BITMAP
0700
0E00
0C00
1800
3000
1C00
1C00
1E00
1E00
1E00
3E00
3E00
3E00
3700
3700
7700
7300
7300
7380
7F80
7F80
FF80
E180
E1C0
C1C0
C1C0
ENDCHAR
STARTCHAR 00C2
ENCODING 194
SWIDTH 466 0
DWIDTH 14 0
BBX 10 26 2 0
BITMAP
1C00
1E00
3600
7300
6180
1C00
1C00
1E00
1E00
1E00
3E00
3E00
3E00
3700
3700
7700
7300
7300
7380
7F80
7F80
FF80
E180
E1C0
C1C0
C1C0
ENDCHAR
STARTCHAR 00C3
ENCODING 195
SWIDTH 466 0
DWIDTH 14 0
BBX 0 0 0 0
BITMAP
ENDCHAR
STARTCHAR 00C4
ENCODING 196
SWIDTH 466 0
DWIDTH 14 0
BBX 10 26 2 0
BITMAP
1200
3F00
3300
0000
0000
0C00
1E00
1E00
1E00
1E00
1E00
3F00
3F00
3F00
3F00
3300
7300
7380
7380
7F80
7F80
7F80
E1C0
E1C0
E1C0
C0C0
ENDCHAR
STARTCHAR 00C5
ENCODING 197
SWIDTH 466 0
DWIDTH 14 0
BBX 0 0 0 0
BITMAP
ENDCHAR
STARTCHAR 00C6
ENCODING 198
SWIDTH 466 0
DWIDTH 14 0
BBX 18 21 -2 0
BITMAP
01FFC0
01FFC0
01FFC0
03F000
03F000
037000
077000
077000
0E7000
0E7F80
0E7F80
1C7F80
1C7000
1C7000
3FF000
3FF000
3FF000
707000
707FC0
607FC0
E07FC0
ENDCHAR
STARTCHAR 00C7
ENCODING 199
SWIDTH 466 0
DWIDTH 14 0
BBX 0 0 0 0
BITMAP
ENDCHAR
STARTCHAR 00C8
ENCODING 200
SWIDTH 433 0
DWIDTH 13 0
BBX 11 26 1 0
BITMAP
1C00
0C00
0600
0700
0300
FFE0
FFE0
FFE0
E000
E000
E000
E000
E000
E000
FF00
FF00
FF00
E000
E000
E000
E000
E000
E000
FFE0
FFE0
FFE0
ENDCHAR
STARTCHAR 00C9
ENCODING 201
SWIDTH 433 0
DWIDTH 13 0
BBX 11 26 1 0
BITMAP
0300
0600
0E00
0C00
1800
FFE0
FFE0
FFE0
E000
E000
E000
E000
E000
E000
FF00
FF00
FF00
E000
E000
E000
E000
E000
E000
FFE0
FFE0
FFE0
ENDCHAR
STARTCHAR 00CA
ENCODING 202
SWIDTH 433 0
DWIDTH 13 0
BBX 11 26 1 0
BITMAP
0E00
1E00
1B00
3180
6180
FFE0
FFE0
FFE0
E000
E000
E000
E000
E000
E000
FF00
FF00
FF00
E000
E000
E000
E000
E000
E000
FFE0
FFE0
FFE0
ENDCHAR
STARTCHAR 00CB
ENCODING 203
SWIDTH 433 0
DWIDTH 13 0
BBX 11 26 1 0
BITMAP
1200
3F00
1B00
0000
0000
FFE0
FFE0
FFE0
E000
E000
E000
E000
E000
E000
FF00
FF00
FF00
E000
E000
E000
E000
E000
E000
FFE0
FFE0
FFE0
ENDCHAR
STARTCHAR 00CC
ENCODING 204
SWIDTH 433 0
DWIDTH 13 0
BBX 5 26 4 0
BITMAP
E0
60
30
38
18
70
70
70
70
70
70
70
70
70
70
70
70
70
70
70
70
70
70
70
70
70
ENDCHAR
STARTCHAR 00CD
ENCODING 205
SWIDTH 433 0
DWIDTH 13 0
BBX 5 26 4 0
BITMAP
18
30
70
60
C0
70
70
70
70
70
70
70
70
70
70
70
70
70
70
70
70
70
70
70
70
70
ENDCHAR
STARTCHAR 00CE
ENCODING 206
SWIDTH 433 0
DWIDTH 13 0
BBX 8 26 2 0
BITMAP
1C
3C
36
63
C3
1C
1C
1C
1C
1C
1C
1C
1C
1C
1C
1C
1C
1C
1C
1C
1C
1C
1C
1C
1C
1C
ENDCHAR
STARTCHAR 00CF
ENCODING 207
SWIDTH 466 0
DWIDTH 14 0
BBX 6 26 4 0
BITMAP
48
FC
CC
00
00
70
70
70
70
70
70
70
70
70
70
70
70
70
70
70
70
70
70
70
70
70
ENDCHAR
STARTCHAR 00D0
ENCODING 208
SWIDTH 466 0
DWIDTH 14 0
BBX 0 0 0 0
BITMAP
ENDCHAR
STARTCHAR 00D1
ENCODING 209
SWIDTH 466 0
DWIDTH 14 0
BBX 0 0 0 0
BITMAP
ENDCHAR
STARTCHAR 00D2
ENCODING 210
SWIDTH 433 0
DWIDTH 13 0
BBX 11 26 1 0
BITMAP
1C00
0C00
0600
0700
0300
1F00
3F80
7FC0
E1C0
E0E0
E0E0
E0E0
E0E0
E0E0
E0E0
E0E0
E0E0
E0E0
E0E0
E0E0
E0E0
E0E0
E1C0
7FC0
3F80
1F00
ENDCHAR
STARTCHAR 00D3
ENCODING 211
SWIDTH 433 0
DWIDTH 13 0
BBX 11 26 1 0
BITMAP
0300
0600
0E00
0C00
1800
1F00
3F80
7FC0
E1C0
E0E0
E0E0
E0E0
E0E0
E0E0
E0E0
E0E0
E0E0
E0E0
E0E0
E0E0
E0E0
E0E0
E1C0
7FC0
3F80
1F00
ENDCHAR
STARTCHAR 00D4
ENCODING 212
SWIDTH 433 0
DWIDTH 13 0
BBX 11 26 1 0
BITMAP
0E00
1E00
1B00
3180
6180
1F00
3F80
7FC0
E1C0
E0E0
E0E0
E0E0
E0E0
E0E0
E0E0
E0E0
E0E0
E0E0
E0E0
E0E0
E0E0
E0E0
E1C0
7FC0
3F80
1F00
ENDCHAR
STARTCHAR 00D5
ENCODING 213
SWIDTH 433 0
DWIDTH 13 0
BBX 11 21 1 0
BITMAP
1F00
3F80
7FC0
E1C0
E0E0
E0E0
E0E0
E0E0
E0E0
E0E0
E0E0
E0E0
E0E0
E0E0
E0E0
E0E0
E0E0
E1C0
7FC0
3F80
1F00
ENDCHAR
STARTCHAR 00D6
ENCODING 214
SWIDTH 433 0
DWIDTH 13 0
BBX 11 26 1 0
BITMAP
1200
3F00
1B00
0000
0000
1F00
3F80
7FC0
E1C0
E0E0
E0E0
E0E0
E0E0
E0E0
E0E0
E0E0
E0E0
E0E0
E0E0
E0E0
E0E0
E0E0
E1C0
7FC0
3F80
1F00
ENDCHAR
STARTCHAR 00D7
ENCODING 215
SWIDTH 466 0
DWIDTH 14 0
BBX 0 0 0 0
BITMAP
ENDCHAR
STARTCHAR 00D8
ENCODING 216
SWIDTH 466 0
DWIDTH 14 0
BBX 0 0 0 0
BITMAP
ENDCHAR
STARTCHAR 00D9
ENCODING 217
SWIDTH 433 0
DWIDTH 13 0
BBX 11 26 1 0
BITMAP
1C00
0C00
0600
0700
0300
E0E0
E0E0
E0E0
E0E0
E0E0
E0E0
E0E0
E0E0
E0E0
E0E0
E0E0
E0E0
E0E0
E0E0
E0E0
E0E0
E0E0
E1C0
7FC0
3F80
1F00
ENDCHAR
STARTCHAR 00DA
ENCODING 218
SWIDTH 433 0
DWIDTH 13 0
BBX 11 26 1 0
BITMAP
0300
0600
0E00
0C00
1800
E0E0
E0E0
E0E0
E0E0
E0E0
E0E0
E0E0
E0E0
E0E0
E0E0
E0E0
E0E0
E0E0
E0E0
E0E0
E0E0
E0E0
E1C0
7FC0
3F80
1F00
ENDCHAR
STARTCHAR 00DB
ENCODING 219
SWIDTH 433 0
DWIDTH 13 0
BBX 11 26 1 0
BITMAP
0E00
1E00
1B00
3180
6180
E0E0
E0E0
E0E0
E0E0
E0E0
E0E0
E0E0
E0E0
E0E0
E0E0
E0E0
E0E0
E0E0
E0E0
E0E0
E0E0
E0E0
E1C0
7FC0
3F80
1F00
ENDCHAR
STARTCHAR 00DC
ENCODING 220
SWIDTH 433 0
DWIDTH 13 0
BBX 11 26 1 0
BITMAP
1200
3F00
1B00
0000
0000
E0E0
E0E0
E0E0
E0E0
E0E0
E0E0
E0E0
E0E0
E0E0
E0E0
E0E0
E0E0
E0E0
E0E0
E0E0
E0E0
E0E0
E1C0
7FC0
3F80
1F00
ENDCHAR
STARTCHAR 00DD
ENCODING 221
SWIDTH 466 0
DWIDTH 14 0
BBX 0 0 0 0
BITMAP
ENDCHAR
STARTCHAR 00DE
ENCODING 222
SWIDTH 466 0
DWIDTH 14 0
BBX 0 0 0 0
BITMAP
ENDCHAR
STARTCHAR 00DF
ENCODING 223
SWIDTH 433 0
DWIDTH 13 0
BBX 11 21 1 0
BITMAP
3E00
7F00
FF80
E380
E380
E380
EF80
EF80
EFC0
E1C0
E0E0
E0E0
E0E0
E0E0
E0E0
E0E0
E0E0
E1C0
EFC0
EF80
EF00
ENDCHAR
STARTCHAR 00E0
ENCODING 224
SWIDTH 466 0
DWIDTH 14 0
BBX 12 21 1 0
BITMAP
1C00
0C00
0600
0300
0000
1F00
3F80
7FC0
60C0
E0E0
E0E0
00E0
1FE0
7FE0
FFE0
E0E0
E0E0
E0E0
FFF0
7FF0
3F30
ENDCHAR
STARTCHAR 00E1
ENCODING 225
SWIDTH 466 0
DWIDTH 14 0
BBX 12 22 1 0
BITMAP
0700
0600
0C00
1800
1000
0000
1F00
3F80
7FC0
60C0
E0E0
E0E0
00E0
1FE0
7FE0
FFE0
E0E0
E0E0
E0E0
FFF0
7FF0
3F30
ENDCHAR
STARTCHAR 00E2
ENCODING 226
SWIDTH 466 0
DWIDTH 14 0
BBX 12 21 1 0
BITMAP
1E00
3E00
7300
6180
0000
1F00
3F80
7FC0
60C0
E0E0
E0E0
00E0
1FE0
7FE0
FFE0
E0E0
E0E0
E0E0
FFF0
7FF0
3F30
ENDCHAR
STARTCHAR 00E3
ENCODING 227
SWIDTH 466 0
DWIDTH 14 0
BBX 0 0 0 0
BITMAP
ENDCHAR
STARTCHAR 00E4
ENCODING 228
SWIDTH 466 0
DWIDTH 14 0
BBX 12 21 1 0
BITMAP
1200
3F00
1B00
0000
0000
1F00
3F80
7FC0
60C0
E0E0
E0E0
00E0
1FE0
7FE0
FFE0
E0E0
E0E0
E0E0
FFF0
7FF0
3F30
ENDCHAR
STARTCHAR 00E5
ENCODING 229
SWIDTH 466 0
DWIDTH 14 0
BBX 0 0 0 0
BITMAP
ENDCHAR
STARTCHAR 00E6
ENCODING 230
SWIDTH 600 0
DWIDTH 18 0
BBX 16 16 1 0
BITMAP
3E78
7FFE
FFFF
E387
E387
0387
1FFF
7FFF
FFFF
E380
E380
E387
E3C7
FFFE
7EFE
3C78
ENDCHAR
STARTCHAR 00E7
ENCODING 231
SWIDTH 433 0
DWIDTH 13 0
BBX 11 20 1 -4
BITMAP
1F00
3F80
7FC0
E1C0
E0E0
E000
E000
E000
E000
E000
E000
E0E0
E1C0
7FC0
3F80
1F00
0E00
3E00
3E00
3C00
ENDCHAR
STARTCHAR 00E8
ENCODING 232
SWIDTH 433 0
DWIDTH 13 0
BBX 11 21 1 0
BITMAP
1C00
0C00
0600
0300
0000
1F00
3F80
7FC0
E1C0
E0E0
E0E0
E0E0
FFE0
FFE0
FFE0
E000
E000
E1C0
7FC0
3F80
1F00
ENDCHAR
STARTCHAR 00E9
ENCODING 233
SWIDTH 433 0
DWIDTH 13 0
BBX 11 21 1 0
BITMAP
0700
0E00
0C00
1800
0000
1F00
3F80
7FC0
E1C0
E0E0
E0E0
FFE0
FFE0
FFE0
E000
E000
E000
E1C0
7FC0
3F80
1F00
ENDCHAR
STARTCHAR 00EA
ENCODING 234
SWIDTH 433 0
DWIDTH 13 0
BBX 11 21 1 0
BITMAP
0E00
1F00
3300
7180
0000
1F00
3F80
7FC0
E1C0
E0E0
E0E0
FFE0
FFE0
FFE0
E000
E000
E000
E1C0
7FC0
3F80
1F00
ENDCHAR
STARTCHAR 00EB
ENCODING 235
SWIDTH 433 0
DWIDTH 13 0
BBX 11 21 1 0
BITMAP
1200
3F00
1B00
0000
0000
1F00
3F80
7FC0
E1C0
E0E0
E0E0
FFE0
FFE0
FFE0
E000
E000
E000
E1C0
7FC0
3F80
1F00
ENDCHAR
STARTCHAR 00EC
ENCODING 236
SWIDTH 266 0
DWIDTH 8 0
BBX 5 21 1 0
BITMAP
E0
70
30
18
00
70
70
70
70
70
70
70
70
70
70
70
70
70
78
38
18
ENDCHAR
STARTCHAR 00ED
ENCODING 237
SWIDTH 266 0
DWIDTH 8 0
BBX 5 22 2 0
BITMAP
38
70
60
C0
80
00
E0
E0
E0
E0
E0
E0
E0
E0
E0
E0
E0
E0
E0
F0
70
30
ENDCHAR
STARTCHAR 00EE
ENCODING 238
SWIDTH 266 0
DWIDTH 8 0
BBX 7 21 0 0
BITMAP
38
7C
CC
C6
00
38
38
38
38
38
38
38
38
38
38
38
38
38
3C
1C
0C
ENDCHAR
STARTCHAR 00EF
ENCODING 239
SWIDTH 266 0
DWIDTH 8 0
BBX 6 21 1 0
BITMAP
CC
FC
48
00
00
70
70
70
70
70
70
70
70
70
70
70
70
70
38
38
18
ENDCHAR
STARTCHAR 00F0
ENCODING 240
SWIDTH 466 0
DWIDTH 14 0
BBX 0 0 0 0
BITMAP
ENDCHAR
STARTCHAR 00F1
ENCODING 241
SWIDTH 466 0
DWIDTH 14 0
BBX 0 0 0 0
BITMAP
ENDCHAR
STARTCHAR 00F2
ENCODING 242
SWIDTH 433 0
DWIDTH 13 0
BBX 11 26 1 0
BITMAP
3800
1C00
0E00
0600
0000
0000
0000
0000
0000
0000
1F00
3F80
7FC0
E1C0
E0E0
E0E0
E0E0
E0E0
E0E0
E0E0
E0E0
E0E0
E1C0
7FC0
3F80
1F00
ENDCHAR
STARTCHAR 00F3
ENCODING 243
SWIDTH 433 0
DWIDTH 13 0
BBX 11 22 1 0
BITMAP
0700
0600
0C00
1C00
1800
0000
1F00
3F80
7FC0
E1C0
E0E0
E0E0
E0E0
E0E0
E0E0
E0E0
E0E0
E0E0
E1C0
7FC0
3F80
1F00
ENDCHAR
STARTCHAR 00F4
ENCODING 244
SWIDTH 433 0
DWIDTH 13 0
BBX 11 21 1 0
BITMAP
0E00
1F00
3300
7180
0000
1F00
3F80
7FC0
E1C0
E0E0
E0E0
E0E0
E0E0
E0E0
E0E0
E0E0
E0E0
E1C0
7FC0
3F80
1F00
ENDCHAR
STARTCHAR 00F5
ENCODING 245
SWIDTH 433 0
DWIDTH 13 0
BBX 11 16 1 0
BITMAP
1F00
3F80
7FC0
E1C0
E0E0
E0E0
E0E0
E0E0
E0E0
E0E0
E0E0
E0E0
E1C0
7FC0
3F80
1F00
ENDCHAR
STARTCHAR 00F6
ENCODING 246
SWIDTH 433 0
DWIDTH 13 0
BBX 11 21 1 0
BITMAP
1200
3F00
1B00
0000
0000
1F00
3F80
7FC0
E1C0
E0E0
E0E0
E0E0
E0E0
E0E0
E0E0
E0E0
E0E0
E1C0
7FC0
3F80
1F00
ENDCHAR
STARTCHAR 00F7
ENCODING 247
SWIDTH 466 0
DWIDTH 14 0
BBX 8 12 3 2
BITMAP
18
38
10
00
00
FF
FF
FF
00
10
38
18
ENDCHAR
STARTCHAR 00F8
ENCODING 248
SWIDTH 433 0
DWIDTH 13 0
BBX 11 21 1 0
BITMAP
1FC0
3FC0
7FC0
E1C0
E3E0
E3E0
E7E0
E7E0
E6E0
EEE0
EEE0
ECE0
FCE0
FCE0
F8E0
F8E0
F0E0
F1C0
7FC0
7F80
FF00
ENDCHAR
STARTCHAR 00F9
ENCODING 249
SWIDTH 433 0
DWIDTH 13 0
BBX 11 21 1 0
BITMAP
1C00
0C00
0600
0300
0000
E0E0
E0E0
E0E0
E0E0
E0E0
E0E0
E0E0
E0E0
E0E0
E0E0
E0E0
E0E0
E1E0
7FE0
3FE0
1FE0
ENDCHAR
STARTCHAR 00FA
ENCODING 250
SWIDTH 433 0
DWIDTH 13 0
BBX 11 21 1 0
BITMAP
0700
0E00
0C00
1800
0000
E0E0
E0E0
E0E0
E0E0
E0E0
E0E0
E0E0
E0E0
E0E0
E0E0
E0E0
E0E0
E1E0
7FE0
3FE0
1FE0
ENDCHAR
STARTCHAR 00FB
ENCODING 251
SWIDTH 433 0
DWIDTH 13 0
BBX 11 21 1 0
BITMAP
0E00
1F00
3300
7180
0000
E0E0
E0E0
E0E0
E0E0
E0E0
E0E0
E0E0
E0E0
E0E0
E0E0
E0E0
E0E0
E1E0
7FE0
3FE0
1FE0
ENDCHAR
STARTCHAR 00FC
ENCODING 252
SWIDTH 433 0
DWIDTH 13 0
BBX 11 21 1 0
BITMAP
1200
3F00
1B00
0000
0000
E0E0
E0E0
E0E0
E0E0
E0E0
E0E0
E0E0
E0E0
E0E0
E0E0
E0E0
E0E0
E1E0
7FE0
3FE0
1FE0
ENDCHAR
STARTCHAR 00FD
ENCODING 253
SWIDTH 466 0
DWIDTH 14 0
BBX 0 0 0 0
BITMAP
ENDCHAR
STARTCHAR 00FE
ENCODING 254
SWIDTH 466 0
DWIDTH 14 0
BBX 0 0 0 0
BITMAP
ENDCHAR
STARTCHAR 00FF
ENCODING 255
SWIDTH 466 0
DWIDTH 14 0
BBX 0 0 0 0
BITMAP
ENDCHAR
STARTCHAR 0100
ENCODING 256
SWIDTH 466 0
DWIDTH 14 0
BBX 0 0 0 0
BITMAP
ENDCHAR
STARTCHAR 0101
ENCODING 257
SWIDTH 466 0
DWIDTH 14 0
BBX 0 0 0 0
BITMAP
ENDCHAR
STARTCHAR 0102
ENCODING 258
SWIDTH 466 0
DWIDTH 14 0
BBX 0 0 0 0
BITMAP
ENDCHAR
STARTCHAR 0103
ENCODING 259
SWIDTH 466 0
DWIDTH 14 0
BBX 0 0 0 0
BITMAP
ENDCHAR
STARTCHAR 0104
ENCODING 260
SWIDTH 466 0
DWIDTH 14 0
BBX 0 0 0 0
BITMAP
ENDCHAR
STARTCHAR 0105
ENCODING 261
SWIDTH 466 0
DWIDTH 14 0
BBX 0 0 0 0
BITMAP
ENDCHAR
STARTCHAR 0106
ENCODING 262
SWIDTH 466 0
DWIDTH 14 0
BBX 0 0 0 0
BITMAP
ENDCHAR
STARTCHAR 0107
ENCODING 263
SWIDTH 466 0
DWIDTH 14 0
BBX 0 0 0 0
BITMAP
ENDCHAR
STARTCHAR 0108
ENCODING 264
SWIDTH 466 0
DWIDTH 14 0
BBX 0 0 0 0
BITMAP
ENDCHAR
STARTCHAR 0109
ENCODING 265
SWIDTH 466 0
DWIDTH 14 0
BBX 0 0 0 0
BITMAP
ENDCHAR
STARTCHAR 010A
ENCODING 266
SWIDTH 466 0
DWIDTH 14 0
BBX 0 0 0 0
BITMAP
ENDCHAR
STARTCHAR 010B
ENCODING 267
SWIDTH 466 0
DWIDTH 14 0
BBX 0 0 0 0
BITMAP
ENDCHAR
STARTCHAR 010C
ENCODING 268
SWIDTH 466 0
DWIDTH 14 0
BBX 0 0 0 0
BITMAP
ENDCHAR
STARTCHAR 010D
ENCODING 269
SWIDTH 466 0
DWIDTH 14 0
BBX 0 0 0 0
BITMAP
ENDCHAR
STARTCHAR 010E
ENCODING 270
SWIDTH 466 0
DWIDTH 14 0
BBX 0 0 0 0
BITMAP
ENDCHAR
STARTCHAR 010F
ENCODING 271
SWIDTH 466 0
DWIDTH 14 0
BBX 0 0 0 0
BITMAP
ENDCHAR
STARTCHAR 0110
ENCODING 272
SWIDTH 466 0
DWIDTH 14 0
BBX 0 0 0 0
BITMAP
ENDCHAR
STARTCHAR 0111
ENCODING 273
SWIDTH 466 0
DWIDTH 14 0
BBX 0 0 0 0
BITMAP
ENDCHAR
STARTCHAR 0112
ENCODING 274
SWIDTH 466 0
DWIDTH 14 0
BBX 0 0 0 0
BITMAP
ENDCHAR
STARTCHAR 0113
ENCODING 275
SWIDTH 466 0
DWIDTH 14 0
BBX 0 0 0 0
BITMAP
ENDCHAR
STARTCHAR 0114
ENCODING 276
SWIDTH 466 0
DWIDTH 14 0
BBX 0 0 0 0
BITMAP
ENDCHAR
STARTCHAR 0115
ENCODING 277
SWIDTH 466 0
DWIDTH 14 0
BBX 0 0 0 0
BITMAP
ENDCHAR
STARTCHAR 0116
ENCODING 278
SWIDTH 466 0
DWIDTH 14 0
BBX 0 0 0 0
BITMAP
ENDCHAR
STARTCHAR 0117
ENCODING 279
SWIDTH 466 0
DWIDTH 14 0
BBX 0 0 0 0
BITMAP
ENDCHAR
STARTCHAR 0118
ENCODING 280
SWIDTH 466 0
DWIDTH 14 0
BBX 0 0 0 0
BITMAP
ENDCHAR
STARTCHAR 0119
ENCODING 281
SWIDTH 466 0
DWIDTH 14 0
BBX 0 0 0 0
BITMAP
ENDCHAR
STARTCHAR 011A
ENCODING 282
SWIDTH 466 0
DWIDTH 14 0
BBX 0 0 0 0
BITMAP
ENDCHAR
STARTCHAR 011B
ENCODING 283
SWIDTH 466 0
DWIDTH 14 0
BBX 0 0 0 0
BITMAP
ENDCHAR
STARTCHAR 011C
ENCODING 284
SWIDTH 466 0
DWIDTH 14 0
BBX 0 0 0 0
BITMAP
ENDCHAR
STARTCHAR 011D
ENCODING 285
SWIDTH 466 0
DWIDTH 14 0
BBX 0 0 0 0
BITMAP
ENDCHAR
STARTCHAR 011E
ENCODING 286
SWIDTH 466 0
DWIDTH 14 0
BBX 0 0 0 0
BITMAP
ENDCHAR
STARTCHAR 011F
ENCODING 287
SWIDTH 466 0
DWIDTH 14 0
BBX 0 0 0 0
BITMAP
ENDCHAR
STARTCHAR 0120
ENCODING 288
SWIDTH 466 0
DWIDTH 14 0
BBX 0 0 0 0
BITMAP
ENDCHAR
STARTCHAR 0121
ENCODING 289
SWIDTH 466 0
DWIDTH 14 0
BBX 0 0 0 0
BITMAP
ENDCHAR
STARTCHAR 0122
ENCODING 290
SWIDTH 466 0
DWIDTH 14 0
BBX 0 0 0 0
BITMAP
ENDCHAR
STARTCHAR 0123
ENCODING 291
SWIDTH 466 0
DWIDTH 14 0
BBX 0 0 0 0
BITMAP
ENDCHAR
STARTCHAR 0124
ENCODING 292
SWIDTH 466 0
DWIDTH 14 0
BBX 0 0 0 0
BITMAP
ENDCHAR
STARTCHAR 0125
ENCODING 293
SWIDTH 466 0
DWIDTH 14 0
BBX 0 0 0 0
BITMAP
ENDCHAR
STARTCHAR 0126
ENCODING 294
SWIDTH 466 0
DWIDTH 14 0
BBX 0 0 0 0
BITMAP
ENDCHAR
STARTCHAR 0127
ENCODING 295
SWIDTH 466 0
DWIDTH 14 0
BBX 0 0 0 0
BITMAP
ENDCHAR
STARTCHAR 0128
ENCODING 296
SWIDTH 466 0
DWIDTH 14 0
BBX 0 0 0 0
BITMAP
ENDCHAR
STARTCHAR 0129
ENCODING 297
SWIDTH 466 0
DWIDTH 14 0
BBX 0 0 0 0
BITMAP
ENDCHAR
STARTCHAR 012A
ENCODING 298
SWIDTH 466 0
DWIDTH 14 0
BBX 0 0 0 0
BITMAP
ENDCHAR
STARTCHAR 012B
ENCODING 299
SWIDTH 466 0
DWIDTH 14 0
BBX 0 0 0 0
BITMAP
ENDCHAR
STARTCHAR 012C
ENCODING 300
SWIDTH 466 0
DWIDTH 14 0
BBX 0 0 0 0
BITMAP
ENDCHAR
STARTCHAR 012D
ENCODING 301
SWIDTH 466 0
DWIDTH 14 0
BBX 0 0 0 0
BITMAP
ENDCHAR
STARTCHAR 012E
ENCODING 302
SWIDTH 466 0
DWIDTH 14 0
BBX 0 0 0 0
BITMAP
ENDCHAR
STARTCHAR 012F
ENCODING 303
SWIDTH 466 0
DWIDTH 14 0
BBX 0 0 0 0
BITMAP
ENDCHAR
STARTCHAR 0130
ENCODING 304
SWIDTH 466 0
DWIDTH 14 0
BBX 0 0 0 0
BITMAP
ENDCHAR
STARTCHAR 0131
ENCODING 305
SWIDTH 466 0
DWIDTH 14 0
BBX 0 0 0 0
BITMAP
ENDCHAR
STARTCHAR 0132
ENCODING 306
SWIDTH 466 0
DWIDTH 14 0
BBX 0 0 0 0
BITMAP
ENDCHAR
STARTCHAR 0133
ENCODING 307
SWIDTH 466 0
DWIDTH 14 0
BBX 0 0 0 0
BITMAP
ENDCHAR
STARTCHAR 0134
ENCODING 308
SWIDTH 466 0
DWIDTH 14 0
BBX 0 0 0 0
BITMAP
ENDCHAR
STARTCHAR 0135
ENCODING 309
SWIDTH 466 0
DWIDTH 14 0
BBX 0 0 0 0
BITMAP
ENDCHAR
STARTCHAR 0136
ENCODING 310
SWIDTH 466 0
DWIDTH 14 0
BBX 0 0 0 0
BITMAP
ENDCHAR
STARTCHAR 0137
ENCODING 311
SWIDTH 466 0
DWIDTH 14 0
BBX 0 0 0 0
BITMAP
ENDCHAR
STARTCHAR 0138
ENCODING 312
SWIDTH 466 0
DWIDTH 14 0
BBX 0 0 0 0
BITMAP
ENDCHAR
STARTCHAR 0139
ENCODING 313
SWIDTH 466 0
DWIDTH 14 0
BBX 0 0 0 0
BITMAP
ENDCHAR
STARTCHAR 013A
ENCODING 314
SWIDTH 466 0
DWIDTH 14 0
BBX 0 0 0 0
BITMAP
ENDCHAR
STARTCHAR 013B
ENCODING 315
SWIDTH 466 0
DWIDTH 14 0
BBX 0 0 0 0
BITMAP
ENDCHAR
STARTCHAR 013C
ENCODING 316
SWIDTH 466 0
DWIDTH 14 0
BBX 0 0 0 0
BITMAP
ENDCHAR
STARTCHAR 013D
ENCODING 317
SWIDTH 466 0
DWIDTH 14 0
BBX 0 0 0 0
BITMAP
ENDCHAR
STARTCHAR 013E
ENCODING 318
SWIDTH 466 0
DWIDTH 14 0
BBX 0 0 0 0
BITMAP
ENDCHAR
STARTCHAR 013F
ENCODING 319
SWIDTH 466 0
DWIDTH 14 0
BBX 0 0 0 0
BITMAP
ENDCHAR
STARTCHAR 0140
ENCODING 320
SWIDTH 466 0
DWIDTH 14 0
BBX 0 0 0 0
BITMAP
ENDCHAR
STARTCHAR 0141
ENCODING 321
SWIDTH 466 0
DWIDTH 14 0
BBX 0 0 0 0
BITMAP
ENDCHAR
STARTCHAR 0142
ENCODING 322
SWIDTH 466 0
DWIDTH 14 0
BBX 0 0 0 0
BITMAP
ENDCHAR
STARTCHAR 0143
ENCODING 323
SWIDTH 466 0
DWIDTH 14 0
BBX 0 0 0 0
BITMAP
ENDCHAR
STARTCHAR 0144
ENCODING 324
SWIDTH 466 0
DWIDTH 14 0
BBX 0 0 0 0
BITMAP
ENDCHAR
STARTCHAR 0145
ENCODING 325
SWIDTH 466 0
DWIDTH 14 0
BBX 0 0 0 0
BITMAP
ENDCHAR
STARTCHAR 0146
ENCODING 326
SWIDTH 466 0
DWIDTH 14 0
BBX 0 0 0 0
BITMAP
ENDCHAR
STARTCHAR 0147
ENCODING 327
SWIDTH 466 0
DWIDTH 14 0
BBX 0 0 0 0
BITMAP
ENDCHAR
STARTCHAR 0148
ENCODING 328
SWIDTH 466 0
DWIDTH 14 0
BBX 0 0 0 0
BITMAP
ENDCHAR
STARTCHAR 0149
ENCODING 329
SWIDTH 466 0
DWIDTH 14 0
BBX 0 0 0 0
BITMAP
ENDCHAR
STARTCHAR 014A
ENCODING 330
SWIDTH 466 0
DWIDTH 14 0
BBX 0 0 0 0
BITMAP
ENDCHAR
STARTCHAR 014B
ENCODING 331
SWIDTH 466 0
DWIDTH 14 0
BBX 0 0 0 0
BITMAP
ENDCHAR
STARTCHAR 014C
ENCODING 332
SWIDTH 466 0
DWIDTH 14 0
BBX 0 0 0 0
BITMAP
ENDCHAR
STARTCHAR 014D
ENCODING 333
SWIDTH 466 0
DWIDTH 14 0
BBX 0 0 0 0
BITMAP
ENDCHAR
STARTCHAR 014E
ENCODING 334
SWIDTH 466 0
DWIDTH 14 0
BBX 0 0 0 0
BITMAP
ENDCHAR
STARTCHAR 014F
ENCODING 335
SWIDTH 466 0
DWIDTH 14 0
BBX 0 0 0 0
BITMAP
ENDCHAR
STARTCHAR 0150
ENCODING 336
SWIDTH 466 0
DWIDTH 14 0
BBX 0 0 0 0
BITMAP
ENDCHAR
STARTCHAR 0151
ENCODING 337
SWIDTH 466 0
DWIDTH 14 0
BBX 0 0 0 0
BITMAP
ENDCHAR
STARTCHAR 0152
ENCODING 338
SWIDTH 466 0
DWIDTH 14 0
BBX 16 21 -1 0
BITMAP
3DFF
7FFF
FFFF
E3C0
E3C0
E3C0
E3C0
E3C0
E3C0
E3FE
E3FE
E3FE
E3C0
E3C0
E3C0
E3C0
E3C0
E3C0
FFFF
7FFF
3DFF
ENDCHAR
STARTCHAR 0153
ENCODING 339
SWIDTH 600 0
DWIDTH 18 0
BBX 15 16 1 0
BITMAP
3E78
7FFC
FFFE
E38E
E386
E386
E386
E3FE
E3FE
E3FE
E380
E386
E38E
FFFE
7FFC
3C78
ENDCHAR
STARTCHAR 0154
ENCODING 340
SWIDTH 466 0
DWIDTH 14 0
BBX 0 0 0 0
BITMAP
ENDCHAR
STARTCHAR 0155
ENCODING 341
SWIDTH 466 0
DWIDTH 14 0
BBX 0 0 0 0
BITMAP
ENDCHAR
STARTCHAR 0156
ENCODING 342
SWIDTH 466 0
DWIDTH 14 0
BBX 0 0 0 0
BITMAP
ENDCHAR
STARTCHAR 0157
ENCODING 343
SWIDTH 466 0
DWIDTH 14 0
BBX 0 0 0 0
BITMAP
ENDCHAR
STARTCHAR 0158
ENCODING 344
SWIDTH 466 0
DWIDTH 14 0
BBX 0 0 0 0
BITMAP
ENDCHAR
STARTCHAR 0159
ENCODING 345
SWIDTH 466 0
DWIDTH 14 0
BBX 0 0 0 0
BITMAP
ENDCHAR
STARTCHAR 015A
ENCODING 346
SWIDTH 466 0
DWIDTH 14 0
BBX 0 0 0 0
BITMAP
ENDCHAR
STARTCHAR 015B
ENCODING 347
SWIDTH 466 0
DWIDTH 14 0
BBX 0 0 0 0
BITMAP
ENDCHAR
STARTCHAR 015C
ENCODING 348
SWIDTH 466 0
DWIDTH 14 0
BBX 0 0 0 0
BITMAP
ENDCHAR
STARTCHAR 015D
ENCODING 349
SWIDTH 466 0
DWIDTH 14 0
BBX 0 0 0 0
BITMAP
ENDCHAR
STARTCHAR 015E
ENCODING 350
SWIDTH 466 0
DWIDTH 14 0
BBX 0 0 0 0
BITMAP
ENDCHAR
STARTCHAR 015F
ENCODING 351
SWIDTH 466 0
DWIDTH 14 0
BBX 0 0 0 0
BITMAP
ENDCHAR
STARTCHAR 0160
ENCODING 352
SWIDTH 466 0
DWIDTH 14 0
BBX 0 0 0 0
BITMAP
ENDCHAR
STARTCHAR 0161
ENCODING 353
SWIDTH 466 0
DWIDTH 14 0
BBX 0 0 0 0
BITMAP
ENDCHAR
STARTCHAR 0162
ENCODING 354
SWIDTH 466 0
DWIDTH 14 0
BBX 0 0 0 0
BITMAP
ENDCHAR
STARTCHAR 0163
ENCODING 355
SWIDTH 466 0
DWIDTH 14 0
BBX 0 0 0 0
BITMAP
ENDCHAR
STARTCHAR 0164
ENCODING 356
SWIDTH 466 0
DWIDTH 14 0
BBX 0 0 0 0
BITMAP
ENDCHAR
STARTCHAR 0165
ENCODING 357
SWIDTH 466 0
DWIDTH 14 0
BBX 0 0 0 0
BITMAP
ENDCHAR
STARTCHAR 0166
ENCODING 358
SWIDTH 466 0
DWIDTH 14 0
BBX 0 0 0 0
BITMAP
ENDCHAR
STARTCHAR 0167
ENCODING 359
SWIDTH 466 0
DWIDTH 14 0
BBX 0 0 0 0
BITMAP
ENDCHAR
STARTCHAR 0168
ENCODING 360
SWIDTH 466 0
DWIDTH 14 0
BBX 0 0 0 0
BITMAP
ENDCHAR
STARTCHAR 0169
ENCODING 361
SWIDTH 466 0
DWIDTH 14 0
BBX 0 0 0 0
BITMAP
ENDCHAR
STARTCHAR 016A
ENCODING 362
SWIDTH 466 0
DWIDTH 14 0
BBX 0 0 0 0
BITMAP
ENDCHAR
STARTCHAR 016B
ENCODING 363
SWIDTH 466 0
DWIDTH 14 0
BBX 0 0 0 0
BITMAP
ENDCHAR
STARTCHAR 016C
ENCODING 364
SWIDTH 466 0
DWIDTH 14 0
BBX 0 0 0 0
BITMAP
ENDCHAR
STARTCHAR 016D
ENCODING 365
SWIDTH 466 0
DWIDTH 14 0
BBX 0 0 0 0
BITMAP
ENDCHAR
STARTCHAR 016E
ENCODING 366
SWIDTH 466 0
DWIDTH 14 0
BBX 0 0 0 0
BITMAP
ENDCHAR
STARTCHAR 016F
ENCODING 367
SWIDTH 466 0
DWIDTH 14 0
BBX 0 0 0 0
BITMAP
ENDCHAR
STARTCHAR 0170
ENCODING 368
SWIDTH 466 0
DWIDTH 14 0
BBX 0 0 0 0
BITMAP
ENDCHAR
STARTCHAR 0171
ENCODING 369
SWIDTH 466 0
DWIDTH 14 0
BBX 0 0 0 0
BITMAP
ENDCHAR
STARTCHAR 0172
ENCODING 370
SWIDTH 466 0
DWIDTH 14 0
BBX 0 0 0 0
BITMAP
ENDCHAR
STARTCHAR 0173
ENCODING 371
SWIDTH 466 0
DWIDTH 14 0
BBX 0 0 0 0
BITMAP
ENDCHAR
STARTCHAR 0174
ENCODING 372
SWIDTH 466 0
DWIDTH 14 0
BBX 0 0 0 0
BITMAP
ENDCHAR
STARTCHAR 0175
ENCODING 373
SWIDTH 466 0
DWIDTH 14 0
BBX 0 0 0 0
BITMAP
ENDCHAR
STARTCHAR 0176
ENCODING 374
SWIDTH 466 0
DWIDTH 14 0
BBX 0 0 0 0
BITMAP
ENDCHAR
STARTCHAR 0177
ENCODING 375
SWIDTH 466 0
DWIDTH 14 0
BBX 0 0 0 0
BITMAP
ENDCHAR
STARTCHAR 0178
ENCODING 376
SWIDTH 466 0
DWIDTH 14 0
BBX 0 0 0 0
BITMAP
ENDCHAR
STARTCHAR 0179
ENCODING 377
SWIDTH 466 0
DWIDTH 14 0
BBX 0 0 0 0
BITMAP
ENDCHAR
STARTCHAR 017A
ENCODING 378
SWIDTH 466 0
DWIDTH 14 0
BBX 0 0 0 0
BITMAP
ENDCHAR
STARTCHAR 017B
ENCODING 379
SWIDTH 466 0
DWIDTH 14 0
BBX 0 0 0 0
BITMAP
ENDCHAR
STARTCHAR 017C
ENCODING 380
SWIDTH 466 0
DWIDTH 14 0
BBX 0 0 0 0
BITMAP
ENDCHAR
STARTCHAR 017D
ENCODING 381
SWIDTH 466 0
DWIDTH 14 0
BBX 0 0 0 0
BITMAP
ENDCHAR
STARTCHAR 017E
ENCODING 382
SWIDTH 466 0
DWIDTH 14 0
BBX 0 0 0 0
BITMAP
ENDCHAR
STARTCHAR 017F
ENCODING 383
SWIDTH 466 0
DWIDTH 14 0
BBX 0 0 0 0
BITMAP
ENDCHAR
STARTCHAR 0180
ENCODING 384
SWIDTH 466 0
DWIDTH 14 0
BBX 0 0 0 0
BITMAP
ENDCHAR
STARTCHAR 0181
ENCODING 385
SWIDTH 466 0
DWIDTH 14 0
BBX 0 0 0 0
BITMAP
ENDCHAR
STARTCHAR 0182
ENCODING 386
SWIDTH 466 0
DWIDTH 14 0
BBX 0 0 0 0
BITMAP
ENDCHAR
STARTCHAR 0183
ENCODING 387
SWIDTH 466 0
DWIDTH 14 0
BBX 0 0 0 0
BITMAP
ENDCHAR
STARTCHAR 0184
ENCODING 388
SWIDTH 466 0
DWIDTH 14 0
BBX 0 0 0 0
BITMAP
ENDCHAR
STARTCHAR 0185
ENCODING 389
SWIDTH 466 0
DWIDTH 14 0
BBX 0 0 0 0
BITMAP
ENDCHAR
STARTCHAR 0186
ENCODING 390
SWIDTH 466 0
DWIDTH 14 0
BBX 0 0 0 0
BITMAP
ENDCHAR
STARTCHAR 0187
ENCODING 391
SWIDTH 466 0
DWIDTH 14 0
BBX 0 0 0 0
BITMAP
ENDCHAR
STARTCHAR 0188
ENCODING 392
SWIDTH 466 0
DWIDTH 14 0
BBX 0 0 0 0
BITMAP
ENDCHAR
STARTCHAR 0189
ENCODING 393
SWIDTH 466 0
DWIDTH 14 0
BBX 0 0 0 0
BITMAP
ENDCHAR
STARTCHAR 018A
ENCODING 394
SWIDTH 466 0
DWIDTH 14 0
BBX 0 0 0 0
BITMAP
ENDCHAR
STARTCHAR 018B
ENCODING 395
SWIDTH 466 0
DWIDTH 14 0
BBX 0 0 0 0
BITMAP
ENDCHAR
STARTCHAR 018C
ENCODING 396
SWIDTH 466 0
DWIDTH 14 0
BBX 0 0 0 0
BITMAP
ENDCHAR
STARTCHAR 018D
ENCODING 397
SWIDTH 466 0
DWIDTH 14 0
BBX 0 0 0 0
BITMAP
ENDCHAR
STARTCHAR 018E
ENCODING 398
SWIDTH 466 0
DWIDTH 14 0
BBX 0 0 0 0
BITMAP
ENDCHAR
STARTCHAR 018F
ENCODING 399
SWIDTH 466 0
DWIDTH 14 0
BBX 0 0 0 0
BITMAP
ENDCHAR
STARTCHAR 0190
ENCODING 400
SWIDTH 466 0
DWIDTH 14 0
BBX 0 0 0 0
BITMAP
ENDCHAR
STARTCHAR 0191
ENCODING 401
SWIDTH 466 0
DWIDTH 14 0
BBX 0 0 0 0
BITMAP
ENDCHAR
STARTCHAR 0192
ENCODING 402
SWIDTH 466 0
DWIDTH 14 0
BBX 0 0 0 0
BITMAP
ENDCHAR
STARTCHAR 0193
ENCODING 403
SWIDTH 466 0
DWIDTH 14 0
BBX 0 0 0 0
BITMAP
ENDCHAR
STARTCHAR 0194
ENCODING 404
SWIDTH 466 0
DWIDTH 14 0
BBX 0 0 0 0
BITMAP
ENDCHAR
STARTCHAR 0195
ENCODING 405
SWIDTH 466 0
DWIDTH 14 0
BBX 0 0 0 0
BITMAP
ENDCHAR
STARTCHAR 0196
ENCODING 406
SWIDTH 466 0
DWIDTH 14 0
BBX 0 0 0 0
BITMAP
ENDCHAR
STARTCHAR 0197
ENCODING 407
SWIDTH 466 0
DWIDTH 14 0
BBX 0 0 0 0
BITMAP
ENDCHAR
STARTCHAR 0198
ENCODING 408
SWIDTH 466 0
DWIDTH 14 0
BBX 0 0 0 0
BITMAP
ENDCHAR
STARTCHAR 0199
ENCODING 409
SWIDTH 466 0
DWIDTH 14 0
BBX 0 0 0 0
BITMAP
ENDCHAR
STARTCHAR 019A
ENCODING 410
SWIDTH 466 0
DWIDTH 14 0
BBX 0 0 0 0
BITMAP
ENDCHAR
STARTCHAR 019B
ENCODING 411
SWIDTH 466 0
DWIDTH 14 0
BBX 0 0 0 0
BITMAP
ENDCHAR
STARTCHAR 019C
ENCODING 412
SWIDTH 466 0
DWIDTH 14 0
BBX 0 0 0 0
BITMAP
ENDCHAR
STARTCHAR 019D
ENCODING 413
SWIDTH 466 0
DWIDTH 14 0
BBX 0 0 0 0
BITMAP
ENDCHAR
STARTCHAR 019E
ENCODING 414
SWIDTH 466 0
DWIDTH 14 0
BBX 0 0 0 0
BITMAP
ENDCHAR
STARTCHAR 019F
ENCODING 415
SWIDTH 466 0
DWIDTH 14 0
BBX 0 0 0 0
BITMAP
ENDCHAR
STARTCHAR 01A0
ENCODING 416
SWIDTH 466 0
DWIDTH 14 0
BBX 0 0 0 0
BITMAP
ENDCHAR
STARTCHAR 01A1
ENCODING 417
SWIDTH 466 0
DWIDTH 14 0
BBX 0 0 0 0
BITMAP
ENDCHAR
STARTCHAR 01A2
ENCODING 418
SWIDTH 466 0
DWIDTH 14 0
BBX 0 0 0 0
BITMAP
ENDCHAR
STARTCHAR 01A3
ENCODING 419
SWIDTH 466 0
DWIDTH 14 0
BBX 0 0 0 0
BITMAP
ENDCHAR
STARTCHAR 01A4
ENCODING 420
SWIDTH 466 0
DWIDTH 14 0
BBX 0 0 0 0
BITMAP
ENDCHAR
STARTCHAR 01A5
ENCODING 421
SWIDTH 466 0
DWIDTH 14 0
BBX 0 0 0 0
BITMAP
ENDCHAR
STARTCHAR 01A6
ENCODING 422
SWIDTH 466 0
DWIDTH 14 0
BBX 0 0 0 0
BITMAP
ENDCHAR
STARTCHAR 01A7
ENCODING 423
SWIDTH 466 0
DWIDTH 14 0
BBX 0 0 0 0
BITMAP
ENDCHAR
STARTCHAR 01A8
ENCODING 424
SWIDTH 466 0
DWIDTH 14 0
BBX 0 0 0 0
BITMAP
ENDCHAR
STARTCHAR 01A9
ENCODING 425
SWIDTH 466 0
DWIDTH 14 0
BBX 0 0 0 0
BITMAP
ENDCHAR
STARTCHAR 01AA
ENCODING 426
SWIDTH 466 0
DWIDTH 14 0
BBX 0 0 0 0
BITMAP
ENDCHAR
STARTCHAR 01AB
ENCODING 427
SWIDTH 466 0
DWIDTH 14 0
BBX 0 0 0 0
BITMAP
ENDCHAR
STARTCHAR 01AC
ENCODING 428
SWIDTH 466 0
DWIDTH 14 0
BBX 0 0 0 0
BITMAP
ENDCHAR
STARTCHAR 01AD
ENCODING 429
SWIDTH 466 0
DWIDTH 14 0
BBX 0 0 0 0
BITMAP
ENDCHAR
STARTCHAR 01AE
ENCODING 430
SWIDTH 466 0
DWIDTH 14 0
BBX 0 0 0 0
BITMAP
ENDCHAR
STARTCHAR 01AF
ENCODING 431
SWIDTH 466 0
DWIDTH 14 0
BBX 0 0 0 0
BITMAP
ENDCHAR
STARTCHAR 01B0
ENCODING 432
SWIDTH 466 0
DWIDTH 14 0
BBX 0 0 0 0
BITMAP
ENDCHAR
STARTCHAR 01B1
ENCODING 433
SWIDTH 466 0
DWIDTH 14 0
BBX 0 0 0 0
BITMAP
ENDCHAR
STARTCHAR 01B2
ENCODING 434
SWIDTH 466 0
DWIDTH 14 0
BBX 0 0 0 0
BITMAP
ENDCHAR
STARTCHAR 01B3
ENCODING 435
SWIDTH 466 0
DWIDTH 14 0
BBX 0 0 0 0
BITMAP
ENDCHAR
STARTCHAR 01B4
ENCODING 436
SWIDTH 466 0
DWIDTH 14 0
BBX 0 0 0 0
BITMAP
ENDCHAR
STARTCHAR 01B5
ENCODING 437
SWIDTH 466 0
DWIDTH 14 0
BBX 0 0 0 0
BITMAP
ENDCHAR
STARTCHAR 01B6
ENCODING 438
SWIDTH 466 0
DWIDTH 14 0
BBX 0 0 0 0
BITMAP
ENDCHAR
STARTCHAR 01B7
ENCODING 439
SWIDTH 466 0
DWIDTH 14 0
BBX 0 0 0 0
BITMAP
ENDCHAR
STARTCHAR 01B8
ENCODING 440
SWIDTH 466 0
DWIDTH 14 0
BBX 0 0 0 0
BITMAP
ENDCHAR
STARTCHAR 01B9
ENCODING 441
SWIDTH 466 0
DWIDTH 14 0
BBX 0 0 0 0
BITMAP
ENDCHAR
STARTCHAR 01BA
ENCODING 442
SWIDTH 466 0
DWIDTH 14 0
BBX 0 0 0 0
BITMAP
ENDCHAR
STARTCHAR 01BB
ENCODING 443
SWIDTH 466 0
DWIDTH 14 0
BBX 0 0 0 0
BITMAP
ENDCHAR
STARTCHAR 01BC
ENCODING 444
SWIDTH 466 0
DWIDTH 14 0
BBX 0 0 0 0
BITMAP
ENDCHAR
STARTCHAR 01BD
ENCODING 445
SWIDTH 466 0
DWIDTH 14 0
BBX 0 0 0 0
BITMAP
ENDCHAR
STARTCHAR 01BE
ENCODING 446
SWIDTH 466 0
DWIDTH 14 0
BBX 0 0 0 0
BITMAP
ENDCHAR
STARTCHAR 01BF
ENCODING 447
SWIDTH 466 0
DWIDTH 14 0
BBX 0 0 0 0
BITMAP
ENDCHAR
STARTCHAR 01C0
ENCODING 448
SWIDTH 466 0
DWIDTH 14 0
BBX 0 0 0 0
BITMAP
ENDCHAR
STARTCHAR 01C1
ENCODING 449
SWIDTH 466 0
DWIDTH 14 0
BBX 0 0 0 0
BITMAP
ENDCHAR
STARTCHAR 01C2
ENCODING 450
SWIDTH 466 0
DWIDTH 14 0
BBX 0 0 0 0
BITMAP
ENDCHAR
STARTCHAR 01C3
ENCODING 451
SWIDTH 466 0
DWIDTH 14 0
BBX 0 0 0 0
BITMAP
ENDCHAR
STARTCHAR 01C4
ENCODING 452
SWIDTH 466 0
DWIDTH 14 0
BBX 0 0 0 0
BITMAP
ENDCHAR
STARTCHAR 01C5
ENCODING 453
SWIDTH 466 0
DWIDTH 14 0
BBX 0 0 0 0
BITMAP
ENDCHAR
STARTCHAR 01C6
ENCODING 454
SWIDTH 466 0
DWIDTH 14 0
BBX 0 0 0 0
BITMAP
ENDCHAR
STARTCHAR 01C7
ENCODING 455
SWIDTH 466 0
DWIDTH 14 0
BBX 0 0 0 0
BITMAP
ENDCHAR
STARTCHAR 01C8
ENCODING 456
SWIDTH 466 0
DWIDTH 14 0
BBX 0 0 0 0
BITMAP
ENDCHAR
STARTCHAR 01C9
ENCODING 457
SWIDTH 466 0
DWIDTH 14 0
BBX 0 0 0 0
BITMAP
ENDCHAR
STARTCHAR 01CA
ENCODING 458
SWIDTH 466 0
DWIDTH 14 0
BBX 0 0 0 0
BITMAP
ENDCHAR
STARTCHAR 01CB
ENCODING 459
SWIDTH 466 0
DWIDTH 14 0
BBX 0 0 0 0
BITMAP
ENDCHAR
STARTCHAR 01CC
ENCODING 460
SWIDTH 466 0
DWIDTH 14 0
BBX 0 0 0 0
BITMAP
ENDCHAR
STARTCHAR 01CD
ENCODING 461
SWIDTH 466 0
DWIDTH 14 0
BBX 0 0 0 0
BITMAP
ENDCHAR
STARTCHAR 01CE
ENCODING 462
SWIDTH 466 0
DWIDTH 14 0
BBX 0 0 0 0
BITMAP
ENDCHAR
STARTCHAR 01CF
ENCODING 463
SWIDTH 466 0
DWIDTH 14 0
BBX 0 0 0 0
BITMAP
ENDCHAR
STARTCHAR 01D0
ENCODING 464
SWIDTH 466 0
DWIDTH 14 0
BBX 0 0 0 0
BITMAP
ENDCHAR
STARTCHAR 01D1
ENCODING 465
SWIDTH 466 0
DWIDTH 14 0
BBX 0 0 0 0
BITMAP
ENDCHAR
STARTCHAR 01D2
ENCODING 466
SWIDTH 466 0
DWIDTH 14 0
BBX 0 0 0 0
BITMAP
ENDCHAR
STARTCHAR 01D3
ENCODING 467
SWIDTH 466 0
DWIDTH 14 0
BBX 0 0 0 0
BITMAP
ENDCHAR
STARTCHAR 01D4
ENCODING 468
SWIDTH 466 0
DWIDTH 14 0
BBX 0 0 0 0
BITMAP
ENDCHAR
STARTCHAR 01D5
ENCODING 469
SWIDTH 466 0
DWIDTH 14 0
BBX 0 0 0 0
BITMAP
ENDCHAR
STARTCHAR 01D6
ENCODING 470
SWIDTH 466 0
DWIDTH 14 0
BBX 0 0 0 0
BITMAP
ENDCHAR
STARTCHAR 01D7
ENCODING 471
SWIDTH 466 0
DWIDTH 14 0
BBX 0 0 0 0
BITMAP
ENDCHAR
STARTCHAR 01D8
ENCODING 472
SWIDTH 466 0
DWIDTH 14 0
BBX 0 0 0 0
BITMAP
ENDCHAR
STARTCHAR 01D9
ENCODING 473
SWIDTH 466 0
DWIDTH 14 0
BBX 0 0 0 0
BITMAP
ENDCHAR
STARTCHAR 01DA
ENCODING 474
SWIDTH 466 0
DWIDTH 14 0
BBX 0 0 0 0
BITMAP
ENDCHAR
STARTCHAR 01DB
ENCODING 475
SWIDTH 466 0
DWIDTH 14 0
BBX 0 0 0 0
BITMAP
ENDCHAR
STARTCHAR 01DC
ENCODING 476
SWIDTH 466 0
DWIDTH 14 0
BBX 0 0 0 0
BITMAP
ENDCHAR
STARTCHAR 01DD
ENCODING 477
SWIDTH 466 0
DWIDTH 14 0
BBX 0 0 0 0
BITMAP
ENDCHAR
STARTCHAR 01DE
ENCODING 478
SWIDTH 466 0
DWIDTH 14 0
BBX 0 0 0 0
BITMAP
ENDCHAR
STARTCHAR 01DF
ENCODING 479
SWIDTH 466 0
DWIDTH 14 0
BBX 0 0 0 0
BITMAP
ENDCHAR
STARTCHAR 01E0
ENCODING 480
SWIDTH 466 0
DWIDTH 14 0
BBX 0 0 0 0
BITMAP
ENDCHAR
STARTCHAR 01E1
ENCODING 481
SWIDTH 466 0
DWIDTH 14 0
BBX 0 0 0 0
BITMAP
ENDCHAR
STARTCHAR 01E2
ENCODING 482
SWIDTH 466 0
DWIDTH 14 0
BBX 0 0 0 0
BITMAP
ENDCHAR
STARTCHAR 01E3
ENCODING 483
SWIDTH 466 0
DWIDTH 14 0
BBX 0 0 0 0
BITMAP
ENDCHAR
STARTCHAR 01E4
ENCODING 484
SWIDTH 466 0
DWIDTH 14 0
BBX 0 0 0 0
BITMAP
ENDCHAR
STARTCHAR 01E5
ENCODING 485
SWIDTH 466 0
DWIDTH 14 0
BBX 0 0 0 0
BITMAP
ENDCHAR
STARTCHAR 01E6
ENCODING 486
SWIDTH 466 0
DWIDTH 14 0
BBX 0 0 0 0
BITMAP
ENDCHAR
STARTCHAR 01E7
ENCODING 487
SWIDTH 466 0
DWIDTH 14 0
BBX 0 0 0 0
BITMAP
ENDCHAR
STARTCHAR 01E8
ENCODING 488
SWIDTH 466 0
DWIDTH 14 0
BBX 0 0 0 0
BITMAP
ENDCHAR
STARTCHAR 01E9
ENCODING 489
SWIDTH 466 0
DWIDTH 14 0
BBX 0 0 0 0
BITMAP
ENDCHAR
STARTCHAR 01EA
ENCODING 490
SWIDTH 466 0
DWIDTH 14 0
BBX 0 0 0 0
BITMAP
ENDCHAR
STARTCHAR 01EB
ENCODING 491
SWIDTH 466 0
DWIDTH 14 0
BBX 0 0 0 0
BITMAP
ENDCHAR
STARTCHAR 01EC
ENCODING 492
SWIDTH 466 0
DWIDTH 14 0
BBX 0 0 0 0
BITMAP
ENDCHAR
STARTCHAR 01ED
ENCODING 493
SWIDTH 466 0
DWIDTH 14 0
BBX 0 0 0 0
BITMAP
ENDCHAR
STARTCHAR 01EE
ENCODING 494
SWIDTH 466 0
DWIDTH 14 0
BBX 0 0 0 0
BITMAP
ENDCHAR
STARTCHAR 01EF
ENCODING 495
SWIDTH 466 0
DWIDTH 14 0
BBX 0 0 0 0
BITMAP
ENDCHAR
STARTCHAR 01F0
ENCODING 496
SWIDTH 466 0
DWIDTH 14 0
BBX 0 0 0 0
BITMAP
ENDCHAR
STARTCHAR 01F1
ENCODING 497
SWIDTH 466 0
DWIDTH 14 0
BBX 0 0 0 0
BITMAP
ENDCHAR
STARTCHAR 01F2
ENCODING 498
SWIDTH 466 0
DWIDTH 14 0
BBX 0 0 0 0
BITMAP
ENDCHAR
STARTCHAR 01F3
ENCODING 499
SWIDTH 466 0
DWIDTH 14 0
BBX 0 0 0 0
BITMAP
ENDCHAR
STARTCHAR 01F4
ENCODING 500
SWIDTH 466 0
DWIDTH 14 0
BBX 0 0 0 0
BITMAP
ENDCHAR
STARTCHAR 01F5
ENCODING 501
SWIDTH 466 0
DWIDTH 14 0
BBX 0 0 0 0
BITMAP
ENDCHAR
STARTCHAR 01F6
ENCODING 502
SWIDTH 466 0
DWIDTH 14 0
BBX 0 0 0 0
BITMAP
ENDCHAR
STARTCHAR 01F7
ENCODING 503
SWIDTH 466 0
DWIDTH 14 0
BBX 0 0 0 0
BITMAP
ENDCHAR
STARTCHAR 01F8
ENCODING 504
SWIDTH 466 0
DWIDTH 14 0
BBX 0 0 0 0
BITMAP
ENDCHAR
STARTCHAR 01F9
ENCODING 505
SWIDTH 466 0
DWIDTH 14 0
BBX 0 0 0 0
BITMAP
ENDCHAR
STARTCHAR 01FA
ENCODING 506
SWIDTH 466 0
DWIDTH 14 0
BBX 0 0 0 0
BITMAP
ENDCHAR
STARTCHAR 01FB
ENCODING 507
SWIDTH 466 0
DWIDTH 14 0
BBX 0 0 0 0
BITMAP
ENDCHAR
STARTCHAR 01FC
ENCODING 508
SWIDTH 466 0
DWIDTH 14 0
BBX 0 0 0 0
BITMAP
ENDCHAR
STARTCHAR 01FD
ENCODING 509
SWIDTH 466 0
DWIDTH 14 0
BBX 0 0 0 0
BITMAP
ENDCHAR
STARTCHAR 01FE
ENCODING 510
SWIDTH 466 0
DWIDTH 14 0
BBX 0 0 0 0
BITMAP
ENDCHAR
STARTCHAR 01FF
ENCODING 511
SWIDTH 466 0
DWIDTH 14 0
BBX 0 0 0 0
BITMAP
ENDCHAR
STARTCHAR 0200
ENCODING 512
SWIDTH 466 0
DWIDTH 14 0
BBX 0 0 0 0
BITMAP
ENDCHAR
STARTCHAR 0201
ENCODING 513
SWIDTH 466 0
DWIDTH 14 0
BBX 0 0 0 0
BITMAP
ENDCHAR
STARTCHAR 0202
ENCODING 514
SWIDTH 466 0
DWIDTH 14 0
BBX 0 0 0 0
BITMAP
ENDCHAR
STARTCHAR 0203
ENCODING 515
SWIDTH 466 0
DWIDTH 14 0
BBX 0 0 0 0
BITMAP
ENDCHAR
STARTCHAR 0204
ENCODING 516
SWIDTH 466 0
DWIDTH 14 0
BBX 0 0 0 0
BITMAP
ENDCHAR
STARTCHAR 0205
ENCODING 517
SWIDTH 466 0
DWIDTH 14 0
BBX 0 0 0 0
BITMAP
ENDCHAR
STARTCHAR 0206
ENCODING 518
SWIDTH 466 0
DWIDTH 14 0
BBX 0 0 0 0
BITMAP
ENDCHAR
STARTCHAR 0207
ENCODING 519
SWIDTH 466 0
DWIDTH 14 0
BBX 0 0 0 0
BITMAP
ENDCHAR
STARTCHAR 0208
ENCODING 520
SWIDTH 466 0
DWIDTH 14 0
BBX 0 0 0 0
BITMAP
ENDCHAR
STARTCHAR 0209
ENCODING 521
SWIDTH 466 0
DWIDTH 14 0
BBX 0 0 0 0
BITMAP
ENDCHAR
STARTCHAR 020A
ENCODING 522
SWIDTH 466 0
DWIDTH 14 0
BBX 0 0 0 0
BITMAP
ENDCHAR
STARTCHAR 020B
ENCODING 523
SWIDTH 466 0
DWIDTH 14 0
BBX 0 0 0 0
BITMAP
ENDCHAR
STARTCHAR 020C
ENCODING 524
SWIDTH 466 0
DWIDTH 14 0
BBX 0 0 0 0
BITMAP
ENDCHAR
STARTCHAR 020D
ENCODING 525
SWIDTH 466 0
DWIDTH 14 0
BBX 0 0 0 0
BITMAP
ENDCHAR
STARTCHAR 020E
ENCODING 526
SWIDTH 466 0
DWIDTH 14 0
BBX 0 0 0 0
BITMAP
ENDCHAR
STARTCHAR 020F
ENCODING 527
SWIDTH 466 0
DWIDTH 14 0
BBX 0 0 0 0
BITMAP
ENDCHAR
STARTCHAR 0210
ENCODING 528
SWIDTH 466 0
DWIDTH 14 0
BBX 0 0 0 0
BITMAP
ENDCHAR
STARTCHAR 0211
ENCODING 529
SWIDTH 466 0
DWIDTH 14 0
BBX 0 0 0 0
BITMAP
ENDCHAR
STARTCHAR 0212
ENCODING 530
SWIDTH 466 0
DWIDTH 14 0
BBX 0 0 0 0
BITMAP
ENDCHAR
STARTCHAR 0213
ENCODING 531
SWIDTH 466 0
DWIDTH 14 0
BBX 0 0 0 0
BITMAP
ENDCHAR
STARTCHAR 0214
ENCODING 532
SWIDTH 466 0
DWIDTH 14 0
BBX 0 0 0 0
BITMAP
ENDCHAR
STARTCHAR 0215
ENCODING 533
SWIDTH 466 0
DWIDTH 14 0
BBX 0 0 0 0
BITMAP
ENDCHAR
STARTCHAR 0216
ENCODING 534
SWIDTH 466 0
DWIDTH 14 0
BBX 0 0 0 0
BITMAP
ENDCHAR
STARTCHAR 0217
ENCODING 535
SWIDTH 466 0
DWIDTH 14 0
BBX 0 0 0 0
BITMAP
ENDCHAR
STARTCHAR 0218
ENCODING 536
SWIDTH 466 0
DWIDTH 14 0
BBX 0 0 0 0
BITMAP
ENDCHAR
STARTCHAR 0219
ENCODING 537
SWIDTH 466 0
DWIDTH 14 0
BBX 0 0 0 0
BITMAP
ENDCHAR
STARTCHAR 021A
ENCODING 538
SWIDTH 466 0
DWIDTH 14 0
BBX 0 0 0 0
BITMAP
ENDCHAR
STARTCHAR 021B
ENCODING 539
SWIDTH 466 0
DWIDTH 14 0
BBX 0 0 0 0
BITMAP
ENDCHAR
STARTCHAR 021C
ENCODING 540
SWIDTH 466 0
DWIDTH 14 0
BBX 0 0 0 0
BITMAP
ENDCHAR
STARTCHAR 021D
ENCODING 541
SWIDTH 466 0
DWIDTH 14 0
BBX 0 0 0 0
BITMAP
ENDCHAR
STARTCHAR 021E
ENCODING 542
SWIDTH 466 0
DWIDTH 14 0
BBX 0 0 0 0
BITMAP
ENDCHAR
STARTCHAR 021F
ENCODING 543
SWIDTH 466 0
DWIDTH 14 0
BBX 0 0 0 0
BITMAP
ENDCHAR
STARTCHAR 20AC
ENCODING 8364
SWIDTH 533 0
DWIDTH 16 0
BBX 13 21 1 0
BITMAP
03C0
0FF0
0FF8
1C38
1C18
1C00
1C00
7FF0
7FE0
FFE0
1C00
7FC0
7FC0
FFC0
1C00
1C00
1C18
1C38
0FF8
07F0
03E0
ENDCHAR
STARTCHAR 2190
ENCODING 8592
SWIDTH 733 0
DWIDTH 22 0
BBX 18 15 2 0
BITMAP
030000
078000
0F0000
1E0000
3C0000
780000
FFFFC0
FFFFC0
7FFFC0
380000
1C0000
0E0000
070000
038000
010000
ENDCHAR
STARTCHAR 2191
ENCODING 8593
SWIDTH 633 0
DWIDTH 19 0
BBX 15 19 2 -2
BITMAP
0300
0780
0FC0
1FE0
3FF0
7BB8
F39C
E38E
4384
0380
0380
0380
0380
0380
0380
0380
0380
0380
0380
ENDCHAR
STARTCHAR 2192
ENCODING 8594
SWIDTH 733 0
DWIDTH 22 0
BBX 19 15 1 0
BITMAP
001800
003C00
001E00
000F00
000780
0003C0
FFFFE0
FFFFE0
FFFFC0
000780
000F00
001E00
003C00
003800
001000
ENDCHAR
STARTCHAR 2193
ENCODING 8595
SWIDTH 633 0
DWIDTH 19 0
BBX 15 18 2 -2
BITMAP
0380
0380
0380
0380
0380
0380
0380
0380
0380
4384
E38E
F39C
7BB8
3FF0
1FE0
0FC0
0780
0300
ENDCHAR
STARTCHAR 2196
ENCODING 8598
SWIDTH 566 0
DWIDTH 17 0
BBX 14 14 1 0
BITMAP
FFE0
FFE0
FFE0
F800
FC00
EE00
E700
E380
E1C0
E0E0
E070
0038
001C
000C
ENDCHAR
STARTCHAR 2197
ENCODING 8599
SWIDTH 566 0
DWIDTH 17 0
BBX 14 14 2 0
BITMAP
1FFC
1FFC
1FFC
007C
00FC
01DC
039C
071C
0E1C
1C1C
381C
7000
E000
C000
ENDCHAR
STARTCHAR 2198
ENCODING 8600
SWIDTH 566 0
DWIDTH 17 0
BBX 15 14 1 0
BITMAP
6000
F000
7800
3C0E
1E0E
0F0E
078E
03CE
01EE
00FE
007E
0FFE
0FFE
0FFE
ENDCHAR
STARTCHAR 2199
ENCODING 8601
SWIDTH 566 0
DWIDTH 17 0
BBX 15 14 1 0
BITMAP
000C
001E
003C
E078
E0F0
E1E0
E3C0
E780
EF00
FE00
FC00
FFE0
FFE0
FFE0
ENDCHAR
STARTCHAR 26DF
ENCODING 9951
SWIDTH 2666 0
DWIDTH 80 0
BBX 77 21 1 0
BITMAP
FFFFFFFFFFFFFFFE0000
FFFFFFFFFFFFFFFE7F00
FFFFFFFFFFFFFFFE7F80
FFFFFFFFFFFFFFFE7FF0
FFFFFFFFFFFFFFFE7FF8
FFFFFFFFFFFFFFFE7E10
FFFFFFFFFFFFFFFE7E10
FFFFFFFFFFFFFFFE7E10
FFFFFFFFFFFFFFFE7E10
FFFFFFFFFFFFFFFE7E10
FFFFFFFFFFFFFFFF7FF8
FFFFFFFFFFFFFFFF7FF8
FFFFFFFFFFFFFFFF7FF8
FFFFFFFFFFFFFFFF7FF8
FFFFFFFFFFFFFFFF7FF8
00000000000000007FF8
01E7CF0000007FFFFE38
03DBD7800000FFFFFDF8
05EBFF4000007BFFFBD8
01E3CF000000780003C0
00C38700000030000180
ENDCHAR
STARTCHAR 2794
ENCODING 10132
SWIDTH 733 0
DWIDTH 22 0
BBX 19 15 1 0
BITMAP
001800
003C00
001E00
000F00
000780
0003C0
FFFFE0
FFFFE0
FFFFC0
000780
000F00
001E00
003C00
003800
001000
ENDCHAR
STARTCHAR 463B
ENCODING 17979
SWIDTH 1000 0
DWIDTH 30 0
BBX 27 10 1 0
BITMAP
007F0000
07810000
0C008000
3C007800
7FFFFFC0
7FFFFFC0
EDFFFB60
3FFFFFC0
1E000780
0C000300
ENDCHAR
STARTCHAR E031
ENCODING 57393
SWIDTH 400 0
DWIDTH 12 0
BBX 9 18 2 0
BITMAP
0400
0800
0000
1800
1C00
1C00
3C00
3C00
3C00
7C00
FC00
FC00
6600
2600
6200
4300
2180
0100
ENDCHAR
ENDFONT
