STARTFONT 2.1
COMMENT
COMMENT Converted from OpenType font "Logisoso.ttf" by "otf2bdf 3.0".
COMMENT
FONT -FreeType-Logisoso-Medium-R-Normal--45-450-72-72-P-55-ISO10646-1
SIZE 45 72 72
FONTBOUNDINGBOX 121 47 -3 -8
STARTPROPERTIES 19
FOUNDRY "FreeType"
FAMILY_NAME "Logisoso"
WEIGHT_NAME "Medium"
SLANT "R"
SETWIDTH_NAME "Normal"
ADD_STYLE_NAME ""
PIXEL_SIZE 45
POINT_SIZE 450
RESOLUTION_X 72
RESOLUTION_Y 72
SPACING "P"
AVERAGE_WIDTH 55
CHARSET_REGISTRY "ISO10646"
CHARSET_ENCODING "1"
FONT_ASCENT 38
FONT_DESCENT 8
COPYRIGHT "Created by Mathieu Gabiot with FontForge 2.0 (http://fontforge.sf.net) - Brussels - 2009"
_OTF_FONTFILE "Logisoso.ttf"
_OTF_PSNAME "Logisoso"
ENDPROPERTIES
CHARS 527
STARTCHAR 001E
ENCODING 30
SWIDTH 444 0
DWIDTH 20 0
BBX 0 0 0 0
BITMAP
ENDCHAR
STARTCHAR 001F
ENCODING 31
SWIDTH 444 0
DWIDTH 20 0
BBX 0 0 0 0
BITMAP
ENDCHAR
STARTCHAR 0020
ENCODING 32
SWIDTH 444 0
DWIDTH 20 0
BBX 0 0 0 0
BITMAP
ENDCHAR
STARTCHAR 0021
ENCODING 33
SWIDTH 266 0
DWIDTH 12 0
BBX 4 32 4 0
BITMAP
F0
F0
F0
F0
F0
F0
F0
F0
F0
F0
F0
F0
F0
F0
F0
F0
F0
F0
F0
F0
F0
F0
F0
F0
F0
00
00
00
60
F0
F0
60
ENDCHAR
STARTCHAR 0022
ENCODING 34
SWIDTH 444 0
DWIDTH 20 0
BBX 9 6 6 26
BITMAP
4200
E700
F780
E700
6300
4200
ENDCHAR
STARTCHAR 0023
ENCODING 35
SWIDTH 444 0
DWIDTH 20 0
BBX 16 32 2 0
BITMAP
078F
078F
079F
079F
079E
0F9E
0F9E
0F1E
0F1E
0F3E
0F3E
FFFF
FFFF
FFFF
FFFF
1E7C
1E7C
1E78
FFFF
FFFF
FFFF
FFFF
3CF8
3CF8
7CF0
7CF0
78F0
78F0
79F0
79F0
79E0
F9E0
ENDCHAR
STARTCHAR 0024
ENCODING 36
SWIDTH 444 0
DWIDTH 20 0
BBX 16 40 2 -4
BITMAP
03C0
03C0
03C0
03C0
07E0
1FF8
3FFC
7FFE
7C3E
F81F
F00F
F00F
F000
F000
F800
7C00
7E00
3F00
1F80
0FE0
07F0
01F8
00FC
007E
003E
001F
000F
000F
F00F
F00F
F81E
7C3E
7FFC
3FFC
1FF0
03C0
03C0
03C0
03C0
03C0
ENDCHAR
STARTCHAR 0025
ENCODING 37
SWIDTH 444 0
DWIDTH 20 0
BBX 16 32 2 0
BITMAP
3C0F
7E1E
FF1E
E71E
E73C
FF3C
7E3C
3C78
0078
00F0
00F0
00F0
01E0
01E0
01E0
03C0
03C0
0780
0780
0780
0F00
0F00
0F00
1E00
1E3C
3C7E
3CFF
3CE7
78E7
78FF
787E
F03C
ENDCHAR
STARTCHAR 0026
ENCODING 38
SWIDTH 444 0
DWIDTH 20 0
BBX 16 32 2 0
BITMAP
07E0
0FF0
1FF8
3FFC
7C3C
781E
781E
7800
7800
7C00
3C00
3E00
3E00
7F00
7F00
FF80
F780
F780
F7CF
F3CF
F3EF
F1EF
F1FF
F0FF
F0FF
F07F
F87F
7C3E
7FFE
3FFE
1FFE
07FF
ENDCHAR
STARTCHAR 0027
ENCODING 39
SWIDTH 266 0
DWIDTH 12 0
BBX 4 6 4 26
BITMAP
40
E0
F0
E0
60
40
ENDCHAR
STARTCHAR 0028
ENCODING 40
SWIDTH 466 0
DWIDTH 21 0
BBX 8 31 6 0
BITMAP
0C
0F
1F
1E
3E
3C
3C
78
78
78
F0
F0
F0
F0
F0
F0
F0
F0
F0
F0
F0
78
78
78
7C
3C
3E
1E
1F
0F
0C
ENDCHAR
STARTCHAR 0029
ENCODING 41
SWIDTH 466 0
DWIDTH 21 0
BBX 8 31 7 0
BITMAP
70
F0
F8
78
7C
3C
3C
1E
1E
1E
1E
0F
0F
0F
0F
0F
0F
0F
0F
0F
1E
1E
1E
1E
3C
3C
7C
78
F8
70
30
ENDCHAR
STARTCHAR 002A
ENCODING 42
SWIDTH 466 0
DWIDTH 21 0
BBX 13 14 4 22
BITMAP
0700
0700
4710
E738
FFF8
7FF0
1FC0
1FC0
7FF0
FFF8
E738
4710
0700
0700
ENDCHAR
STARTCHAR 002B
ENCODING 43
SWIDTH 444 0
DWIDTH 20 0
BBX 12 12 4 6
BITMAP
0F00
0F00
0F00
0F00
FFF0
FFF0
FFF0
FFF0
0F00
0F00
0F00
0F00
ENDCHAR
STARTCHAR 002C
ENCODING 44
SWIDTH 266 0
DWIDTH 12 0
BBX 4 6 4 -2
BITMAP
60
F0
F0
70
20
20
ENDCHAR
STARTCHAR 002D
ENCODING 45
SWIDTH 444 0
DWIDTH 20 0
BBX 12 4 4 10
BITMAP
FFF0
FFF0
FFF0
FFF0
ENDCHAR
STARTCHAR 002E
ENCODING 46
SWIDTH 266 0
DWIDTH 12 0
BBX 4 4 4 0
BITMAP
60
F0
F0
60
ENDCHAR
STARTCHAR 002F
ENCODING 47
SWIDTH 444 0
DWIDTH 20 0
BBX 15 32 3 0
BITMAP
003E
003C
003C
007C
0078
0078
00F8
00F0
00F0
01F0
01E0
03E0
03C0
03C0
07C0
0780
0780
0F80
0F00
0F00
1F00
1E00
1E00
3E00
3C00
3C00
7C00
7800
7800
F800
F000
F000
ENDCHAR
STARTCHAR 0030
ENCODING 48
SWIDTH 444 0
DWIDTH 20 0
BBX 16 32 2 0
BITMAP
07E0
1FF8
3FFC
7FFE
7C3E
F81F
F00F
F00F
F00F
F00F
F00F
F00F
F00F
F00F
F00F
F00F
F00F
F00F
F00F
F00F
F00F
F00F
F00F
F00F
F00F
F00F
F81F
7C3E
7FFE
3FFC
1FF8
07E0
ENDCHAR
STARTCHAR 0031
ENCODING 49
SWIDTH 444 0
DWIDTH 20 0
BBX 8 32 7 0
BITMAP
0F
0F
1F
1F
3F
FF
FF
FF
EF
0F
0F
0F
0F
0F
0F
0F
0F
0F
0F
0F
0F
0F
0F
0F
0F
0F
0F
0F
0F
0F
0F
0F
ENDCHAR
STARTCHAR 0032
ENCODING 50
SWIDTH 444 0
DWIDTH 20 0
BBX 16 32 2 0
BITMAP
07E0
1FF8
3FFC
7FFE
7C3E
F81F
F00F
F00F
F00F
F00F
F01F
603E
003E
007C
0078
00F8
01F0
01E0
03E0
07C0
07C0
0F80
1F00
1F00
3E00
3C00
7C00
F800
FFFF
FFFF
FFFF
FFFF
ENDCHAR
STARTCHAR 0033
ENCODING 51
SWIDTH 444 0
DWIDTH 20 0
BBX 16 32 2 0
BITMAP
FFFF
FFFF
FFFF
FFFF
001F
003E
003C
007C
00F8
00F0
01F0
03E0
03E0
03F0
03F8
03FC
003E
001E
000F
000F
000F
000F
000F
000F
000F
101F
701E
FC7E
7FFC
3FF8
1FF0
07C0
ENDCHAR
STARTCHAR 0034
ENCODING 52
SWIDTH 444 0
DWIDTH 20 0
BBX 16 32 2 0
BITMAP
07C0
0780
0780
0780
0F80
0F00
0F00
0F00
1F00
1E00
1E00
1E00
3E00
3C00
3C00
3C00
7CF0
78F0
78F0
78F0
F8F0
F0F0
FFFF
FFFF
FFFF
FFFF
00F0
00F0
00F0
00F0
00F0
00F0
ENDCHAR
STARTCHAR 0035
ENCODING 53
SWIDTH 444 0
DWIDTH 20 0
BBX 16 32 2 0
BITMAP
FFFF
FFFF
FFFF
FFFF
F000
F000
F000
F000
F000
F000
F000
F7E0
FFF8
FFFC
FFFE
FC3E
F81F
F00F
F00F
000F
000F
000F
000F
000F
F00F
F00F
F81F
7C3E
7FFE
3FFC
1FF8
07E0
ENDCHAR
STARTCHAR 0036
ENCODING 54
SWIDTH 444 0
DWIDTH 20 0
BBX 16 32 2 0
BITMAP
07E0
1FF8
3FFC
7FFE
7C3E
F81F
F00F
F00F
F000
F000
F000
F000
F7E0
FFF8
FFFC
FFFE
FC3E
F81F
F00F
F00F
F00F
F00F
F00F
F00F
F00F
F00F
F81F
7C3E
7FFE
3FFC
1FF8
07E0
ENDCHAR
STARTCHAR 0037
ENCODING 55
SWIDTH 444 0
DWIDTH 20 0
BBX 16 32 2 0
BITMAP
FFFF
FFFF
FFFF
FFFF
F01F
F01F
F01E
F03E
003E
003E
003C
007C
007C
0078
0078
00F8
00F8
00F0
00F0
01F0
01F0
01E0
03E0
03E0
03E0
03C0
07C0
07C0
07C0
0780
0F80
0F80
ENDCHAR
STARTCHAR 0038
ENCODING 56
SWIDTH 444 0
DWIDTH 20 0
BBX 16 32 2 0
BITMAP
07E0
1FF8
3FFC
7FFE
7C3E
F81F
F00F
F00F
F00F
F00F
F00F
F00F
F81F
7C3E
7FFE
3FFC
3FFC
7FFE
7C3E
F81F
F00F
F00F
F00F
F00F
F00F
F00F
F81F
7C3E
7FFE
3FFC
1FF8
07E0
ENDCHAR
STARTCHAR 0039
ENCODING 57
SWIDTH 444 0
DWIDTH 20 0
BBX 16 32 2 0
BITMAP
07E0
1FF8
3FFC
7FFE
7C3E
F81F
F00F
F00F
F00F
F00F
F00F
F00F
F00F
F00F
F81F
7C3F
7FFF
3FFF
1FFF
07EF
000F
000F
000F
000F
F00F
F00F
F81F
7C3E
7FFE
3FFC
1FF8
07E0
ENDCHAR
STARTCHAR 003A
ENCODING 58
SWIDTH 266 0
DWIDTH 12 0
BBX 4 18 4 4
BITMAP
60
F0
F0
60
00
00
00
00
00
00
00
00
00
00
60
F0
F0
60
ENDCHAR
STARTCHAR 003B
ENCODING 59
SWIDTH 266 0
DWIDTH 12 0
BBX 4 20 4 2
BITMAP
60
F0
F0
60
00
00
00
00
00
00
00
00
00
00
60
F0
F0
70
20
20
ENDCHAR
STARTCHAR 003C
ENCODING 60
SWIDTH 444 0
DWIDTH 20 0
BBX 10 18 5 6
BITMAP
00C0
01C0
03C0
0F80
1F00
3E00
FC00
F000
E000
E000
F000
F800
3E00
1F00
0F80
07C0
01C0
00C0
ENDCHAR
STARTCHAR 003D
ENCODING 61
SWIDTH 444 0
DWIDTH 20 0
BBX 14 11 3 5
BITMAP
FFFC
FFFC
FFFC
FFFC
0000
0000
0000
FFFC
FFFC
FFFC
FFFC
ENDCHAR
STARTCHAR 003E
ENCODING 62
SWIDTH 444 0
DWIDTH 20 0
BBX 10 18 5 6
BITMAP
8000
E000
F000
F800
7C00
1F00
0F80
07C0
03C0
01C0
07C0
0F80
1F00
3E00
F800
F000
E000
C000
ENDCHAR
STARTCHAR 003F
ENCODING 63
SWIDTH 444 0
DWIDTH 20 0
BBX 16 32 2 0
BITMAP
07E0
1FF8
3FFC
7FFE
7C3E
F81F
F00F
F00F
000F
000F
001F
003E
007E
00FC
01F8
01F0
03E0
03C0
03C0
03C0
03C0
03C0
03C0
03C0
03C0
03C0
0000
0000
0180
03C0
03C0
0180
ENDCHAR
STARTCHAR 0040
ENCODING 64
SWIDTH 711 0
DWIDTH 32 0
BBX 28 38 2 -8
BITMAP
003FC000
00FFF000
03FFFC00
07FFFE00
0FE07F00
1F801F80
3E0007C0
3C0003C0
7C0FF3E0
783FF1E0
F87FF1F0
F07FF0F0
F0F9F0F0
F0F0F0F0
F0F0F0F0
F0F0F0F0
F0F0F0F0
F0F0F0F0
F0F0F0F0
F0F0F0F0
F0F0F0F0
F0F0F0F0
F0F0F0F0
F0F0F0F0
F0F0F0F0
F0F9F9F0
F07FFFE0
F87FFFE0
783FFFC0
7C0F0F00
3C000000
3E000000
1F800000
0FE00000
07FFFF00
03FFFF00
00FFFF00
003FFF00
ENDCHAR
STARTCHAR 0041
ENCODING 65
SWIDTH 444 0
DWIDTH 20 0
BBX 16 32 2 0
BITMAP
03C0
03C0
03E0
03E0
07E0
07E0
07E0
07F0
07F0
0FF0
0FF0
0FF0
0FF0
0F78
1E78
1E78
1E78
1E78
1E3C
1E3C
3C3C
3C3C
3FFC
3FFC
3FFE
7FFE
781E
781E
781E
780F
700F
F00F
ENDCHAR
STARTCHAR 0042
ENCODING 66
SWIDTH 444 0
DWIDTH 20 0
BBX 16 32 2 0
BITMAP
FFC0
FFF0
FFF8
FFFC
F07C
F03E
F01E
F01E
F01E
F01E
F01E
F03E
F07C
FFFC
FFF8
FFF8
FFFC
F07E
F03E
F01E
F00F
F00F
F00F
F00F
F00F
F01E
F03E
F07E
FFFC
FFF8
FFF0
FFC0
ENDCHAR
STARTCHAR 0043
ENCODING 67
SWIDTH 444 0
DWIDTH 20 0
BBX 16 32 2 0
BITMAP
07E0
1FF8
3FFC
7FFE
7C3E
F81F
F00F
F00F
F000
F000
F000
F000
F000
F000
F000
F000
F000
F000
F000
F000
F000
F000
F000
F000
F00F
F00F
F81F
7C3E
7FFE
3FFC
1FF8
07E0
ENDCHAR
STARTCHAR 0044
ENCODING 68
SWIDTH 444 0
DWIDTH 20 0
BBX 16 32 2 0
BITMAP
FFE0
FFF8
FFFC
FFFE
F03E
F01F
F00F
F00F
F00F
F00F
F00F
F00F
F00F
F00F
F00F
F00F
F00F
F00F
F00F
F00F
F00F
F00F
F00F
F00F
F00F
F00F
F01F
F03E
FFFE
FFFC
FFF8
FFE0
ENDCHAR
STARTCHAR 0045
ENCODING 69
SWIDTH 444 0
DWIDTH 20 0
BBX 16 32 2 0
BITMAP
FFFF
FFFF
FFFF
FFFF
F000
F000
F000
F000
F000
F000
F000
F000
F000
F000
FFF0
FFF0
FFF0
FFF0
F000
F000
F000
F000
F000
F000
F000
F000
F000
F000
FFFF
FFFF
FFFF
FFFF
ENDCHAR
STARTCHAR 0046
ENCODING 70
SWIDTH 444 0
DWIDTH 20 0
BBX 16 32 2 0
BITMAP
FFFF
FFFF
FFFF
FFFF
F000
F000
F000
F000
F000
F000
F000
F000
F000
F000
FFF0
FFF0
FFF0
FFF0
F000
F000
F000
F000
F000
F000
F000
F000
F000
F000
F000
F000
F000
F000
ENDCHAR
STARTCHAR 0047
ENCODING 71
SWIDTH 444 0
DWIDTH 20 0
BBX 16 32 2 0
BITMAP
07E0
1FF8
3FFC
7FFE
7C3E
F81F
F00F
F00F
F000
F000
F000
F000
F000
F000
F000
F0FF
F0FF
F0FF
F0FF
F00F
F00F
F00F
F00F
F00F
F00F
F00F
F81F
7C3F
7FFF
3FFF
1FFF
07EF
ENDCHAR
STARTCHAR 0048
ENCODING 72
SWIDTH 444 0
DWIDTH 20 0
BBX 16 32 2 0
BITMAP
F00F
F00F
F00F
F00F
F00F
F00F
F00F
F00F
F00F
F00F
F00F
F00F
F00F
F00F
FFFF
FFFF
FFFF
FFFF
F00F
F00F
F00F
F00F
F00F
F00F
F00F
F00F
F00F
F00F
F00F
F00F
F00F
F00F
ENDCHAR
STARTCHAR 0049
ENCODING 73
SWIDTH 266 0
DWIDTH 12 0
BBX 4 32 4 0
BITMAP
F0
F0
F0
F0
F0
F0
F0
F0
F0
F0
F0
F0
F0
F0
F0
F0
F0
F0
F0
F0
F0
F0
F0
F0
F0
F0
F0
F0
F0
F0
F0
F0
ENDCHAR
STARTCHAR 004A
ENCODING 74
SWIDTH 444 0
DWIDTH 20 0
BBX 16 32 2 0
BITMAP
000F
000F
000F
000F
000F
000F
000F
000F
000F
000F
000F
000F
000F
000F
000F
000F
000F
000F
000F
000F
000F
000F
000F
000F
F00F
F00F
F81F
7C3E
7FFE
3FFC
1FF8
07E0
ENDCHAR
STARTCHAR 004B
ENCODING 75
SWIDTH 444 0
DWIDTH 20 0
BBX 15 32 2 0
BITMAP
F01E
F03E
F03C
F07C
F0F8
F0F8
F1F0
F1E0
F3E0
F7C0
F7C0
FF80
FF00
FF00
FE00
FE00
FC00
FE00
FF00
FF00
FF80
F780
F7C0
F3E0
F1E0
F1F0
F0F0
F0F8
F07C
F03C
F03E
F01E
ENDCHAR
STARTCHAR 004C
ENCODING 76
SWIDTH 444 0
DWIDTH 20 0
BBX 16 32 2 0
BITMAP
F000
F000
F000
F000
F000
F000
F000
F000
F000
F000
F000
F000
F000
F000
F000
F000
F000
F000
F000
F000
F000
F000
F000
F000
F000
F000
F000
F000
FFFF
FFFF
FFFF
FFFF
ENDCHAR
STARTCHAR 004D
ENCODING 77
SWIDTH 444 0
DWIDTH 20 0
BBX 16 32 2 0
BITMAP
F00F
F01F
F81F
F81F
F83F
FC3F
FC3F
FE7F
FE7F
FE7F
FFFF
FFFF
FFFF
FFFF
F7EF
F7EF
F7EF
F3CF
F3CF
F38F
F18F
F18F
F10F
F00F
F00F
F00F
F00F
F00F
F00F
F00F
F00F
F00F
ENDCHAR
STARTCHAR 004E
ENCODING 78
SWIDTH 444 0
DWIDTH 20 0
BBX 16 32 2 0
BITMAP
F00F
F80F
F80F
F80F
FC0F
FC0F
FC0F
FE0F
FE0F
FF0F
FF0F
FF0F
FF8F
F78F
F7CF
F3CF
F3CF
F3EF
F1EF
F1FF
F0FF
F0FF
F0FF
F07F
F07F
F03F
F03F
F03F
F01F
F01F
F01F
F00F
ENDCHAR
STARTCHAR 004F
ENCODING 79
SWIDTH 444 0
DWIDTH 20 0
BBX 16 32 2 0
BITMAP
07E0
1FF8
3FFC
7FFE
7C3E
F81F
F00F
F00F
F00F
F00F
F00F
F00F
F00F
F00F
F00F
F00F
F00F
F00F
F00F
F00F
F00F
F00F
F00F
F00F
F00F
F00F
F81F
7C3E
7FFE
3FFC
1FF8
07E0
ENDCHAR
STARTCHAR 0050
ENCODING 80
SWIDTH 444 0
DWIDTH 20 0
BBX 16 32 2 0
BITMAP
FFC0
FFF0
FFF8
FFFC
F07E
F03E
F01E
F00F
F00F
F00F
F00F
F00F
F01E
F03E
F07E
FFFC
FFF8
FFF0
FF80
F000
F000
F000
F000
F000
F000
F000
F000
F000
F000
F000
F000
F000
ENDCHAR
STARTCHAR 0051
ENCODING 81
SWIDTH 444 0
DWIDTH 20 0
BBX 16 32 2 0
BITMAP
07E0
1FF8
3FFC
7FFE
7C3E
F81F
F00F
F00F
F00F
F00F
F00F
F00F
F00F
F00F
F00F
F00F
F00F
F00F
F00F
F00F
F00F
F00F
F00F
F00F
F00F
F00F
F81F
7C3E
7FFE
3FFE
1FFE
07EF
ENDCHAR
STARTCHAR 0052
ENCODING 82
SWIDTH 444 0
DWIDTH 20 0
BBX 16 32 2 0
BITMAP
FFC0
FFF0
FFF8
FFFC
F07E
F03E
F01F
F00F
F00F
F00F
F00F
F00F
F01E
F03E
F07E
FFFC
FFF8
FFF0
FFF0
F0F0
F0F0
F0F8
F078
F078
F078
F03C
F03C
F03C
F01E
F01E
F01E
F00F
ENDCHAR
STARTCHAR 0053
ENCODING 83
SWIDTH 444 0
DWIDTH 20 0
BBX 16 32 2 0
BITMAP
07E0
1FF8
3FFC
7FFE
7C3E
F81F
F00F
F00F
F000
F000
F800
7C00
7E00
3F00
1F80
0FC0
03F0
01F8
00FC
007E
003E
001F
000F
000F
F00F
F00F
F81F
7C3E
7FFE
3FFC
1FF8
07E0
ENDCHAR
STARTCHAR 0054
ENCODING 84
SWIDTH 444 0
DWIDTH 20 0
BBX 16 32 2 0
BITMAP
FFFF
FFFF
FFFF
FFFF
03C0
03C0
03C0
03C0
03C0
03C0
03C0
03C0
03C0
03C0
03C0
03C0
03C0
03C0
03C0
03C0
03C0
03C0
03C0
03C0
03C0
03C0
03C0
03C0
03C0
03C0
03C0
03C0
ENDCHAR
STARTCHAR 0055
ENCODING 85
SWIDTH 444 0
DWIDTH 20 0
BBX 16 32 2 0
BITMAP
F00F
F00F
F00F
F00F
F00F
F00F
F00F
F00F
F00F
F00F
F00F
F00F
F00F
F00F
F00F
F00F
F00F
F00F
F00F
F00F
F00F
F00F
F00F
F00F
F00F
F00F
F81F
7C3E
7FFE
3FFC
1FF8
07E0
ENDCHAR
STARTCHAR 0056
ENCODING 86
SWIDTH 444 0
DWIDTH 20 0
BBX 16 32 2 0
BITMAP
F00F
700F
780F
781E
781E
781E
381E
3C1E
3C1E
3C3C
3C3C
3C3C
1E3C
1E3C
1E38
1E78
1E78
0F78
0F78
0F78
0FF0
0FF0
07F0
07F0
07F0
07F0
07E0
03E0
03E0
03E0
03E0
03E0
ENDCHAR
STARTCHAR 0057
ENCODING 87
SWIDTH 444 0
DWIDTH 20 0
BBX 16 32 2 0
BITMAP
F00F
F00F
F00F
F00F
700F
780F
780F
780F
780E
781E
781E
791E
789E
799E
799E
79DE
7BDE
7BDE
7BDE
7FFE
3FFE
3FFE
3FFE
3FFE
3FFC
3FFC
3F7C
3E7C
3E7C
3E7C
3E3C
3C3C
ENDCHAR
STARTCHAR 0058
ENCODING 88
SWIDTH 444 0
DWIDTH 20 0
BBX 16 32 2 0
BITMAP
F80F
781F
781E
781E
3C1E
3C3C
3C3C
3E3C
1E7C
1E78
1E78
0FF8
0FF0
0FF0
07F0
07E0
07E0
07F0
0FF0
0FF0
0FF8
1E78
1E78
1E7C
3E3C
3C3C
3C3C
3C1E
781E
781E
781F
F80F
ENDCHAR
STARTCHAR 0059
ENCODING 89
SWIDTH 444 0
DWIDTH 20 0
BBX 16 32 2 0
BITMAP
F00F
781F
781E
783E
7C3C
3C3C
3C7C
3C78
1E78
1EF8
1EF0
1FF0
0FF0
0FE0
0FE0
0FC0
07C0
07C0
0780
0780
0F80
0F00
0F00
1F00
1E00
1E00
3E00
3C00
3C00
7800
7800
F800
ENDCHAR
STARTCHAR 005A
ENCODING 90
SWIDTH 444 0
DWIDTH 20 0
BBX 16 32 2 0
BITMAP
FFFF
FFFF
FFFF
FFFF
001F
001E
003E
003C
007C
0078
00F8
00F0
01F0
01E0
03E0
03C0
03C0
07C0
0780
0F80
0F00
1F00
1E00
3E00
3C00
7C00
7800
F800
FFFF
FFFF
FFFF
FFFF
ENDCHAR
STARTCHAR 005B
ENCODING 91
SWIDTH 466 0
DWIDTH 21 0
BBX 9 32 6 0
BITMAP
FF80
FF80
FF80
FF80
F000
F000
F000
F000
F000
F000
F000
F000
F000
F000
F000
F000
F000
F000
F000
F000
F000
F000
F000
F000
F000
F000
F000
F000
FF80
FF80
FF80
FF80
ENDCHAR
STARTCHAR 005C
ENCODING 92
SWIDTH 444 0
DWIDTH 20 0
BBX 15 32 3 0
BITMAP
F000
F000
7800
7800
7C00
3C00
3C00
3E00
1E00
1E00
1F00
0F00
0F00
0F80
0780
0780
07C0
03C0
03C0
03E0
01E0
01E0
01F0
00F0
00F0
00F8
0078
0078
007C
003C
003C
001E
ENDCHAR
STARTCHAR 005D
ENCODING 93
SWIDTH 466 0
DWIDTH 21 0
BBX 9 32 6 0
BITMAP
FF80
FF80
FF80
FF80
0780
0780
0780
0780
0780
0780
0780
0780
0780
0780
0780
0780
0780
0780
0780
0780
0780
0780
0780
0780
0780
0780
0780
0780
FF80
FF80
FF80
FF80
ENDCHAR
STARTCHAR 005E
ENCODING 94
SWIDTH 444 0
DWIDTH 20 0
BBX 12 6 4 33
BITMAP
0F00
1F80
3FC0
3FE0
79E0
F0F0
ENDCHAR
STARTCHAR 005F
ENCODING 95
SWIDTH 444 0
DWIDTH 20 0
BBX 20 3 0 -3
BITMAP
FFFFF0
FFFFF0
FFFFF0
ENDCHAR
STARTCHAR 0060
ENCODING 96
SWIDTH 444 0
DWIDTH 20 0
BBX 7 6 7 30
BITMAP
E0
F0
78
38
1C
0E
ENDCHAR
STARTCHAR 0061
ENCODING 97
SWIDTH 488 0
DWIDTH 22 0
BBX 18 24 2 0
BITMAP
07F000
0FF800
1FFC00
3FFE00
7C1F00
780F00
780F00
780F00
000F00
001F00
0FFF00
1FFF00
3FFF00
7FFF00
F80F00
F00F00
F00F00
F00F00
F00F00
F81F80
7FFFC0
3FFFC0
1FFBC0
0FF0C0
ENDCHAR
STARTCHAR 0062
ENCODING 98
SWIDTH 444 0
DWIDTH 20 0
BBX 16 32 2 0
BITMAP
F000
F000
F000
F000
F000
F000
F000
F000
F7E0
FFF8
FFFC
FFFE
FC3E
F81F
F00F
F00F
F00F
F00F
F00F
F00F
F00F
F00F
F00F
F00F
F00F
F00F
F81F
FC3E
FFFE
FFFC
FFF8
F7E0
ENDCHAR
STARTCHAR 0063
ENCODING 99
SWIDTH 444 0
DWIDTH 20 0
BBX 16 24 2 0
BITMAP
07E0
1FF8
3FFC
7FFE
7C3E
F81F
F00F
F00F
F000
F000
F000
F000
F000
F000
F000
F000
F00F
F00F
F81F
7C3E
7FFE
3FFC
1FF8
07E0
ENDCHAR
STARTCHAR 0064
ENCODING 100
SWIDTH 444 0
DWIDTH 20 0
BBX 16 32 2 0
BITMAP
000F
000F
000F
000F
000F
000F
000F
000F
07EF
1FFF
3FFF
7FFF
7C3F
F81F
F00F
F00F
F00F
F00F
F00F
F00F
F00F
F00F
F00F
F00F
F00F
F00F
F81F
7C3F
7FFF
3FFF
1FFF
07EF
ENDCHAR
STARTCHAR 0065
ENCODING 101
SWIDTH 444 0
DWIDTH 20 0
BBX 16 24 2 0
BITMAP
07E0
1FF8
3FFC
7FFE
7C3E
F81F
F00F
F00F
F00F
F00F
FFFF
FFFF
FFFF
FFFF
F000
F000
F000
F000
F81E
7C3E
7FFE
3FFC
1FF8
07E0
ENDCHAR
STARTCHAR 0066
ENCODING 102
SWIDTH 444 0
DWIDTH 20 0
BBX 16 32 2 0
BITMAP
00F0
03FC
07FE
07FE
0F9F
0F0F
0F00
0F00
0F00
0F00
0F00
0F00
FFFC
FFFC
FFFC
FFFC
0F00
0F00
0F00
0F00
0F00
0F00
0F00
0F00
0F00
0F00
0F00
0F00
0F00
0F00
0F00
0F00
ENDCHAR
STARTCHAR 0067
ENCODING 103
SWIDTH 444 0
DWIDTH 20 0
BBX 16 32 2 -8
BITMAP
07FF
1FFF
3FFF
7FFF
7C3E
F81F
F00F
F00F
F00F
F00F
F81F
7C3E
7FFE
3FFC
1FF8
1FE0
3E00
3C00
3C00
3E00
1FF0
3FFC
7FFE
FFFE
F81F
F00F
F00F
F81F
FFFE
7FFE
3FFC
1FF0
ENDCHAR
STARTCHAR 0068
ENCODING 104
SWIDTH 444 0
DWIDTH 20 0
BBX 16 32 2 0
BITMAP
F000
F000
F000
F000
F000
F000
F000
F000
F7E0
FFF8
FFFC
FFFE
FC3E
F81F
F00F
F00F
F00F
F00F
F00F
F00F
F00F
F00F
F00F
F00F
F00F
F00F
F00F
F00F
F00F
F00F
F00F
F00F
ENDCHAR
STARTCHAR 0069
ENCODING 105
SWIDTH 266 0
DWIDTH 12 0
BBX 6 32 3 0
BITMAP
60
F0
F0
60
00
00
00
00
F0
F0
F0
F0
F0
F0
F0
F0
F0
F0
F0
F0
F0
F0
F0
F0
F0
F0
F0
F8
7C
7C
3C
0C
ENDCHAR
STARTCHAR 006A
ENCODING 106
SWIDTH 444 0
DWIDTH 20 0
BBX 12 40 4 -8
BITMAP
0060
00F0
00F0
0060
0000
0000
0000
0000
00F0
00F0
00F0
00F0
00F0
00F0
00F0
00F0
00F0
00F0
00F0
00F0
00F0
00F0
00F0
00F0
00F0
00F0
00F0
00F0
00F0
00F0
00F0
00F0
00F0
00F0
F0F0
F9F0
7FE0
7FE0
3FC0
1F00
ENDCHAR
STARTCHAR 006B
ENCODING 107
SWIDTH 444 0
DWIDTH 20 0
BBX 16 32 2 0
BITMAP
F000
F000
F000
F000
F000
F000
F000
F000
F01F
F03E
F03C
F07C
F078
F0F8
F0F0
F1F0
F3E0
F3C0
F7C0
F780
FF80
FFC0
FFC0
FFE0
FDF0
FCF0
F8F8
F878
F07C
F03C
F03E
F01F
ENDCHAR
STARTCHAR 006C
ENCODING 108
SWIDTH 266 0
DWIDTH 12 0
BBX 8 32 2 0
BITMAP
F0
F0
F0
F0
F0
F0
F0
F0
F0
F0
F0
F0
F0
F0
F0
F0
F0
F0
F0
F0
F0
F0
F0
F0
F0
F0
F0
F8
7F
7F
3F
0F
ENDCHAR
STARTCHAR 006D
ENCODING 109
SWIDTH 711 0
DWIDTH 32 0
BBX 28 24 2 0
BITMAP
F7E07E00
FFF9FF80
FFFFFFC0
FFFFFFE0
FC3FC3E0
F81F81F0
F00F00F0
F00F00F0
F00F00F0
F00F00F0
F00F00F0
F00F00F0
F00F00F0
F00F00F0
F00F00F0
F00F00F0
F00F00F0
F00F00F0
F00F00F0
F00F00F0
F00F00F0
F00F00F0
F00F00F0
F00F00F0
ENDCHAR
STARTCHAR 006E
ENCODING 110
SWIDTH 444 0
DWIDTH 20 0
BBX 16 24 2 0
BITMAP
F7E0
FFF8
FFFC
FFFE
FC3E
F81F
F00F
F00F
F00F
F00F
F00F
F00F
F00F
F00F
F00F
F00F
F00F
F00F
F00F
F00F
F00F
F00F
F00F
F00F
ENDCHAR
STARTCHAR 006F
ENCODING 111
SWIDTH 444 0
DWIDTH 20 0
BBX 16 24 2 0
BITMAP
07E0
1FF8
3FFC
7FFE
7C3E
F81F
F00F
F00F
F00F
F00F
F00F
F00F
F00F
F00F
F00F
F00F
F00F
F00F
F81F
7C3E
7FFE
3FFC
1FF8
07E0
ENDCHAR
STARTCHAR 0070
ENCODING 112
SWIDTH 444 0
DWIDTH 20 0
BBX 16 32 2 -8
BITMAP
F7E0
FFF8
FFFC
FFFE
FC3E
F81F
F00F
F00F
F00F
F00F
F00F
F00F
F00F
F00F
F00F
F00F
F00F
F00F
F81F
FC3E
FFFE
FFFC
FFF8
F7E0
F000
F000
F000
F000
F000
F000
F000
F000
ENDCHAR
STARTCHAR 0071
ENCODING 113
SWIDTH 444 0
DWIDTH 20 0
BBX 16 32 2 -8
BITMAP
07EF
1FFF
3FFF
7FFF
7C3F
F81F
F00F
F00F
F00F
F00F
F00F
F00F
F00F
F00F
F00F
F00F
F00F
F00F
F81F
7C3F
7FFF
3FFF
1FFF
07EF
000F
000F
000F
000F
000F
000F
000F
000F
ENDCHAR
STARTCHAR 0072
ENCODING 114
SWIDTH 355 0
DWIDTH 16 0
BBX 12 24 2 0
BITMAP
F7F0
FFF0
FFF0
FFF0
FCF0
F8F0
F000
F000
F000
F000
F000
F000
F000
F000
F000
F000
F000
F000
F000
F000
F000
F000
F000
F000
ENDCHAR
STARTCHAR 0073
ENCODING 115
SWIDTH 400 0
DWIDTH 18 0
BBX 14 24 2 0
BITMAP
0FC0
1FE0
3FF0
7FF8
F87C
F03C
F03C
F03C
F000
F800
7FC0
3FE0
1FF0
0FF8
007C
003C
F03C
F03C
F03C
F87C
7FF8
3FF0
1FE0
0FC0
ENDCHAR
STARTCHAR 0074
ENCODING 116
SWIDTH 266 0
DWIDTH 12 0
BBX 10 32 1 0
BITMAP
3C00
3C00
3C00
3C00
3C00
3C00
3C00
3C00
FFC0
FFC0
FFC0
FFC0
3C00
3C00
3C00
3C00
3C00
3C00
3C00
3C00
3C00
3C00
3C00
3C00
3C00
3C00
3C00
3E00
1FC0
1FC0
0FC0
03C0
ENDCHAR
STARTCHAR 0075
ENCODING 117
SWIDTH 444 0
DWIDTH 20 0
BBX 16 24 2 0
BITMAP
F00F
F00F
F00F
F00F
F00F
F00F
F00F
F00F
F00F
F00F
F00F
F00F
F00F
F00F
F00F
F00F
F00F
F00F
F81F
7C3F
7FFF
3FFF
1FFF
07EF
ENDCHAR
STARTCHAR 0076
ENCODING 118
SWIDTH 444 0
DWIDTH 20 0
BBX 16 24 2 0
BITMAP
F00F
F00F
780F
781E
781E
781E
781E
3C1E
3C3C
3C3C
3C3C
3C3C
1E3C
1E78
1E78
1E78
1E78
0F78
0FF0
0FF0
0FF0
0FF0
07F0
07E0
ENDCHAR
STARTCHAR 0077
ENCODING 119
SWIDTH 711 0
DWIDTH 32 0
BBX 28 24 2 0
BITMAP
F00F00F0
F00F00F0
780F81E0
781F81E0
781F81E0
781F81E0
781F81E0
3C1F83E0
3C3FC3C0
3C3FC3C0
3C3FC3C0
3C3FC3C0
1E3DC7C0
1E79E780
1E79E780
1E79E780
1E79E780
0F78EF80
0FF0FF00
0FF0FF00
0FF0FF00
0FF0FF00
07F07F00
07E07E00
ENDCHAR
STARTCHAR 0078
ENCODING 120
SWIDTH 444 0
DWIDTH 20 0
BBX 16 24 2 0
BITMAP
F00F
781E
781E
3C3C
3C3C
1E78
1E78
0FF0
0FF0
07E0
07E0
03C0
03C0
07E0
07E0
0FF0
0FF0
1E78
1E78
3C3C
3C3C
781E
781E
F00F
ENDCHAR
STARTCHAR 0079
ENCODING 121
SWIDTH 444 0
DWIDTH 20 0
BBX 16 32 2 -8
BITMAP
3C0F
3C0F
3C1F
3C1E
1E1E
1E1E
1E1E
1E3E
1E3C
0F3C
0F3C
0F3C
0F3C
0F78
07F8
07F8
07F8
07F8
07F0
03F0
03F0
03F0
03F0
03E0
01E0
01E0
01E0
33E0
7FC0
FFC0
7F80
3E00
ENDCHAR
STARTCHAR 007A
ENCODING 122
SWIDTH 444 0
DWIDTH 20 0
BBX 16 24 2 0
BITMAP
FFFF
FFFF
FFFF
FFFF
001F
003E
007C
007C
00F8
01F0
01F0
03E0
07C0
0F80
0F80
1F00
3E00
3E00
7C00
F800
FFFF
FFFF
FFFF
FFFF
ENDCHAR
STARTCHAR 007B
ENCODING 123
SWIDTH 444 0
DWIDTH 20 0
BBX 11 37 4 -5
BITMAP
00E0
01E0
03E0
07E0
0F80
0F80
0F00
0F00
0F00
0F00
0F00
0F00
0F00
0F00
0F00
1E00
7E00
FC00
E000
FC00
7E00
1E00
0F00
0F00
0F00
0F00
0F00
0F00
0F00
0F00
0F00
0F80
0F80
07E0
03E0
01E0
00E0
ENDCHAR
STARTCHAR 007C
ENCODING 124
SWIDTH 444 0
DWIDTH 20 0
BBX 4 40 8 -4
BITMAP
F0
F0
F0
F0
F0
F0
F0
F0
F0
F0
F0
F0
F0
F0
F0
F0
F0
F0
F0
F0
F0
F0
F0
F0
F0
F0
F0
F0
F0
F0
F0
F0
F0
F0
F0
F0
F0
F0
F0
F0
ENDCHAR
STARTCHAR 007D
ENCODING 125
SWIDTH 444 0
DWIDTH 20 0
BBX 11 37 4 -5
BITMAP
E000
F800
FC00
FE00
3E00
1F00
0F00
0F00
0F00
0F00
0F00
0F00
0F00
0F00
0F00
0780
07C0
03E0
0060
03E0
07C0
0780
0F00
0F00
0F00
0F00
0F00
0F00
0F00
0F00
0F00
1F00
3E00
FE00
FC00
F800
E000
ENDCHAR
STARTCHAR 007E
ENCODING 126
SWIDTH 444 0
DWIDTH 20 0
BBX 17 6 2 9
BITMAP
207800
FBFE00
FFFF00
7FFF00
3FCF80
0C0400
ENDCHAR
STARTCHAR 007F
ENCODING 127
SWIDTH 444 0
DWIDTH 20 0
BBX 0 0 0 0
BITMAP
ENDCHAR
STARTCHAR 0080
ENCODING 128
SWIDTH 444 0
DWIDTH 20 0
BBX 0 0 0 0
BITMAP
ENDCHAR
STARTCHAR 0081
ENCODING 129
SWIDTH 444 0
DWIDTH 20 0
BBX 0 0 0 0
BITMAP
ENDCHAR
STARTCHAR 0082
ENCODING 130
SWIDTH 444 0
DWIDTH 20 0
BBX 0 0 0 0
BITMAP
ENDCHAR
STARTCHAR 0083
ENCODING 131
SWIDTH 444 0
DWIDTH 20 0
BBX 0 0 0 0
BITMAP
ENDCHAR
STARTCHAR 0084
ENCODING 132
SWIDTH 444 0
DWIDTH 20 0
BBX 0 0 0 0
BITMAP
ENDCHAR
STARTCHAR 0085
ENCODING 133
SWIDTH 444 0
DWIDTH 20 0
BBX 0 0 0 0
BITMAP
ENDCHAR
STARTCHAR 0086
ENCODING 134
SWIDTH 444 0
DWIDTH 20 0
BBX 0 0 0 0
BITMAP
ENDCHAR
STARTCHAR 0087
ENCODING 135
SWIDTH 444 0
DWIDTH 20 0
BBX 0 0 0 0
BITMAP
ENDCHAR
STARTCHAR 0088
ENCODING 136
SWIDTH 444 0
DWIDTH 20 0
BBX 0 0 0 0
BITMAP
ENDCHAR
STARTCHAR 0089
ENCODING 137
SWIDTH 444 0
DWIDTH 20 0
BBX 0 0 0 0
BITMAP
ENDCHAR
STARTCHAR 008A
ENCODING 138
SWIDTH 444 0
DWIDTH 20 0
BBX 0 0 0 0
BITMAP
ENDCHAR
STARTCHAR 008B
ENCODING 139
SWIDTH 444 0
DWIDTH 20 0
BBX 0 0 0 0
BITMAP
ENDCHAR
STARTCHAR 008C
ENCODING 140
SWIDTH 444 0
DWIDTH 20 0
BBX 0 0 0 0
BITMAP
ENDCHAR
STARTCHAR 008D
ENCODING 141
SWIDTH 444 0
DWIDTH 20 0
BBX 0 0 0 0
BITMAP
ENDCHAR
STARTCHAR 008E
ENCODING 142
SWIDTH 444 0
DWIDTH 20 0
BBX 0 0 0 0
BITMAP
ENDCHAR
STARTCHAR 008F
ENCODING 143
SWIDTH 444 0
DWIDTH 20 0
BBX 0 0 0 0
BITMAP
ENDCHAR
STARTCHAR 0090
ENCODING 144
SWIDTH 444 0
DWIDTH 20 0
BBX 0 0 0 0
BITMAP
ENDCHAR
STARTCHAR 0091
ENCODING 145
SWIDTH 444 0
DWIDTH 20 0
BBX 0 0 0 0
BITMAP
ENDCHAR
STARTCHAR 0092
ENCODING 146
SWIDTH 444 0
DWIDTH 20 0
BBX 0 0 0 0
BITMAP
ENDCHAR
STARTCHAR 0093
ENCODING 147
SWIDTH 444 0
DWIDTH 20 0
BBX 0 0 0 0
BITMAP
ENDCHAR
STARTCHAR 0094
ENCODING 148
SWIDTH 444 0
DWIDTH 20 0
BBX 0 0 0 0
BITMAP
ENDCHAR
STARTCHAR 0095
ENCODING 149
SWIDTH 444 0
DWIDTH 20 0
BBX 0 0 0 0
BITMAP
ENDCHAR
STARTCHAR 0096
ENCODING 150
SWIDTH 444 0
DWIDTH 20 0
BBX 0 0 0 0
BITMAP
ENDCHAR
STARTCHAR 0097
ENCODING 151
SWIDTH 444 0
DWIDTH 20 0
BBX 0 0 0 0
BITMAP
ENDCHAR
STARTCHAR 0098
ENCODING 152
SWIDTH 444 0
DWIDTH 20 0
BBX 0 0 0 0
BITMAP
ENDCHAR
STARTCHAR 0099
ENCODING 153
SWIDTH 444 0
DWIDTH 20 0
BBX 0 0 0 0
BITMAP
ENDCHAR
STARTCHAR 009A
ENCODING 154
SWIDTH 444 0
DWIDTH 20 0
BBX 0 0 0 0
BITMAP
ENDCHAR
STARTCHAR 009B
ENCODING 155
SWIDTH 444 0
DWIDTH 20 0
BBX 0 0 0 0
BITMAP
ENDCHAR
STARTCHAR 009C
ENCODING 156
SWIDTH 444 0
DWIDTH 20 0
BBX 0 0 0 0
BITMAP
ENDCHAR
STARTCHAR 009D
ENCODING 157
SWIDTH 444 0
DWIDTH 20 0
BBX 0 0 0 0
BITMAP
ENDCHAR
STARTCHAR 009E
ENCODING 158
SWIDTH 444 0
DWIDTH 20 0
BBX 0 0 0 0
BITMAP
ENDCHAR
STARTCHAR 009F
ENCODING 159
SWIDTH 444 0
DWIDTH 20 0
BBX 0 0 0 0
BITMAP
ENDCHAR
STARTCHAR 00A0
ENCODING 160
SWIDTH 444 0
DWIDTH 20 0
BBX 0 0 0 0
BITMAP
ENDCHAR
STARTCHAR 00A1
ENCODING 161
SWIDTH 444 0
DWIDTH 20 0
BBX 0 0 0 0
BITMAP
ENDCHAR
STARTCHAR 00A2
ENCODING 162
SWIDTH 444 0
DWIDTH 20 0
BBX 0 0 0 0
BITMAP
ENDCHAR
STARTCHAR 00A3
ENCODING 163
SWIDTH 444 0
DWIDTH 20 0
BBX 16 32 2 0
BITMAP
03F0
07F8
0FFC
1FFE
3E1E
3C1F
3C0F
3C00
3C00
3C00
3C00
3C00
3C00
3C00
FFE0
FFE0
FFE0
FFE0
3C00
3C00
3C00
3C00
3C00
3C00
3C00
3C00
3C00
7C00
FFFF
FFFF
FFFF
FFFF
ENDCHAR
STARTCHAR 00A4
ENCODING 164
SWIDTH 444 0
DWIDTH 20 0
BBX 0 0 0 0
BITMAP
ENDCHAR
STARTCHAR 00A5
ENCODING 165
SWIDTH 444 0
DWIDTH 20 0
BBX 0 0 0 0
BITMAP
ENDCHAR
STARTCHAR 00A6
ENCODING 166
SWIDTH 444 0
DWIDTH 20 0
BBX 0 0 0 0
BITMAP
ENDCHAR
STARTCHAR 00A7
ENCODING 167
SWIDTH 800 0
DWIDTH 36 0
BBX 32 24 2 0
BITMAP
007C01F0
00F801E0
00F803E0
01F007C0
01F807E0
03F80FE0
03FC0FF0
07FC1FF0
0FBE1EF8
0F9E3E7C
1F1F3C7C
1E0F783E
3E07F81E
7C07F01F
7C03F00F
FC03F00F
FC03F00F
FC03F00F
FE07F81F
FF0FFC3E
DFFF3FFE
8FFF3FFC
87FC1FF8
01F807E0
ENDCHAR
STARTCHAR 00A8
ENCODING 168
SWIDTH 444 0
DWIDTH 20 0
BBX 0 0 0 0
BITMAP
ENDCHAR
STARTCHAR 00A9
ENCODING 169
SWIDTH 711 0
DWIDTH 32 0
BBX 28 32 2 0
BITMAP
003FC000
00FFF000
03FFFC00
07FFFE00
0FE07F00
1F801F80
3E0007C0
3C1F83C0
7C3FC3E0
787FE1E0
F8FFF1F0
F1F0F0F0
F1E078F0
F1E078F0
F00078F0
F00078F0
F00078F0
F00078F0
F1E078F0
F1E078F0
F1F0F0F0
F8FFF1F0
787FE1E0
7C3FC3E0
3C1F83C0
3E0007C0
1F801F80
0FE07F00
07FFFE00
03FFFC00
00FFF000
003FC000
ENDCHAR
STARTCHAR 00AA
ENCODING 170
SWIDTH 444 0
DWIDTH 20 0
BBX 0 0 0 0
BITMAP
ENDCHAR
STARTCHAR 00AB
ENCODING 171
SWIDTH 444 0
DWIDTH 20 0
BBX 16 16 2 7
BITMAP
0103
0707
0F0F
1F1F
3E7E
F8F8
F1F0
E1E0
E1E0
F1F0
F8F8
3E7C
1F3F
0F0F
0707
0303
ENDCHAR
STARTCHAR 00AC
ENCODING 172
SWIDTH 444 0
DWIDTH 20 0
BBX 0 0 0 0
BITMAP
ENDCHAR
STARTCHAR 00AD
ENCODING 173
SWIDTH 444 0
DWIDTH 20 0
BBX 0 0 0 0
BITMAP
ENDCHAR
STARTCHAR 00AE
ENCODING 174
SWIDTH 444 0
DWIDTH 20 0
BBX 0 0 0 0
BITMAP
ENDCHAR
STARTCHAR 00AF
ENCODING 175
SWIDTH 444 0
DWIDTH 20 0
BBX 0 0 0 0
BITMAP
ENDCHAR
STARTCHAR 00B0
ENCODING 176
SWIDTH 244 0
DWIDTH 11 0
BBX 7 7 2 29
BITMAP
38
7C
E6
C6
EE
7C
38
ENDCHAR
STARTCHAR 00B1
ENCODING 177
SWIDTH 444 0
DWIDTH 20 0
BBX 0 0 0 0
BITMAP
ENDCHAR
STARTCHAR 00B2
ENCODING 178
SWIDTH 444 0
DWIDTH 20 0
BBX 0 0 0 0
BITMAP
ENDCHAR
STARTCHAR 00B3
ENCODING 179
SWIDTH 444 0
DWIDTH 20 0
BBX 0 0 0 0
BITMAP
ENDCHAR
STARTCHAR 00B4
ENCODING 180
SWIDTH 444 0
DWIDTH 20 0
BBX 0 0 0 0
BITMAP
ENDCHAR
STARTCHAR 00B5
ENCODING 181
SWIDTH 444 0
DWIDTH 20 0
BBX 16 30 2 -6
BITMAP
F00F
F00F
F00F
F00F
F00F
F00F
F00F
F00F
F00F
F00F
F00F
F00F
F00F
F00F
F00F
F00F
F00F
F00F
F81F
FC3F
FFFF
FFFF
FFFF
F7EF
F000
F000
F000
F000
F000
F000
ENDCHAR
STARTCHAR 00B6
ENCODING 182
SWIDTH 444 0
DWIDTH 20 0
BBX 0 0 0 0
BITMAP
ENDCHAR
STARTCHAR 00B7
ENCODING 183
SWIDTH 444 0
DWIDTH 20 0
BBX 0 0 0 0
BITMAP
ENDCHAR
STARTCHAR 00B8
ENCODING 184
SWIDTH 444 0
DWIDTH 20 0
BBX 0 0 0 0
BITMAP
ENDCHAR
STARTCHAR 00B9
ENCODING 185
SWIDTH 444 0
DWIDTH 20 0
BBX 0 0 0 0
BITMAP
ENDCHAR
STARTCHAR 00BA
ENCODING 186
SWIDTH 444 0
DWIDTH 20 0
BBX 0 0 0 0
BITMAP
ENDCHAR
STARTCHAR 00BB
ENCODING 187
SWIDTH 444 0
DWIDTH 20 0
BBX 16 16 2 7
BITMAP
8180
C1C0
E1E0
F9F0
7CFC
3E3E
1F1F
0F0F
070F
1F1F
3E3E
7C7C
F9F8
F1E0
C1C0
8180
ENDCHAR
STARTCHAR 00BC
ENCODING 188
SWIDTH 444 0
DWIDTH 20 0
BBX 0 0 0 0
BITMAP
ENDCHAR
STARTCHAR 00BD
ENCODING 189
SWIDTH 444 0
DWIDTH 20 0
BBX 0 0 0 0
BITMAP
ENDCHAR
STARTCHAR 00BE
ENCODING 190
SWIDTH 444 0
DWIDTH 20 0
BBX 0 0 0 0
BITMAP
ENDCHAR
STARTCHAR 00BF
ENCODING 191
SWIDTH 444 0
DWIDTH 20 0
BBX 0 0 0 0
BITMAP
ENDCHAR
STARTCHAR 00C0
ENCODING 192
SWIDTH 444 0
DWIDTH 20 0
BBX 16 39 2 0
BITMAP
0F00
0780
03C0
01C0
00E0
0070
0070
03C0
03C0
03E0
03E0
07E0
07E0
07E0
07F0
07F0
0FF0
0FF0
0FF0
0FF0
0F78
1E78
1E78
1E78
1E78
1E3C
1E3C
3C3C
3C3C
3FFC
3FFC
3FFE
7FFE
781E
781E
781E
780F
700F
F00F
ENDCHAR
STARTCHAR 00C1
ENCODING 193
SWIDTH 444 0
DWIDTH 20 0
BBX 16 39 2 0
BITMAP
0070
00F0
01E0
01C0
0380
0700
0700
03C0
03C0
03E0
03E0
07E0
07E0
07E0
07F0
07F0
0FF0
0FF0
0FF0
0FF0
0F78
1E78
1E78
1E78
1E78
1E3C
1E3C
3C3C
3C3C
3FFC
3FFC
3FFE
7FFE
781E
781E
781E
780F
700F
F00F
ENDCHAR
STARTCHAR 00C2
ENCODING 194
SWIDTH 444 0
DWIDTH 20 0
BBX 16 39 2 0
BITMAP
03C0
07E0
07E0
0F70
1E78
1C38
381C
03C0
03C0
03E0
03E0
07E0
07E0
07E0
07F0
07F0
0FF0
0FF0
0FF0
0FF0
0F78
1E78
1E78
1E78
1E78
1E3C
1E3C
3C3C
3C3C
3FFC
3FFC
3FFE
7FFE
781E
781E
781E
780F
700F
F00F
ENDCHAR
STARTCHAR 00C3
ENCODING 195
SWIDTH 444 0
DWIDTH 20 0
BBX 0 0 0 0
BITMAP
ENDCHAR
STARTCHAR 00C4
ENCODING 196
SWIDTH 466 0
DWIDTH 21 0
BBX 15 38 3 0
BITMAP
0C60
1EF0
1EF0
0C60
0000
0000
07C0
07C0
07C0
07C0
07C0
0FE0
0FE0
0FE0
0FE0
0FE0
0FE0
1FF0
1EF0
1EF0
1EF0
1EF0
3C78
3C78
3C78
3C78
3C78
3878
7FFC
7FFC
7FFC
7FFC
783C
F01E
F01E
F01E
F01E
F01E
ENDCHAR
STARTCHAR 00C5
ENCODING 197
SWIDTH 444 0
DWIDTH 20 0
BBX 0 0 0 0
BITMAP
ENDCHAR
STARTCHAR 00C6
ENCODING 198
SWIDTH 444 0
DWIDTH 20 0
BBX 27 32 -3 0
BITMAP
001FFFE0
003FFFE0
003FFFE0
003FFFE0
007F8000
007F8000
00FF8000
00F78000
00F78000
01E78000
01E78000
01E78000
03E78000
03C78000
03C7FF00
07C7FF00
0787FF00
0787FF00
0F878000
0F078000
0F078000
1FFF8000
1FFF8000
3FFF8000
3FFF8000
3C078000
7C078000
78078000
7807FFE0
F807FFE0
F007FFE0
F007FFE0
ENDCHAR
STARTCHAR 00C7
ENCODING 199
SWIDTH 444 0
DWIDTH 20 0
BBX 0 0 0 0
BITMAP
ENDCHAR
STARTCHAR 00C8
ENCODING 200
SWIDTH 444 0
DWIDTH 20 0
BBX 16 39 2 0
BITMAP
0F00
0780
03C0
01C0
00E0
00F0
0070
FFFF
FFFF
FFFF
FFFF
F000
F000
F000
F000
F000
F000
F000
F000
F000
F000
FFF0
FFF0
FFF0
FFF0
F000
F000
F000
F000
F000
F000
F000
F000
F000
F000
FFFF
FFFF
FFFF
FFFF
ENDCHAR
STARTCHAR 00C9
ENCODING 201
SWIDTH 444 0
DWIDTH 20 0
BBX 16 39 2 0
BITMAP
00F0
00F0
01E0
03C0
0380
0700
0E00
FFFF
FFFF
FFFF
FFFF
F000
F000
F000
F000
F000
F000
F000
F000
F000
F000
FFF0
FFF0
FFF0
FFF0
F000
F000
F000
F000
F000
F000
F000
F000
F000
F000
FFFF
FFFF
FFFF
FFFF
ENDCHAR
STARTCHAR 00CA
ENCODING 202
SWIDTH 444 0
DWIDTH 20 0
BBX 16 39 2 0
BITMAP
03C0
07E0
07E0
0EF0
1E78
1C38
381C
FFFF
FFFF
FFFF
FFFF
F000
F000
F000
F000
F000
F000
F000
F000
F000
F000
FFF0
FFF0
FFF0
FFF0
F000
F000
F000
F000
F000
F000
F000
F000
F000
F000
FFFF
FFFF
FFFF
FFFF
ENDCHAR
STARTCHAR 00CB
ENCODING 203
SWIDTH 444 0
DWIDTH 20 0
BBX 16 38 2 0
BITMAP
0C60
1EF0
1EF0
0C60
0000
0000
FFFF
FFFF
FFFF
FFFF
F000
F000
F000
F000
F000
F000
F000
F000
F000
F000
FFE0
FFE0
FFE0
FFE0
F000
F000
F000
F000
F000
F000
F000
F000
F000
F000
FFFF
FFFF
FFFF
FFFF
ENDCHAR
STARTCHAR 00CC
ENCODING 204
SWIDTH 444 0
DWIDTH 20 0
BBX 8 39 6 0
BITMAP
F0
78
3C
1C
0E
07
07
3C
3C
3C
3C
3C
3C
3C
3C
3C
3C
3C
3C
3C
3C
3C
3C
3C
3C
3C
3C
3C
3C
3C
3C
3C
3C
3C
3C
3C
3C
3C
3C
ENDCHAR
STARTCHAR 00CD
ENCODING 205
SWIDTH 444 0
DWIDTH 20 0
BBX 8 39 6 0
BITMAP
0F
0F
1E
3C
38
70
E0
3C
3C
3C
3C
3C
3C
3C
3C
3C
3C
3C
3C
3C
3C
3C
3C
3C
3C
3C
3C
3C
3C
3C
3C
3C
3C
3C
3C
3C
3C
3C
3C
ENDCHAR
STARTCHAR 00CE
ENCODING 206
SWIDTH 444 0
DWIDTH 20 0
BBX 12 39 4 0
BITMAP
0F00
1F80
1F80
3DC0
79E0
70E0
E070
0F00
0F00
0F00
0F00
0F00
0F00
0F00
0F00
0F00
0F00
0F00
0F00
0F00
0F00
0F00
0F00
0F00
0F00
0F00
0F00
0F00
0F00
0F00
0F00
0F00
0F00
0F00
0F00
0F00
0F00
0F00
0F00
ENDCHAR
STARTCHAR 00CF
ENCODING 207
SWIDTH 466 0
DWIDTH 21 0
BBX 9 38 6 0
BITMAP
6300
F780
F780
6300
0000
0000
3C00
3C00
3C00
3C00
3C00
3C00
3C00
3C00
3C00
3C00
3C00
3C00
3C00
3C00
3C00
3C00
3C00
3C00
3C00
3C00
3C00
3C00
3C00
3C00
3C00
3C00
3C00
3C00
3C00
3C00
3C00
3C00
ENDCHAR
STARTCHAR 00D0
ENCODING 208
SWIDTH 444 0
DWIDTH 20 0
BBX 0 0 0 0
BITMAP
ENDCHAR
STARTCHAR 00D1
ENCODING 209
SWIDTH 444 0
DWIDTH 20 0
BBX 0 0 0 0
BITMAP
ENDCHAR
STARTCHAR 00D2
ENCODING 210
SWIDTH 444 0
DWIDTH 20 0
BBX 16 39 2 0
BITMAP
0F00
0780
03C0
01C0
00E0
00F0
0070
07E0
1FF8
3FFC
7FFE
7C3E
F81F
F00F
F00F
F00F
F00F
F00F
F00F
F00F
F00F
F00F
F00F
F00F
F00F
F00F
F00F
F00F
F00F
F00F
F00F
F00F
F00F
F81F
7C3E
7FFE
3FFC
1FF8
07E0
ENDCHAR
STARTCHAR 00D3
ENCODING 211
SWIDTH 444 0
DWIDTH 20 0
BBX 16 39 2 0
BITMAP
00F0
00F0
01E0
03C0
0380
0700
0E00
07E0
1FF8
3FFC
7FFE
7C3E
F81F
F00F
F00F
F00F
F00F
F00F
F00F
F00F
F00F
F00F
F00F
F00F
F00F
F00F
F00F
F00F
F00F
F00F
F00F
F00F
F00F
F81F
7C3E
7FFE
3FFC
1FF8
07E0
ENDCHAR
STARTCHAR 00D4
ENCODING 212
SWIDTH 444 0
DWIDTH 20 0
BBX 16 39 2 0
BITMAP
03C0
07E0
07E0
0EF0
1E78
1C38
381C
07E0
1FF8
3FFC
7FFE
7C3E
F81F
F00F
F00F
F00F
F00F
F00F
F00F
F00F
F00F
F00F
F00F
F00F
F00F
F00F
F00F
F00F
F00F
F00F
F00F
F00F
F00F
F81F
7C3E
7FFE
3FFC
1FF8
07E0
ENDCHAR
STARTCHAR 00D5
ENCODING 213
SWIDTH 444 0
DWIDTH 20 0
BBX 16 32 2 0
BITMAP
07E0
1FF8
3FFC
7FFE
7C3E
F81F
F00F
F00F
F00F
F00F
F00F
F00F
F00F
F00F
F00F
F00F
F00F
F00F
F00F
F00F
F00F
F00F
F00F
F00F
F00F
F00F
F81F
7C3E
7FFE
3FFC
1FF8
07E0
ENDCHAR
STARTCHAR 00D6
ENCODING 214
SWIDTH 444 0
DWIDTH 20 0
BBX 16 38 2 0
BITMAP
0C60
1EF0
1EF0
0C60
0000
0000
07E0
1FF8
3FFC
7FFE
7C3E
F81F
F00F
F00F
F00F
F00F
F00F
F00F
F00F
F00F
F00F
F00F
F00F
F00F
F00F
F00F
F00F
F00F
F00F
F00F
F00F
F00F
F81F
7C3E
7FFE
3FFC
1FF8
07E0
ENDCHAR
STARTCHAR 00D7
ENCODING 215
SWIDTH 444 0
DWIDTH 20 0
BBX 0 0 0 0
BITMAP
ENDCHAR
STARTCHAR 00D8
ENCODING 216
SWIDTH 444 0
DWIDTH 20 0
BBX 0 0 0 0
BITMAP
ENDCHAR
STARTCHAR 00D9
ENCODING 217
SWIDTH 444 0
DWIDTH 20 0
BBX 16 39 2 0
BITMAP
0F00
0780
03C0
01C0
00E0
00F0
0070
F00F
F00F
F00F
F00F
F00F
F00F
F00F
F00F
F00F
F00F
F00F
F00F
F00F
F00F
F00F
F00F
F00F
F00F
F00F
F00F
F00F
F00F
F00F
F00F
F00F
F00F
F81F
7C3E
7FFE
3FFC
1FF8
07E0
ENDCHAR
STARTCHAR 00DA
ENCODING 218
SWIDTH 444 0
DWIDTH 20 0
BBX 16 39 2 0
BITMAP
00F0
00F0
01E0
03C0
0380
0700
0E00
F00F
F00F
F00F
F00F
F00F
F00F
F00F
F00F
F00F
F00F
F00F
F00F
F00F
F00F
F00F
F00F
F00F
F00F
F00F
F00F
F00F
F00F
F00F
F00F
F00F
F00F
F81F
7C3E
7FFE
3FFC
1FF8
07E0
ENDCHAR
STARTCHAR 00DB
ENCODING 219
SWIDTH 444 0
DWIDTH 20 0
BBX 16 39 2 0
BITMAP
03C0
07E0
07E0
0EF0
1E78
1C38
381C
F00F
F00F
F00F
F00F
F00F
F00F
F00F
F00F
F00F
F00F
F00F
F00F
F00F
F00F
F00F
F00F
F00F
F00F
F00F
F00F
F00F
F00F
F00F
F00F
F00F
F00F
F81F
7C3E
7FFE
3FFC
1FF8
07E0
ENDCHAR
STARTCHAR 00DC
ENCODING 220
SWIDTH 444 0
DWIDTH 20 0
BBX 16 38 2 0
BITMAP
0C60
1EF0
1EF0
0C60
0000
0000
F00F
F00F
F00F
F00F
F00F
F00F
F00F
F00F
F00F
F00F
F00F
F00F
F00F
F00F
F00F
F00F
F00F
F00F
F00F
F00F
F00F
F00F
F00F
F00F
F00F
F00F
F81F
7C3E
7FFE
3FFC
1FF8
07E0
ENDCHAR
STARTCHAR 00DD
ENCODING 221
SWIDTH 444 0
DWIDTH 20 0
BBX 0 0 0 0
BITMAP
ENDCHAR
STARTCHAR 00DE
ENCODING 222
SWIDTH 444 0
DWIDTH 20 0
BBX 0 0 0 0
BITMAP
ENDCHAR
STARTCHAR 00DF
ENCODING 223
SWIDTH 444 0
DWIDTH 20 0
BBX 16 32 2 0
BITMAP
0FC0
1FE0
3FF0
7FF8
F87C
F03C
F03C
F03C
F03C
F07C
F3F8
F3F8
F3FC
F3FE
F03E
F01F
F00F
F00F
F00F
F00F
F00F
F00F
F00F
F00F
F00F
F00F
F01F
F03E
F3FE
F3FC
F3F8
F3E0
ENDCHAR
STARTCHAR 00E0
ENCODING 224
SWIDTH 488 0
DWIDTH 22 0
BBX 18 32 2 0
BITMAP
0F0000
078000
03C000
01C000
00E000
007000
000000
000000
07F000
0FF800
1FFC00
3FFE00
7C1F00
780F00
780F00
780F00
000F00
001F00
0FFF00
1FFF00
3FFF00
7FFF00
F80F00
F00F00
F00F00
F00F00
F00F00
F81F80
7FFFC0
3FFFC0
1FFBC0
0FF0C0
ENDCHAR
STARTCHAR 00E1
ENCODING 225
SWIDTH 488 0
DWIDTH 22 0
BBX 18 32 2 0
BITMAP
00F000
01E000
03C000
038000
070000
0E0000
000000
000000
07F000
0FF800
1FFC00
3FFE00
7C1F00
780F00
780F00
780F00
000F00
001F00
0FFF00
1FFF00
3FFF00
7FFF00
F80F00
F00F00
F00F00
F00F00
F00F00
F81F80
7FFFC0
3FFFC0
1FFBC0
0FF0C0
ENDCHAR
STARTCHAR 00E2
ENCODING 226
SWIDTH 488 0
DWIDTH 22 0
BBX 18 32 2 0
BITMAP
07C000
0FC000
0FE000
1CF000
3C7000
383800
000000
000000
07F000
0FF800
1FFC00
3FFE00
7C1F00
780F00
780F00
780F00
000F00
001F00
0FFF00
1FFF00
3FFF00
7FFF00
F80F00
F00F00
F00F00
F00F00
F00F00
F81F80
7FFFC0
3FFFC0
1FFBC0
0FF0C0
ENDCHAR
STARTCHAR 00E3
ENCODING 227
SWIDTH 444 0
DWIDTH 20 0
BBX 0 0 0 0
BITMAP
ENDCHAR
STARTCHAR 00E4
ENCODING 228
SWIDTH 488 0
DWIDTH 22 0
BBX 18 31 2 0
BITMAP
0C6000
1EF000
1EF000
0C6000
000000
000000
000000
07F000
0FF800
1FFC00
3FFE00
7C1F00
780F00
780F00
780F00
000F00
001F00
0FFF00
1FFF00
3FFF00
7FFF00
F80F00
F00F00
F00F00
F00F00
F00F00
F81F80
7FFFC0
3FFFC0
1FFBC0
0FE1C0
ENDCHAR
STARTCHAR 00E5
ENCODING 229
SWIDTH 444 0
DWIDTH 20 0
BBX 0 0 0 0
BITMAP
ENDCHAR
STARTCHAR 00E6
ENCODING 230
SWIDTH 622 0
DWIDTH 28 0
BBX 24 24 2 0
BITMAP
0FC3F0
1FE7F8
3FFFFC
7FFFFE
F87E1F
F03C0F
F03C0F
003C0F
003C0F
003C0F
0FFFFF
3FFFFF
7FFFFF
FFFFFF
F83C00
F03C00
F03C00
F03C0F
F07C0F
F8FE1F
7FFFFE
7FFFFC
3FE7F8
0F83F0
ENDCHAR
STARTCHAR 00E7
ENCODING 231
SWIDTH 444 0
DWIDTH 20 0
BBX 16 30 2 -6
BITMAP
07E0
1FF8
3FFC
7FFE
7C3E
F81F
F00F
F00F
F000
F000
F000
F000
F000
F000
F000
F000
F00F
F00F
F81F
7C3E
7FFE
3FFC
1FF8
07E0
03C0
03C0
1FC0
1FC0
1FC0
1F80
ENDCHAR
STARTCHAR 00E8
ENCODING 232
SWIDTH 444 0
DWIDTH 20 0
BBX 16 32 2 0
BITMAP
0F00
0780
03C0
01C0
00E0
0070
0000
0000
07E0
1FF8
3FFC
7FFE
7C3E
F81F
F00F
F00F
F00F
F00F
FFFF
FFFF
FFFF
FFFF
F000
F000
F000
F000
F81E
7C3E
7FFE
3FFC
1FF8
07E0
ENDCHAR
STARTCHAR 00E9
ENCODING 233
SWIDTH 444 0
DWIDTH 20 0
BBX 16 32 2 0
BITMAP
00F0
01E0
03C0
0380
0700
0E00
0000
0000
07E0
1FF8
3FFC
7FFE
7C3E
F81F
F00F
F00F
F00F
F00F
FFFF
FFFF
FFFF
FFFF
F000
F000
F000
F000
F81E
7C3E
7FFE
3FFC
1FF8
07E0
ENDCHAR
STARTCHAR 00EA
ENCODING 234
SWIDTH 444 0
DWIDTH 20 0
BBX 16 32 2 0
BITMAP
03C0
07E0
0FF0
0E70
1C38
381C
0000
0000
07E0
1FF8
3FFC
7FFE
7C3E
F81F
F00F
F00F
F00F
F00F
FFFF
FFFF
FFFF
FFFF
F000
F000
F000
F000
F81E
7C3E
7FFE
3FFC
1FF8
07E0
ENDCHAR
STARTCHAR 00EB
ENCODING 235
SWIDTH 444 0
DWIDTH 20 0
BBX 16 31 2 0
BITMAP
0C60
1EF0
1EF0
0C60
0000
0000
0000
07E0
1FF8
3FFC
7FFE
7C3E
F81F
F00F
F00F
F00F
F00F
FFFF
FFFF
FFFF
FFFF
F000
F000
F000
F000
F81C
7C3E
7FFE
3FFC
1FF8
07E0
ENDCHAR
STARTCHAR 00EC
ENCODING 236
SWIDTH 266 0
DWIDTH 12 0
BBX 7 32 2 0
BITMAP
F0
70
78
3C
1C
0E
00
00
78
78
78
78
78
78
78
78
78
78
78
78
78
78
78
78
78
78
78
7C
3E
3E
1E
06
ENDCHAR
STARTCHAR 00ED
ENCODING 237
SWIDTH 266 0
DWIDTH 12 0
BBX 7 32 3 0
BITMAP
1E
3C
38
70
E0
E0
00
00
F0
F0
F0
F0
F0
F0
F0
F0
F0
F0
F0
F0
F0
F0
F0
F0
F0
F0
F0
F8
7C
7C
3C
0C
ENDCHAR
STARTCHAR 00EE
ENCODING 238
SWIDTH 266 0
DWIDTH 12 0
BBX 12 32 -1 0
BITMAP
0F00
1F80
3FC0
39C0
70E0
E070
0000
0000
0F00
0F00
0F00
0F00
0F00
0F00
0F00
0F00
0F00
0F00
0F00
0F00
0F00
0F00
0F00
0F00
0F00
0F00
0F00
0F80
07C0
07C0
03C0
00C0
ENDCHAR
STARTCHAR 00EF
ENCODING 239
SWIDTH 244 0
DWIDTH 11 0
BBX 9 32 1 0
BITMAP
6300
F780
F780
6300
0000
0000
0000
0000
3C00
3C00
3C00
3C00
3C00
3C00
3C00
3C00
3C00
3C00
3C00
3C00
3C00
3C00
3C00
3C00
3C00
3C00
3C00
3E00
1F00
1F00
0F00
0300
ENDCHAR
STARTCHAR 00F0
ENCODING 240
SWIDTH 444 0
DWIDTH 20 0
BBX 0 0 0 0
BITMAP
ENDCHAR
STARTCHAR 00F1
ENCODING 241
SWIDTH 444 0
DWIDTH 20 0
BBX 0 0 0 0
BITMAP
ENDCHAR
STARTCHAR 00F2
ENCODING 242
SWIDTH 444 0
DWIDTH 20 0
BBX 16 39 2 0
BITMAP
1F00
0F00
0780
03C0
03C0
01E0
00E0
0000
0000
0000
0000
0000
0000
0000
0000
07E0
1FF8
3FFC
7FFE
7C3E
F81F
F00F
F00F
F00F
F00F
F00F
F00F
F00F
F00F
F00F
F00F
F00F
F00F
F81F
7C3E
7FFE
3FFC
1FF8
07E0
ENDCHAR
STARTCHAR 00F3
ENCODING 243
SWIDTH 444 0
DWIDTH 20 0
BBX 16 32 2 0
BITMAP
00F0
01E0
03C0
0380
0700
0E00
0000
0000
07E0
1FF8
3FFC
7FFE
7C3E
F81F
F00F
F00F
F00F
F00F
F00F
F00F
F00F
F00F
F00F
F00F
F00F
F00F
F81F
7C3E
7FFE
3FFC
1FF8
07E0
ENDCHAR
STARTCHAR 00F4
ENCODING 244
SWIDTH 444 0
DWIDTH 20 0
BBX 16 32 2 0
BITMAP
03C0
07E0
0FF0
0E70
1C38
381C
0000
0000
07E0
1FF8
3FFC
7FFE
7C3E
F81F
F00F
F00F
F00F
F00F
F00F
F00F
F00F
F00F
F00F
F00F
F00F
F00F
F81F
7C3E
7FFE
3FFC
1FF8
07E0
ENDCHAR
STARTCHAR 00F5
ENCODING 245
SWIDTH 444 0
DWIDTH 20 0
BBX 16 24 2 0
BITMAP
07E0
1FF8
3FFC
7FFE
7C3E
F81F
F00F
F00F
F00F
F00F
F00F
F00F
F00F
F00F
F00F
F00F
F00F
F00F
F81F
7C3E
7FFE
3FFC
1FF8
07E0
ENDCHAR
STARTCHAR 00F6
ENCODING 246
SWIDTH 444 0
DWIDTH 20 0
BBX 16 31 2 0
BITMAP
0C60
1EF0
1EF0
0C60
0000
0000
0000
07E0
1FF8
3FFC
7FFE
7C3E
F81F
F00F
F00F
F00F
F00F
F00F
F00F
F00F
F00F
F00F
F00F
F00F
F00F
F81F
7C3E
7FFE
3FFC
1FF8
07E0
ENDCHAR
STARTCHAR 00F7
ENCODING 247
SWIDTH 444 0
DWIDTH 20 0
BBX 12 18 4 3
BITMAP
0600
0F00
0F00
0600
0000
0000
0000
FFF0
FFF0
FFF0
FFF0
0000
0000
0000
0600
0F00
0F00
0600
ENDCHAR
STARTCHAR 00F8
ENCODING 248
SWIDTH 444 0
DWIDTH 20 0
BBX 16 32 2 0
BITMAP
07EF
1FFE
3FFE
7FFE
7C3E
F83F
F07F
F07F
F07F
F0FF
F0FF
F0FF
F1EF
F1EF
F3EF
F3CF
F3CF
F78F
F78F
F78F
FF0F
FF0F
FF0F
FE0F
FE0F
FC0F
FC1F
7C3E
7FFE
7FFC
7FF8
F7E0
ENDCHAR
STARTCHAR 00F9
ENCODING 249
SWIDTH 444 0
DWIDTH 20 0
BBX 16 32 2 0
BITMAP
0F00
0780
03C0
01C0
00E0
0070
0000
0000
F00F
F00F
F00F
F00F
F00F
F00F
F00F
F00F
F00F
F00F
F00F
F00F
F00F
F00F
F00F
F00F
F00F
F00F
F81F
7C3F
7FFF
3FFF
1FFF
07EF
ENDCHAR
STARTCHAR 00FA
ENCODING 250
SWIDTH 444 0
DWIDTH 20 0
BBX 16 32 2 0
BITMAP
00F0
01E0
03C0
0380
0700
0E00
0000
0000
F00F
F00F
F00F
F00F
F00F
F00F
F00F
F00F
F00F
F00F
F00F
F00F
F00F
F00F
F00F
F00F
F00F
F00F
F81F
7C3F
7FFF
3FFF
1FFF
07EF
ENDCHAR
STARTCHAR 00FB
ENCODING 251
SWIDTH 444 0
DWIDTH 20 0
BBX 16 32 2 0
BITMAP
03C0
07E0
0FF0
0E70
1C38
381C
0000
0000
F00F
F00F
F00F
F00F
F00F
F00F
F00F
F00F
F00F
F00F
F00F
F00F
F00F
F00F
F00F
F00F
F00F
F00F
F81F
7C3F
7FFF
3FFF
1FFF
07EF
ENDCHAR
STARTCHAR 00FC
ENCODING 252
SWIDTH 444 0
DWIDTH 20 0
BBX 16 31 2 0
BITMAP
0C60
1EF0
1EF0
0C60
0000
0000
0000
F00F
F00F
F00F
F00F
F00F
F00F
F00F
F00F
F00F
F00F
F00F
F00F
F00F
F00F
F00F
F00F
F00F
F00F
F81F
7C3F
7FFF
3FFF
1FFF
07EF
ENDCHAR
STARTCHAR 00FD
ENCODING 253
SWIDTH 444 0
DWIDTH 20 0
BBX 0 0 0 0
BITMAP
ENDCHAR
STARTCHAR 00FE
ENCODING 254
SWIDTH 444 0
DWIDTH 20 0
BBX 0 0 0 0
BITMAP
ENDCHAR
STARTCHAR 00FF
ENCODING 255
SWIDTH 444 0
DWIDTH 20 0
BBX 0 0 0 0
BITMAP
ENDCHAR
STARTCHAR 0100
ENCODING 256
SWIDTH 444 0
DWIDTH 20 0
BBX 0 0 0 0
BITMAP
ENDCHAR
STARTCHAR 0101
ENCODING 257
SWIDTH 444 0
DWIDTH 20 0
BBX 0 0 0 0
BITMAP
ENDCHAR
STARTCHAR 0102
ENCODING 258
SWIDTH 444 0
DWIDTH 20 0
BBX 0 0 0 0
BITMAP
ENDCHAR
STARTCHAR 0103
ENCODING 259
SWIDTH 444 0
DWIDTH 20 0
BBX 0 0 0 0
BITMAP
ENDCHAR
STARTCHAR 0104
ENCODING 260
SWIDTH 444 0
DWIDTH 20 0
BBX 0 0 0 0
BITMAP
ENDCHAR
STARTCHAR 0105
ENCODING 261
SWIDTH 444 0
DWIDTH 20 0
BBX 0 0 0 0
BITMAP
ENDCHAR
STARTCHAR 0106
ENCODING 262
SWIDTH 444 0
DWIDTH 20 0
BBX 0 0 0 0
BITMAP
ENDCHAR
STARTCHAR 0107
ENCODING 263
SWIDTH 444 0
DWIDTH 20 0
BBX 0 0 0 0
BITMAP
ENDCHAR
STARTCHAR 0108
ENCODING 264
SWIDTH 444 0
DWIDTH 20 0
BBX 0 0 0 0
BITMAP
ENDCHAR
STARTCHAR 0109
ENCODING 265
SWIDTH 444 0
DWIDTH 20 0
BBX 0 0 0 0
BITMAP
ENDCHAR
STARTCHAR 010A
ENCODING 266
SWIDTH 444 0
DWIDTH 20 0
BBX 0 0 0 0
BITMAP
ENDCHAR
STARTCHAR 010B
ENCODING 267
SWIDTH 444 0
DWIDTH 20 0
BBX 0 0 0 0
BITMAP
ENDCHAR
STARTCHAR 010C
ENCODING 268
SWIDTH 444 0
DWIDTH 20 0
BBX 0 0 0 0
BITMAP
ENDCHAR
STARTCHAR 010D
ENCODING 269
SWIDTH 444 0
DWIDTH 20 0
BBX 0 0 0 0
BITMAP
ENDCHAR
STARTCHAR 010E
ENCODING 270
SWIDTH 444 0
DWIDTH 20 0
BBX 0 0 0 0
BITMAP
ENDCHAR
STARTCHAR 010F
ENCODING 271
SWIDTH 444 0
DWIDTH 20 0
BBX 0 0 0 0
BITMAP
ENDCHAR
STARTCHAR 0110
ENCODING 272
SWIDTH 444 0
DWIDTH 20 0
BBX 0 0 0 0
BITMAP
ENDCHAR
STARTCHAR 0111
ENCODING 273
SWIDTH 444 0
DWIDTH 20 0
BBX 0 0 0 0
BITMAP
ENDCHAR
STARTCHAR 0112
ENCODING 274
SWIDTH 444 0
DWIDTH 20 0
BBX 0 0 0 0
BITMAP
ENDCHAR
STARTCHAR 0113
ENCODING 275
SWIDTH 444 0
DWIDTH 20 0
BBX 0 0 0 0
BITMAP
ENDCHAR
STARTCHAR 0114
ENCODING 276
SWIDTH 444 0
DWIDTH 20 0
BBX 0 0 0 0
BITMAP
ENDCHAR
STARTCHAR 0115
ENCODING 277
SWIDTH 444 0
DWIDTH 20 0
BBX 0 0 0 0
BITMAP
ENDCHAR
STARTCHAR 0116
ENCODING 278
SWIDTH 444 0
DWIDTH 20 0
BBX 0 0 0 0
BITMAP
ENDCHAR
STARTCHAR 0117
ENCODING 279
SWIDTH 444 0
DWIDTH 20 0
BBX 0 0 0 0
BITMAP
ENDCHAR
STARTCHAR 0118
ENCODING 280
SWIDTH 444 0
DWIDTH 20 0
BBX 0 0 0 0
BITMAP
ENDCHAR
STARTCHAR 0119
ENCODING 281
SWIDTH 444 0
DWIDTH 20 0
BBX 0 0 0 0
BITMAP
ENDCHAR
STARTCHAR 011A
ENCODING 282
SWIDTH 444 0
DWIDTH 20 0
BBX 0 0 0 0
BITMAP
ENDCHAR
STARTCHAR 011B
ENCODING 283
SWIDTH 444 0
DWIDTH 20 0
BBX 0 0 0 0
BITMAP
ENDCHAR
STARTCHAR 011C
ENCODING 284
SWIDTH 444 0
DWIDTH 20 0
BBX 0 0 0 0
BITMAP
ENDCHAR
STARTCHAR 011D
ENCODING 285
SWIDTH 444 0
DWIDTH 20 0
BBX 0 0 0 0
BITMAP
ENDCHAR
STARTCHAR 011E
ENCODING 286
SWIDTH 444 0
DWIDTH 20 0
BBX 0 0 0 0
BITMAP
ENDCHAR
STARTCHAR 011F
ENCODING 287
SWIDTH 444 0
DWIDTH 20 0
BBX 0 0 0 0
BITMAP
ENDCHAR
STARTCHAR 0120
ENCODING 288
SWIDTH 444 0
DWIDTH 20 0
BBX 0 0 0 0
BITMAP
ENDCHAR
STARTCHAR 0121
ENCODING 289
SWIDTH 444 0
DWIDTH 20 0
BBX 0 0 0 0
BITMAP
ENDCHAR
STARTCHAR 0122
ENCODING 290
SWIDTH 444 0
DWIDTH 20 0
BBX 0 0 0 0
BITMAP
ENDCHAR
STARTCHAR 0123
ENCODING 291
SWIDTH 444 0
DWIDTH 20 0
BBX 0 0 0 0
BITMAP
ENDCHAR
STARTCHAR 0124
ENCODING 292
SWIDTH 444 0
DWIDTH 20 0
BBX 0 0 0 0
BITMAP
ENDCHAR
STARTCHAR 0125
ENCODING 293
SWIDTH 444 0
DWIDTH 20 0
BBX 0 0 0 0
BITMAP
ENDCHAR
STARTCHAR 0126
ENCODING 294
SWIDTH 444 0
DWIDTH 20 0
BBX 0 0 0 0
BITMAP
ENDCHAR
STARTCHAR 0127
ENCODING 295
SWIDTH 444 0
DWIDTH 20 0
BBX 0 0 0 0
BITMAP
ENDCHAR
STARTCHAR 0128
ENCODING 296
SWIDTH 444 0
DWIDTH 20 0
BBX 0 0 0 0
BITMAP
ENDCHAR
STARTCHAR 0129
ENCODING 297
SWIDTH 444 0
DWIDTH 20 0
BBX 0 0 0 0
BITMAP
ENDCHAR
STARTCHAR 012A
ENCODING 298
SWIDTH 444 0
DWIDTH 20 0
BBX 0 0 0 0
BITMAP
ENDCHAR
STARTCHAR 012B
ENCODING 299
SWIDTH 444 0
DWIDTH 20 0
BBX 0 0 0 0
BITMAP
ENDCHAR
STARTCHAR 012C
ENCODING 300
SWIDTH 444 0
DWIDTH 20 0
BBX 0 0 0 0
BITMAP
ENDCHAR
STARTCHAR 012D
ENCODING 301
SWIDTH 444 0
DWIDTH 20 0
BBX 0 0 0 0
BITMAP
ENDCHAR
STARTCHAR 012E
ENCODING 302
SWIDTH 444 0
DWIDTH 20 0
BBX 0 0 0 0
BITMAP
ENDCHAR
STARTCHAR 012F
ENCODING 303
SWIDTH 444 0
DWIDTH 20 0
BBX 0 0 0 0
BITMAP
ENDCHAR
STARTCHAR 0130
ENCODING 304
SWIDTH 444 0
DWIDTH 20 0
BBX 0 0 0 0
BITMAP
ENDCHAR
STARTCHAR 0131
ENCODING 305
SWIDTH 444 0
DWIDTH 20 0
BBX 0 0 0 0
BITMAP
ENDCHAR
STARTCHAR 0132
ENCODING 306
SWIDTH 444 0
DWIDTH 20 0
BBX 0 0 0 0
BITMAP
ENDCHAR
STARTCHAR 0133
ENCODING 307
SWIDTH 444 0
DWIDTH 20 0
BBX 0 0 0 0
BITMAP
ENDCHAR
STARTCHAR 0134
ENCODING 308
SWIDTH 444 0
DWIDTH 20 0
BBX 0 0 0 0
BITMAP
ENDCHAR
STARTCHAR 0135
ENCODING 309
SWIDTH 444 0
DWIDTH 20 0
BBX 0 0 0 0
BITMAP
ENDCHAR
STARTCHAR 0136
ENCODING 310
SWIDTH 444 0
DWIDTH 20 0
BBX 0 0 0 0
BITMAP
ENDCHAR
STARTCHAR 0137
ENCODING 311
SWIDTH 444 0
DWIDTH 20 0
BBX 0 0 0 0
BITMAP
ENDCHAR
STARTCHAR 0138
ENCODING 312
SWIDTH 444 0
DWIDTH 20 0
BBX 0 0 0 0
BITMAP
ENDCHAR
STARTCHAR 0139
ENCODING 313
SWIDTH 444 0
DWIDTH 20 0
BBX 0 0 0 0
BITMAP
ENDCHAR
STARTCHAR 013A
ENCODING 314
SWIDTH 444 0
DWIDTH 20 0
BBX 0 0 0 0
BITMAP
ENDCHAR
STARTCHAR 013B
ENCODING 315
SWIDTH 444 0
DWIDTH 20 0
BBX 0 0 0 0
BITMAP
ENDCHAR
STARTCHAR 013C
ENCODING 316
SWIDTH 444 0
DWIDTH 20 0
BBX 0 0 0 0
BITMAP
ENDCHAR
STARTCHAR 013D
ENCODING 317
SWIDTH 444 0
DWIDTH 20 0
BBX 0 0 0 0
BITMAP
ENDCHAR
STARTCHAR 013E
ENCODING 318
SWIDTH 444 0
DWIDTH 20 0
BBX 0 0 0 0
BITMAP
ENDCHAR
STARTCHAR 013F
ENCODING 319
SWIDTH 444 0
DWIDTH 20 0
BBX 0 0 0 0
BITMAP
ENDCHAR
STARTCHAR 0140
ENCODING 320
SWIDTH 444 0
DWIDTH 20 0
BBX 0 0 0 0
BITMAP
ENDCHAR
STARTCHAR 0141
ENCODING 321
SWIDTH 444 0
DWIDTH 20 0
BBX 0 0 0 0
BITMAP
ENDCHAR
STARTCHAR 0142
ENCODING 322
SWIDTH 444 0
DWIDTH 20 0
BBX 0 0 0 0
BITMAP
ENDCHAR
STARTCHAR 0143
ENCODING 323
SWIDTH 444 0
DWIDTH 20 0
BBX 0 0 0 0
BITMAP
ENDCHAR
STARTCHAR 0144
ENCODING 324
SWIDTH 444 0
DWIDTH 20 0
BBX 0 0 0 0
BITMAP
ENDCHAR
STARTCHAR 0145
ENCODING 325
SWIDTH 444 0
DWIDTH 20 0
BBX 0 0 0 0
BITMAP
ENDCHAR
STARTCHAR 0146
ENCODING 326
SWIDTH 444 0
DWIDTH 20 0
BBX 0 0 0 0
BITMAP
ENDCHAR
STARTCHAR 0147
ENCODING 327
SWIDTH 444 0
DWIDTH 20 0
BBX 0 0 0 0
BITMAP
ENDCHAR
STARTCHAR 0148
ENCODING 328
SWIDTH 444 0
DWIDTH 20 0
BBX 0 0 0 0
BITMAP
ENDCHAR
STARTCHAR 0149
ENCODING 329
SWIDTH 444 0
DWIDTH 20 0
BBX 0 0 0 0
BITMAP
ENDCHAR
STARTCHAR 014A
ENCODING 330
SWIDTH 444 0
DWIDTH 20 0
BBX 0 0 0 0
BITMAP
ENDCHAR
STARTCHAR 014B
ENCODING 331
SWIDTH 444 0
DWIDTH 20 0
BBX 0 0 0 0
BITMAP
ENDCHAR
STARTCHAR 014C
ENCODING 332
SWIDTH 444 0
DWIDTH 20 0
BBX 0 0 0 0
BITMAP
ENDCHAR
STARTCHAR 014D
ENCODING 333
SWIDTH 444 0
DWIDTH 20 0
BBX 0 0 0 0
BITMAP
ENDCHAR
STARTCHAR 014E
ENCODING 334
SWIDTH 444 0
DWIDTH 20 0
BBX 0 0 0 0
BITMAP
ENDCHAR
STARTCHAR 014F
ENCODING 335
SWIDTH 444 0
DWIDTH 20 0
BBX 0 0 0 0
BITMAP
ENDCHAR
STARTCHAR 0150
ENCODING 336
SWIDTH 444 0
DWIDTH 20 0
BBX 0 0 0 0
BITMAP
ENDCHAR
STARTCHAR 0151
ENCODING 337
SWIDTH 444 0
DWIDTH 20 0
BBX 0 0 0 0
BITMAP
ENDCHAR
STARTCHAR 0152
ENCODING 338
SWIDTH 444 0
DWIDTH 20 0
BBX 24 32 -2 0
BITMAP
0F3FFF
3FFFFF
7FFFFF
7FFFFF
F8FE00
F07E00
F07E00
F07E00
F07E00
F07E00
F07E00
F07E00
F07E00
F07E00
F07FFC
F07FFC
F07FFC
F07FFC
F07E00
F07E00
F07E00
F07E00
F07E00
F07E00
F07E00
F07E00
F07E00
F8FE00
7FFFFF
7FFFFF
3FFFFF
0FBFFF
ENDCHAR
STARTCHAR 0153
ENCODING 339
SWIDTH 622 0
DWIDTH 28 0
BBX 24 24 2 0
BITMAP
0FC3F0
1FE7F8
3FFFFC
7FFFFE
F87E1F
F03C0F
F03C0F
F03C0F
F03C0F
F03C0F
F03FFF
F03FFF
F03FFF
F03FFF
F03C00
F03C00
F03C00
F03C0F
F03C0F
F87E1F
7FFFFE
3FFFFC
1FE7F8
0FC3F0
ENDCHAR
STARTCHAR 0154
ENCODING 340
SWIDTH 444 0
DWIDTH 20 0
BBX 0 0 0 0
BITMAP
ENDCHAR
STARTCHAR 0155
ENCODING 341
SWIDTH 444 0
DWIDTH 20 0
BBX 0 0 0 0
BITMAP
ENDCHAR
STARTCHAR 0156
ENCODING 342
SWIDTH 444 0
DWIDTH 20 0
BBX 0 0 0 0
BITMAP
ENDCHAR
STARTCHAR 0157
ENCODING 343
SWIDTH 444 0
DWIDTH 20 0
BBX 0 0 0 0
BITMAP
ENDCHAR
STARTCHAR 0158
ENCODING 344
SWIDTH 444 0
DWIDTH 20 0
BBX 0 0 0 0
BITMAP
ENDCHAR
STARTCHAR 0159
ENCODING 345
SWIDTH 444 0
DWIDTH 20 0
BBX 0 0 0 0
BITMAP
ENDCHAR
STARTCHAR 015A
ENCODING 346
SWIDTH 444 0
DWIDTH 20 0
BBX 0 0 0 0
BITMAP
ENDCHAR
STARTCHAR 015B
ENCODING 347
SWIDTH 444 0
DWIDTH 20 0
BBX 0 0 0 0
BITMAP
ENDCHAR
STARTCHAR 015C
ENCODING 348
SWIDTH 444 0
DWIDTH 20 0
BBX 0 0 0 0
BITMAP
ENDCHAR
STARTCHAR 015D
ENCODING 349
SWIDTH 444 0
DWIDTH 20 0
BBX 0 0 0 0
BITMAP
ENDCHAR
STARTCHAR 015E
ENCODING 350
SWIDTH 444 0
DWIDTH 20 0
BBX 0 0 0 0
BITMAP
ENDCHAR
STARTCHAR 015F
ENCODING 351
SWIDTH 444 0
DWIDTH 20 0
BBX 0 0 0 0
BITMAP
ENDCHAR
STARTCHAR 0160
ENCODING 352
SWIDTH 444 0
DWIDTH 20 0
BBX 0 0 0 0
BITMAP
ENDCHAR
STARTCHAR 0161
ENCODING 353
SWIDTH 444 0
DWIDTH 20 0
BBX 0 0 0 0
BITMAP
ENDCHAR
STARTCHAR 0162
ENCODING 354
SWIDTH 444 0
DWIDTH 20 0
BBX 0 0 0 0
BITMAP
ENDCHAR
STARTCHAR 0163
ENCODING 355
SWIDTH 444 0
DWIDTH 20 0
BBX 0 0 0 0
BITMAP
ENDCHAR
STARTCHAR 0164
ENCODING 356
SWIDTH 444 0
DWIDTH 20 0
BBX 0 0 0 0
BITMAP
ENDCHAR
STARTCHAR 0165
ENCODING 357
SWIDTH 444 0
DWIDTH 20 0
BBX 0 0 0 0
BITMAP
ENDCHAR
STARTCHAR 0166
ENCODING 358
SWIDTH 444 0
DWIDTH 20 0
BBX 0 0 0 0
BITMAP
ENDCHAR
STARTCHAR 0167
ENCODING 359
SWIDTH 444 0
DWIDTH 20 0
BBX 0 0 0 0
BITMAP
ENDCHAR
STARTCHAR 0168
ENCODING 360
SWIDTH 444 0
DWIDTH 20 0
BBX 0 0 0 0
BITMAP
ENDCHAR
STARTCHAR 0169
ENCODING 361
SWIDTH 444 0
DWIDTH 20 0
BBX 0 0 0 0
BITMAP
ENDCHAR
STARTCHAR 016A
ENCODING 362
SWIDTH 444 0
DWIDTH 20 0
BBX 0 0 0 0
BITMAP
ENDCHAR
STARTCHAR 016B
ENCODING 363
SWIDTH 444 0
DWIDTH 20 0
BBX 0 0 0 0
BITMAP
ENDCHAR
STARTCHAR 016C
ENCODING 364
SWIDTH 444 0
DWIDTH 20 0
BBX 0 0 0 0
BITMAP
ENDCHAR
STARTCHAR 016D
ENCODING 365
SWIDTH 444 0
DWIDTH 20 0
BBX 0 0 0 0
BITMAP
ENDCHAR
STARTCHAR 016E
ENCODING 366
SWIDTH 444 0
DWIDTH 20 0
BBX 0 0 0 0
BITMAP
ENDCHAR
STARTCHAR 016F
ENCODING 367
SWIDTH 444 0
DWIDTH 20 0
BBX 0 0 0 0
BITMAP
ENDCHAR
STARTCHAR 0170
ENCODING 368
SWIDTH 444 0
DWIDTH 20 0
BBX 0 0 0 0
BITMAP
ENDCHAR
STARTCHAR 0171
ENCODING 369
SWIDTH 444 0
DWIDTH 20 0
BBX 0 0 0 0
BITMAP
ENDCHAR
STARTCHAR 0172
ENCODING 370
SWIDTH 444 0
DWIDTH 20 0
BBX 0 0 0 0
BITMAP
ENDCHAR
STARTCHAR 0173
ENCODING 371
SWIDTH 444 0
DWIDTH 20 0
BBX 0 0 0 0
BITMAP
ENDCHAR
STARTCHAR 0174
ENCODING 372
SWIDTH 444 0
DWIDTH 20 0
BBX 0 0 0 0
BITMAP
ENDCHAR
STARTCHAR 0175
ENCODING 373
SWIDTH 444 0
DWIDTH 20 0
BBX 0 0 0 0
BITMAP
ENDCHAR
STARTCHAR 0176
ENCODING 374
SWIDTH 444 0
DWIDTH 20 0
BBX 0 0 0 0
BITMAP
ENDCHAR
STARTCHAR 0177
ENCODING 375
SWIDTH 444 0
DWIDTH 20 0
BBX 0 0 0 0
BITMAP
ENDCHAR
STARTCHAR 0178
ENCODING 376
SWIDTH 444 0
DWIDTH 20 0
BBX 0 0 0 0
BITMAP
ENDCHAR
STARTCHAR 0179
ENCODING 377
SWIDTH 444 0
DWIDTH 20 0
BBX 0 0 0 0
BITMAP
ENDCHAR
STARTCHAR 017A
ENCODING 378
SWIDTH 444 0
DWIDTH 20 0
BBX 0 0 0 0
BITMAP
ENDCHAR
STARTCHAR 017B
ENCODING 379
SWIDTH 444 0
DWIDTH 20 0
BBX 0 0 0 0
BITMAP
ENDCHAR
STARTCHAR 017C
ENCODING 380
SWIDTH 444 0
DWIDTH 20 0
BBX 0 0 0 0
BITMAP
ENDCHAR
STARTCHAR 017D
ENCODING 381
SWIDTH 444 0
DWIDTH 20 0
BBX 0 0 0 0
BITMAP
ENDCHAR
STARTCHAR 017E
ENCODING 382
SWIDTH 444 0
DWIDTH 20 0
BBX 0 0 0 0
BITMAP
ENDCHAR
STARTCHAR 017F
ENCODING 383
SWIDTH 444 0
DWIDTH 20 0
BBX 0 0 0 0
BITMAP
ENDCHAR
STARTCHAR 0180
ENCODING 384
SWIDTH 444 0
DWIDTH 20 0
BBX 0 0 0 0
BITMAP
ENDCHAR
STARTCHAR 0181
ENCODING 385
SWIDTH 444 0
DWIDTH 20 0
BBX 0 0 0 0
BITMAP
ENDCHAR
STARTCHAR 0182
ENCODING 386
SWIDTH 444 0
DWIDTH 20 0
BBX 0 0 0 0
BITMAP
ENDCHAR
STARTCHAR 0183
ENCODING 387
SWIDTH 444 0
DWIDTH 20 0
BBX 0 0 0 0
BITMAP
ENDCHAR
STARTCHAR 0184
ENCODING 388
SWIDTH 444 0
DWIDTH 20 0
BBX 0 0 0 0
BITMAP
ENDCHAR
STARTCHAR 0185
ENCODING 389
SWIDTH 444 0
DWIDTH 20 0
BBX 0 0 0 0
BITMAP
ENDCHAR
STARTCHAR 0186
ENCODING 390
SWIDTH 444 0
DWIDTH 20 0
BBX 0 0 0 0
BITMAP
ENDCHAR
STARTCHAR 0187
ENCODING 391
SWIDTH 444 0
DWIDTH 20 0
BBX 0 0 0 0
BITMAP
ENDCHAR
STARTCHAR 0188
ENCODING 392
SWIDTH 444 0
DWIDTH 20 0
BBX 0 0 0 0
BITMAP
ENDCHAR
STARTCHAR 0189
ENCODING 393
SWIDTH 444 0
DWIDTH 20 0
BBX 0 0 0 0
BITMAP
ENDCHAR
STARTCHAR 018A
ENCODING 394
SWIDTH 444 0
DWIDTH 20 0
BBX 0 0 0 0
BITMAP
ENDCHAR
STARTCHAR 018B
ENCODING 395
SWIDTH 444 0
DWIDTH 20 0
BBX 0 0 0 0
BITMAP
ENDCHAR
STARTCHAR 018C
ENCODING 396
SWIDTH 444 0
DWIDTH 20 0
BBX 0 0 0 0
BITMAP
ENDCHAR
STARTCHAR 018D
ENCODING 397
SWIDTH 444 0
DWIDTH 20 0
BBX 0 0 0 0
BITMAP
ENDCHAR
STARTCHAR 018E
ENCODING 398
SWIDTH 444 0
DWIDTH 20 0
BBX 0 0 0 0
BITMAP
ENDCHAR
STARTCHAR 018F
ENCODING 399
SWIDTH 444 0
DWIDTH 20 0
BBX 0 0 0 0
BITMAP
ENDCHAR
STARTCHAR 0190
ENCODING 400
SWIDTH 444 0
DWIDTH 20 0
BBX 0 0 0 0
BITMAP
ENDCHAR
STARTCHAR 0191
ENCODING 401
SWIDTH 444 0
DWIDTH 20 0
BBX 0 0 0 0
BITMAP
ENDCHAR
STARTCHAR 0192
ENCODING 402
SWIDTH 444 0
DWIDTH 20 0
BBX 0 0 0 0
BITMAP
ENDCHAR
STARTCHAR 0193
ENCODING 403
SWIDTH 444 0
DWIDTH 20 0
BBX 0 0 0 0
BITMAP
ENDCHAR
STARTCHAR 0194
ENCODING 404
SWIDTH 444 0
DWIDTH 20 0
BBX 0 0 0 0
BITMAP
ENDCHAR
STARTCHAR 0195
ENCODING 405
SWIDTH 444 0
DWIDTH 20 0
BBX 0 0 0 0
BITMAP
ENDCHAR
STARTCHAR 0196
ENCODING 406
SWIDTH 444 0
DWIDTH 20 0
BBX 0 0 0 0
BITMAP
ENDCHAR
STARTCHAR 0197
ENCODING 407
SWIDTH 444 0
DWIDTH 20 0
BBX 0 0 0 0
BITMAP
ENDCHAR
STARTCHAR 0198
ENCODING 408
SWIDTH 444 0
DWIDTH 20 0
BBX 0 0 0 0
BITMAP
ENDCHAR
STARTCHAR 0199
ENCODING 409
SWIDTH 444 0
DWIDTH 20 0
BBX 0 0 0 0
BITMAP
ENDCHAR
STARTCHAR 019A
ENCODING 410
SWIDTH 444 0
DWIDTH 20 0
BBX 0 0 0 0
BITMAP
ENDCHAR
STARTCHAR 019B
ENCODING 411
SWIDTH 444 0
DWIDTH 20 0
BBX 0 0 0 0
BITMAP
ENDCHAR
STARTCHAR 019C
ENCODING 412
SWIDTH 444 0
DWIDTH 20 0
BBX 0 0 0 0
BITMAP
ENDCHAR
STARTCHAR 019D
ENCODING 413
SWIDTH 444 0
DWIDTH 20 0
BBX 0 0 0 0
BITMAP
ENDCHAR
STARTCHAR 019E
ENCODING 414
SWIDTH 444 0
DWIDTH 20 0
BBX 0 0 0 0
BITMAP
ENDCHAR
STARTCHAR 019F
ENCODING 415
SWIDTH 444 0
DWIDTH 20 0
BBX 0 0 0 0
BITMAP
ENDCHAR
STARTCHAR 01A0
ENCODING 416
SWIDTH 444 0
DWIDTH 20 0
BBX 0 0 0 0
BITMAP
ENDCHAR
STARTCHAR 01A1
ENCODING 417
SWIDTH 444 0
DWIDTH 20 0
BBX 0 0 0 0
BITMAP
ENDCHAR
STARTCHAR 01A2
ENCODING 418
SWIDTH 444 0
DWIDTH 20 0
BBX 0 0 0 0
BITMAP
ENDCHAR
STARTCHAR 01A3
ENCODING 419
SWIDTH 444 0
DWIDTH 20 0
BBX 0 0 0 0
BITMAP
ENDCHAR
STARTCHAR 01A4
ENCODING 420
SWIDTH 444 0
DWIDTH 20 0
BBX 0 0 0 0
BITMAP
ENDCHAR
STARTCHAR 01A5
ENCODING 421
SWIDTH 444 0
DWIDTH 20 0
BBX 0 0 0 0
BITMAP
ENDCHAR
STARTCHAR 01A6
ENCODING 422
SWIDTH 444 0
DWIDTH 20 0
BBX 0 0 0 0
BITMAP
ENDCHAR
STARTCHAR 01A7
ENCODING 423
SWIDTH 444 0
DWIDTH 20 0
BBX 0 0 0 0
BITMAP
ENDCHAR
STARTCHAR 01A8
ENCODING 424
SWIDTH 444 0
DWIDTH 20 0
BBX 0 0 0 0
BITMAP
ENDCHAR
STARTCHAR 01A9
ENCODING 425
SWIDTH 444 0
DWIDTH 20 0
BBX 0 0 0 0
BITMAP
ENDCHAR
STARTCHAR 01AA
ENCODING 426
SWIDTH 444 0
DWIDTH 20 0
BBX 0 0 0 0
BITMAP
ENDCHAR
STARTCHAR 01AB
ENCODING 427
SWIDTH 444 0
DWIDTH 20 0
BBX 0 0 0 0
BITMAP
ENDCHAR
STARTCHAR 01AC
ENCODING 428
SWIDTH 444 0
DWIDTH 20 0
BBX 0 0 0 0
BITMAP
ENDCHAR
STARTCHAR 01AD
ENCODING 429
SWIDTH 444 0
DWIDTH 20 0
BBX 0 0 0 0
BITMAP
ENDCHAR
STARTCHAR 01AE
ENCODING 430
SWIDTH 444 0
DWIDTH 20 0
BBX 0 0 0 0
BITMAP
ENDCHAR
STARTCHAR 01AF
ENCODING 431
SWIDTH 444 0
DWIDTH 20 0
BBX 0 0 0 0
BITMAP
ENDCHAR
STARTCHAR 01B0
ENCODING 432
SWIDTH 444 0
DWIDTH 20 0
BBX 0 0 0 0
BITMAP
ENDCHAR
STARTCHAR 01B1
ENCODING 433
SWIDTH 444 0
DWIDTH 20 0
BBX 0 0 0 0
BITMAP
ENDCHAR
STARTCHAR 01B2
ENCODING 434
SWIDTH 444 0
DWIDTH 20 0
BBX 0 0 0 0
BITMAP
ENDCHAR
STARTCHAR 01B3
ENCODING 435
SWIDTH 444 0
DWIDTH 20 0
BBX 0 0 0 0
BITMAP
ENDCHAR
STARTCHAR 01B4
ENCODING 436
SWIDTH 444 0
DWIDTH 20 0
BBX 0 0 0 0
BITMAP
ENDCHAR
STARTCHAR 01B5
ENCODING 437
SWIDTH 444 0
DWIDTH 20 0
BBX 0 0 0 0
BITMAP
ENDCHAR
STARTCHAR 01B6
ENCODING 438
SWIDTH 444 0
DWIDTH 20 0
BBX 0 0 0 0
BITMAP
ENDCHAR
STARTCHAR 01B7
ENCODING 439
SWIDTH 444 0
DWIDTH 20 0
BBX 0 0 0 0
BITMAP
ENDCHAR
STARTCHAR 01B8
ENCODING 440
SWIDTH 444 0
DWIDTH 20 0
BBX 0 0 0 0
BITMAP
ENDCHAR
STARTCHAR 01B9
ENCODING 441
SWIDTH 444 0
DWIDTH 20 0
BBX 0 0 0 0
BITMAP
ENDCHAR
STARTCHAR 01BA
ENCODING 442
SWIDTH 444 0
DWIDTH 20 0
BBX 0 0 0 0
BITMAP
ENDCHAR
STARTCHAR 01BB
ENCODING 443
SWIDTH 444 0
DWIDTH 20 0
BBX 0 0 0 0
BITMAP
ENDCHAR
STARTCHAR 01BC
ENCODING 444
SWIDTH 444 0
DWIDTH 20 0
BBX 0 0 0 0
BITMAP
ENDCHAR
STARTCHAR 01BD
ENCODING 445
SWIDTH 444 0
DWIDTH 20 0
BBX 0 0 0 0
BITMAP
ENDCHAR
STARTCHAR 01BE
ENCODING 446
SWIDTH 444 0
DWIDTH 20 0
BBX 0 0 0 0
BITMAP
ENDCHAR
STARTCHAR 01BF
ENCODING 447
SWIDTH 444 0
DWIDTH 20 0
BBX 0 0 0 0
BITMAP
ENDCHAR
STARTCHAR 01C0
ENCODING 448
SWIDTH 444 0
DWIDTH 20 0
BBX 0 0 0 0
BITMAP
ENDCHAR
STARTCHAR 01C1
ENCODING 449
SWIDTH 444 0
DWIDTH 20 0
BBX 0 0 0 0
BITMAP
ENDCHAR
STARTCHAR 01C2
ENCODING 450
SWIDTH 444 0
DWIDTH 20 0
BBX 0 0 0 0
BITMAP
ENDCHAR
STARTCHAR 01C3
ENCODING 451
SWIDTH 444 0
DWIDTH 20 0
BBX 0 0 0 0
BITMAP
ENDCHAR
STARTCHAR 01C4
ENCODING 452
SWIDTH 444 0
DWIDTH 20 0
BBX 0 0 0 0
BITMAP
ENDCHAR
STARTCHAR 01C5
ENCODING 453
SWIDTH 444 0
DWIDTH 20 0
BBX 0 0 0 0
BITMAP
ENDCHAR
STARTCHAR 01C6
ENCODING 454
SWIDTH 444 0
DWIDTH 20 0
BBX 0 0 0 0
BITMAP
ENDCHAR
STARTCHAR 01C7
ENCODING 455
SWIDTH 444 0
DWIDTH 20 0
BBX 0 0 0 0
BITMAP
ENDCHAR
STARTCHAR 01C8
ENCODING 456
SWIDTH 444 0
DWIDTH 20 0
BBX 0 0 0 0
BITMAP
ENDCHAR
STARTCHAR 01C9
ENCODING 457
SWIDTH 444 0
DWIDTH 20 0
BBX 0 0 0 0
BITMAP
ENDCHAR
STARTCHAR 01CA
ENCODING 458
SWIDTH 444 0
DWIDTH 20 0
BBX 0 0 0 0
BITMAP
ENDCHAR
STARTCHAR 01CB
ENCODING 459
SWIDTH 444 0
DWIDTH 20 0
BBX 0 0 0 0
BITMAP
ENDCHAR
STARTCHAR 01CC
ENCODING 460
SWIDTH 444 0
DWIDTH 20 0
BBX 0 0 0 0
BITMAP
ENDCHAR
STARTCHAR 01CD
ENCODING 461
SWIDTH 444 0
DWIDTH 20 0
BBX 0 0 0 0
BITMAP
ENDCHAR
STARTCHAR 01CE
ENCODING 462
SWIDTH 444 0
DWIDTH 20 0
BBX 0 0 0 0
BITMAP
ENDCHAR
STARTCHAR 01CF
ENCODING 463
SWIDTH 444 0
DWIDTH 20 0
BBX 0 0 0 0
BITMAP
ENDCHAR
STARTCHAR 01D0
ENCODING 464
SWIDTH 444 0
DWIDTH 20 0
BBX 0 0 0 0
BITMAP
ENDCHAR
STARTCHAR 01D1
ENCODING 465
SWIDTH 444 0
DWIDTH 20 0
BBX 0 0 0 0
BITMAP
ENDCHAR
STARTCHAR 01D2
ENCODING 466
SWIDTH 444 0
DWIDTH 20 0
BBX 0 0 0 0
BITMAP
ENDCHAR
STARTCHAR 01D3
ENCODING 467
SWIDTH 444 0
DWIDTH 20 0
BBX 0 0 0 0
BITMAP
ENDCHAR
STARTCHAR 01D4
ENCODING 468
SWIDTH 444 0
DWIDTH 20 0
BBX 0 0 0 0
BITMAP
ENDCHAR
STARTCHAR 01D5
ENCODING 469
SWIDTH 444 0
DWIDTH 20 0
BBX 0 0 0 0
BITMAP
ENDCHAR
STARTCHAR 01D6
ENCODING 470
SWIDTH 444 0
DWIDTH 20 0
BBX 0 0 0 0
BITMAP
ENDCHAR
STARTCHAR 01D7
ENCODING 471
SWIDTH 444 0
DWIDTH 20 0
BBX 0 0 0 0
BITMAP
ENDCHAR
STARTCHAR 01D8
ENCODING 472
SWIDTH 444 0
DWIDTH 20 0
BBX 0 0 0 0
BITMAP
ENDCHAR
STARTCHAR 01D9
ENCODING 473
SWIDTH 444 0
DWIDTH 20 0
BBX 0 0 0 0
BITMAP
ENDCHAR
STARTCHAR 01DA
ENCODING 474
SWIDTH 444 0
DWIDTH 20 0
BBX 0 0 0 0
BITMAP
ENDCHAR
STARTCHAR 01DB
ENCODING 475
SWIDTH 444 0
DWIDTH 20 0
BBX 0 0 0 0
BITMAP
ENDCHAR
STARTCHAR 01DC
ENCODING 476
SWIDTH 444 0
DWIDTH 20 0
BBX 0 0 0 0
BITMAP
ENDCHAR
STARTCHAR 01DD
ENCODING 477
SWIDTH 444 0
DWIDTH 20 0
BBX 0 0 0 0
BITMAP
ENDCHAR
STARTCHAR 01DE
ENCODING 478
SWIDTH 444 0
DWIDTH 20 0
BBX 0 0 0 0
BITMAP
ENDCHAR
STARTCHAR 01DF
ENCODING 479
SWIDTH 444 0
DWIDTH 20 0
BBX 0 0 0 0
BITMAP
ENDCHAR
STARTCHAR 01E0
ENCODING 480
SWIDTH 444 0
DWIDTH 20 0
BBX 0 0 0 0
BITMAP
ENDCHAR
STARTCHAR 01E1
ENCODING 481
SWIDTH 444 0
DWIDTH 20 0
BBX 0 0 0 0
BITMAP
ENDCHAR
STARTCHAR 01E2
ENCODING 482
SWIDTH 444 0
DWIDTH 20 0
BBX 0 0 0 0
BITMAP
ENDCHAR
STARTCHAR 01E3
ENCODING 483
SWIDTH 444 0
DWIDTH 20 0
BBX 0 0 0 0
BITMAP
ENDCHAR
STARTCHAR 01E4
ENCODING 484
SWIDTH 444 0
DWIDTH 20 0
BBX 0 0 0 0
BITMAP
ENDCHAR
STARTCHAR 01E5
ENCODING 485
SWIDTH 444 0
DWIDTH 20 0
BBX 0 0 0 0
BITMAP
ENDCHAR
STARTCHAR 01E6
ENCODING 486
SWIDTH 444 0
DWIDTH 20 0
BBX 0 0 0 0
BITMAP
ENDCHAR
STARTCHAR 01E7
ENCODING 487
SWIDTH 444 0
DWIDTH 20 0
BBX 0 0 0 0
BITMAP
ENDCHAR
STARTCHAR 01E8
ENCODING 488
SWIDTH 444 0
DWIDTH 20 0
BBX 0 0 0 0
BITMAP
ENDCHAR
STARTCHAR 01E9
ENCODING 489
SWIDTH 444 0
DWIDTH 20 0
BBX 0 0 0 0
BITMAP
ENDCHAR
STARTCHAR 01EA
ENCODING 490
SWIDTH 444 0
DWIDTH 20 0
BBX 0 0 0 0
BITMAP
ENDCHAR
STARTCHAR 01EB
ENCODING 491
SWIDTH 444 0
DWIDTH 20 0
BBX 0 0 0 0
BITMAP
ENDCHAR
STARTCHAR 01EC
ENCODING 492
SWIDTH 444 0
DWIDTH 20 0
BBX 0 0 0 0
BITMAP
ENDCHAR
STARTCHAR 01ED
ENCODING 493
SWIDTH 444 0
DWIDTH 20 0
BBX 0 0 0 0
BITMAP
ENDCHAR
STARTCHAR 01EE
ENCODING 494
SWIDTH 444 0
DWIDTH 20 0
BBX 0 0 0 0
BITMAP
ENDCHAR
STARTCHAR 01EF
ENCODING 495
SWIDTH 444 0
DWIDTH 20 0
BBX 0 0 0 0
BITMAP
ENDCHAR
STARTCHAR 01F0
ENCODING 496
SWIDTH 444 0
DWIDTH 20 0
BBX 0 0 0 0
BITMAP
ENDCHAR
STARTCHAR 01F1
ENCODING 497
SWIDTH 444 0
DWIDTH 20 0
BBX 0 0 0 0
BITMAP
ENDCHAR
STARTCHAR 01F2
ENCODING 498
SWIDTH 444 0
DWIDTH 20 0
BBX 0 0 0 0
BITMAP
ENDCHAR
STARTCHAR 01F3
ENCODING 499
SWIDTH 444 0
DWIDTH 20 0
BBX 0 0 0 0
BITMAP
ENDCHAR
STARTCHAR 01F4
ENCODING 500
SWIDTH 444 0
DWIDTH 20 0
BBX 0 0 0 0
BITMAP
ENDCHAR
STARTCHAR 01F5
ENCODING 501
SWIDTH 444 0
DWIDTH 20 0
BBX 0 0 0 0
BITMAP
ENDCHAR
STARTCHAR 01F6
ENCODING 502
SWIDTH 444 0
DWIDTH 20 0
BBX 0 0 0 0
BITMAP
ENDCHAR
STARTCHAR 01F7
ENCODING 503
SWIDTH 444 0
DWIDTH 20 0
BBX 0 0 0 0
BITMAP
ENDCHAR
STARTCHAR 01F8
ENCODING 504
SWIDTH 444 0
DWIDTH 20 0
BBX 0 0 0 0
BITMAP
ENDCHAR
STARTCHAR 01F9
ENCODING 505
SWIDTH 444 0
DWIDTH 20 0
BBX 0 0 0 0
BITMAP
ENDCHAR
STARTCHAR 01FA
ENCODING 506
SWIDTH 444 0
DWIDTH 20 0
BBX 0 0 0 0
BITMAP
ENDCHAR
STARTCHAR 01FB
ENCODING 507
SWIDTH 444 0
DWIDTH 20 0
BBX 0 0 0 0
BITMAP
ENDCHAR
STARTCHAR 01FC
ENCODING 508
SWIDTH 444 0
DWIDTH 20 0
BBX 0 0 0 0
BITMAP
ENDCHAR
STARTCHAR 01FD
ENCODING 509
SWIDTH 444 0
DWIDTH 20 0
BBX 0 0 0 0
BITMAP
ENDCHAR
STARTCHAR 01FE
ENCODING 510
SWIDTH 444 0
DWIDTH 20 0
BBX 0 0 0 0
BITMAP
ENDCHAR
STARTCHAR 01FF
ENCODING 511
SWIDTH 444 0
DWIDTH 20 0
BBX 0 0 0 0
BITMAP
ENDCHAR
STARTCHAR 0200
ENCODING 512
SWIDTH 444 0
DWIDTH 20 0
BBX 0 0 0 0
BITMAP
ENDCHAR
STARTCHAR 0201
ENCODING 513
SWIDTH 444 0
DWIDTH 20 0
BBX 0 0 0 0
BITMAP
ENDCHAR
STARTCHAR 0202
ENCODING 514
SWIDTH 444 0
DWIDTH 20 0
BBX 0 0 0 0
BITMAP
ENDCHAR
STARTCHAR 0203
ENCODING 515
SWIDTH 444 0
DWIDTH 20 0
BBX 0 0 0 0
BITMAP
ENDCHAR
STARTCHAR 0204
ENCODING 516
SWIDTH 444 0
DWIDTH 20 0
BBX 0 0 0 0
BITMAP
ENDCHAR
STARTCHAR 0205
ENCODING 517
SWIDTH 444 0
DWIDTH 20 0
BBX 0 0 0 0
BITMAP
ENDCHAR
STARTCHAR 0206
ENCODING 518
SWIDTH 444 0
DWIDTH 20 0
BBX 0 0 0 0
BITMAP
ENDCHAR
STARTCHAR 0207
ENCODING 519
SWIDTH 444 0
DWIDTH 20 0
BBX 0 0 0 0
BITMAP
ENDCHAR
STARTCHAR 0208
ENCODING 520
SWIDTH 444 0
DWIDTH 20 0
BBX 0 0 0 0
BITMAP
ENDCHAR
STARTCHAR 0209
ENCODING 521
SWIDTH 444 0
DWIDTH 20 0
BBX 0 0 0 0
BITMAP
ENDCHAR
STARTCHAR 020A
ENCODING 522
SWIDTH 444 0
DWIDTH 20 0
BBX 0 0 0 0
BITMAP
ENDCHAR
STARTCHAR 020B
ENCODING 523
SWIDTH 444 0
DWIDTH 20 0
BBX 0 0 0 0
BITMAP
ENDCHAR
STARTCHAR 020C
ENCODING 524
SWIDTH 444 0
DWIDTH 20 0
BBX 0 0 0 0
BITMAP
ENDCHAR
STARTCHAR 020D
ENCODING 525
SWIDTH 444 0
DWIDTH 20 0
BBX 0 0 0 0
BITMAP
ENDCHAR
STARTCHAR 020E
ENCODING 526
SWIDTH 444 0
DWIDTH 20 0
BBX 0 0 0 0
BITMAP
ENDCHAR
STARTCHAR 020F
ENCODING 527
SWIDTH 444 0
DWIDTH 20 0
BBX 0 0 0 0
BITMAP
ENDCHAR
STARTCHAR 0210
ENCODING 528
SWIDTH 444 0
DWIDTH 20 0
BBX 0 0 0 0
BITMAP
ENDCHAR
STARTCHAR 0211
ENCODING 529
SWIDTH 444 0
DWIDTH 20 0
BBX 0 0 0 0
BITMAP
ENDCHAR
STARTCHAR 0212
ENCODING 530
SWIDTH 444 0
DWIDTH 20 0
BBX 0 0 0 0
BITMAP
ENDCHAR
STARTCHAR 0213
ENCODING 531
SWIDTH 444 0
DWIDTH 20 0
BBX 0 0 0 0
BITMAP
ENDCHAR
STARTCHAR 0214
ENCODING 532
SWIDTH 444 0
DWIDTH 20 0
BBX 0 0 0 0
BITMAP
ENDCHAR
STARTCHAR 0215
ENCODING 533
SWIDTH 444 0
DWIDTH 20 0
BBX 0 0 0 0
BITMAP
ENDCHAR
STARTCHAR 0216
ENCODING 534
SWIDTH 444 0
DWIDTH 20 0
BBX 0 0 0 0
BITMAP
ENDCHAR
STARTCHAR 0217
ENCODING 535
SWIDTH 444 0
DWIDTH 20 0
BBX 0 0 0 0
BITMAP
ENDCHAR
STARTCHAR 0218
ENCODING 536
SWIDTH 444 0
DWIDTH 20 0
BBX 0 0 0 0
BITMAP
ENDCHAR
STARTCHAR 0219
ENCODING 537
SWIDTH 444 0
DWIDTH 20 0
BBX 0 0 0 0
BITMAP
ENDCHAR
STARTCHAR 021A
ENCODING 538
SWIDTH 444 0
DWIDTH 20 0
BBX 0 0 0 0
BITMAP
ENDCHAR
STARTCHAR 021B
ENCODING 539
SWIDTH 444 0
DWIDTH 20 0
BBX 0 0 0 0
BITMAP
ENDCHAR
STARTCHAR 021C
ENCODING 540
SWIDTH 444 0
DWIDTH 20 0
BBX 0 0 0 0
BITMAP
ENDCHAR
STARTCHAR 021D
ENCODING 541
SWIDTH 444 0
DWIDTH 20 0
BBX 0 0 0 0
BITMAP
ENDCHAR
STARTCHAR 021E
ENCODING 542
SWIDTH 444 0
DWIDTH 20 0
BBX 0 0 0 0
BITMAP
ENDCHAR
STARTCHAR 021F
ENCODING 543
SWIDTH 444 0
DWIDTH 20 0
BBX 0 0 0 0
BITMAP
ENDCHAR
STARTCHAR 20AC
ENCODING 8364
SWIDTH 533 0
DWIDTH 24 0
BBX 20 32 2 0
BITMAP
007E00
01FF80
03FFC0
07FFE0
07C3E0
0F81F0
0F00F0
0F00F0
0F0000
0F0000
0F0000
7FFF80
7FFF80
FFFF80
FFFF00
0F0000
0F0000
7FFE00
7FFE00
FFFC00
FFFC00
0F0000
0F0000
0F0000
0F00F0
0F00F0
0F81F0
07C3E0
07FFE0
03FFC0
01FF80
007E00
ENDCHAR
STARTCHAR 2190
ENCODING 8592
SWIDTH 711 0
DWIDTH 32 0
BBX 28 23 2 1
BITMAP
00180000
003C0000
007C0000
00F80000
01F00000
03E00000
07C00000
0F800000
1F000000
3FFFFFF0
7FFFFFF0
FFFFFFF0
7FFFFFF0
3F000000
1F800000
0FC00000
07E00000
03F00000
01F80000
00FC0000
007C0000
00380000
00100000
ENDCHAR
STARTCHAR 2191
ENCODING 8593
SWIDTH 622 0
DWIDTH 28 0
BBX 23 28 3 -2
BITMAP
003000
007800
00FC00
01FE00
03FF00
07FF80
0FFFC0
1FFFE0
3F7BF0
7E79F8
FC78FC
F8787E
70783C
207818
007800
007800
007800
007800
007800
007800
007800
007800
007800
007800
007800
007800
007800
007800
ENDCHAR
STARTCHAR 2192
ENCODING 8594
SWIDTH 711 0
DWIDTH 32 0
BBX 28 22 2 1
BITMAP
0000C000
0001E000
0003F000
0001F800
0000FC00
00007E00
00003F00
00001F80
00000FC0
FFFFFFE0
FFFFFFF0
FFFFFFF0
FFFFFFE0
000007C0
00000F80
00001F00
00003E00
00007C00
0000F800
0001F000
0001E000
0000C000
ENDCHAR
STARTCHAR 2193
ENCODING 8595
SWIDTH 622 0
DWIDTH 28 0
BBX 22 28 3 -2
BITMAP
007800
007800
007800
007800
007800
007800
007800
007800
007800
007800
007800
007800
007800
007800
207810
707838
F8787C
FC78FC
7E79F8
3F7BF0
1FFFE0
0FFFC0
07FF80
03FF00
01FE00
00FC00
007800
003000
ENDCHAR
STARTCHAR 2196
ENCODING 8598
SWIDTH 577 0
DWIDTH 26 0
BBX 21 21 2 0
BITMAP
FFFF80
FFFF80
FFFF80
FFFF80
FE0000
FF0000
FF8000
F7C000
F3E000
F1F000
F0F800
F07C00
F03E00
F01F00
F00F80
F007C0
0003E0
0001F0
0000F8
000078
000030
ENDCHAR
STARTCHAR 2197
ENCODING 8599
SWIDTH 577 0
DWIDTH 26 0
BBX 21 21 3 0
BITMAP
0FFFF8
0FFFF8
0FFFF8
0FFFF8
0003F8
0007F8
000FF8
001F78
003E78
007C78
00F878
01F078
03E078
07C078
0F8078
1F0078
3E0000
7C0000
F80000
F00000
600000
ENDCHAR
STARTCHAR 2198
ENCODING 8600
SWIDTH 577 0
DWIDTH 26 0
BBX 21 21 3 0
BITMAP
600000
F00000
F80000
7C0000
3E0000
1F0078
0F8078
07C078
03E078
01F078
00F878
007C78
003E78
001F78
000FF8
0007F8
0003F8
0FFFF8
0FFFF8
0FFFF8
0FFFF8
ENDCHAR
STARTCHAR 2199
ENCODING 8601
SWIDTH 577 0
DWIDTH 26 0
BBX 21 21 2 0
BITMAP
000030
000078
0000F8
0001F0
0003E0
F007C0
F00F80
F01F00
F03E00
F07C00
F0F800
F1F000
F3E000
F7C000
FF8000
FF0000
FE0000
FFFF80
FFFF80
FFFF80
FFFF80
ENDCHAR
STARTCHAR 26DF
ENCODING 9951
SWIDTH 2666 0
DWIDTH 120 0
BBX 116 31 2 0
BITMAP
FFFFFFFFFFFFFFFFFFFFFFFC000000
FFFFFFFFFFFFFFFFFFFFFFFC3FC000
FFFFFFFFFFFFFFFFFFFFFFFC7FF800
FFFFFFFFFFFFFFFFFFFFFFFC7FFC00
FFFFFFFFFFFFFFFFFFFFFFFC7FFF80
FFFFFFFFFFFFFFFFFFFFFFFC7FFFC0
FFFFFFFFFFFFFFFFFFFFFFFC7FFFE0
FFFFFFFFFFFFFFFFFFFFFFFC7F8040
FFFFFFFFFFFFFFFFFFFFFFFC7F8040
FFFFFFFFFFFFFFFFFFFFFFFC7F8040
FFFFFFFFFFFFFFFFFFFFFFFC7F8040
FFFFFFFFFFFFFFFFFFFFFFFC7F8040
FFFFFFFFFFFFFFFFFFFFFFFC7F8040
FFFFFFFFFFFFFFFFFFFFFFFC7F8040
FFFFFFFFFFFFFFFFFFFFFFFC7F8040
FFFFFFFFFFFFFFFFFFFFFFFF7FFFF0
FFFFFFFFFFFFFFFFFFFFFFFF7FFFF0
FFFFFFFFFFFFFFFFFFFFFFFF7FFFF0
FFFFFFFFFFFFFFFFFFFFFFFF7FFFF0
FFFFFFFFFFFFFFFFFFFFFFFF3FFFE0
FFFFFFFFFFFFFFFFFFFFFFFF7FFFE0
FFFFFFFFFFFFFFFFFFFFFFFE7FFFF0
C000000000000000000000007FFFF0
001E0780E0000000003E78007FFFF0
00218863180000000041FFFFFF81F0
005E97A5F400000000BEFFFFFF3CF0
00BF5FD5F400000000BEFFFFFF7EF0
00BF6FFBFC00000000FF7FFFFFFEE0
003F0FC3F8000000007F0000007E00
001F07C1F0000000003E0000007E00
001E0380E0000000001C0000003C00
ENDCHAR
STARTCHAR 2794
ENCODING 10132
SWIDTH 711 0
DWIDTH 32 0
BBX 28 22 2 1
BITMAP
0000C000
0001E000
0003F000
0001F800
0000FC00
00007E00
00003F00
00001F80
00000FC0
FFFFFFE0
FFFFFFF0
FFFFFFF0
FFFFFFE0
000007C0
00000F80
00001F00
00003E00
00007C00
0000F800
0001F000
0001E000
0000C000
ENDCHAR
STARTCHAR 463B
ENCODING 17979
SWIDTH 977 0
DWIDTH 44 0
BBX 40 14 2 0
BITMAP
007FFE0000
00E0010000
0380008000
0700004000
1FF0003E00
7FFFFFFFF8
7FFFFFFFFE
7CFFFFFF1E
EB3FFFFEE7
77BFFFFFF6
0FDFFFFDFC
0FC00001F8
07C00001F0
0780000060
ENDCHAR
STARTCHAR E031
ENCODING 57393
SWIDTH 422 0
DWIDTH 19 0
BBX 14 26 2 0
BITMAP
0180
0100
0000
0000
0780
07C0
0FC0
0FC0
0FC0
0F80
0F80
0F80
0F80
4780
7780
7D80
FDC0
7DC0
1CC0
18E0
1860
3070
3030
7038
183C
0018
ENDCHAR
ENDFONT
